<?xml version="1.0" encoding="utf-8"?>
<!-- Generator: Adobe Illustrator 16.0.0, SVG Export Plug-In . SVG Version: 6.00 Build 0)  -->
<!DOCTYPE svg PUBLIC "-//W3C//DTD SVG 1.1//EN" "http://www.w3.org/Graphics/SVG/1.1/DTD/svg11.dtd">
<svg version="1.1" id="Layer_1" xmlns="http://www.w3.org/2000/svg" xmlns:xlink="http://www.w3.org/1999/xlink" x="0px" y="0px"
	 width="690px" height="690px" viewBox="1.039 0.5 690 690" enable-background="new 1.039 0.5 690 690" xml:space="preserve">
<g id="Interests">
	<path opacity="0.7559" fill="#488C13" enable-background="new    " d="M334.622,218.499c7.549,0,15.076,0.838,22.441,2.499
		l-13.767,61.057c-2.846-0.642-5.757-0.965-8.674-0.965V218.499z"/>
</g>
<g id="Interests_1_">
	<path opacity="0.7559" fill="#509B21" enable-background="new    " d="M334.622,151.946c12.473,0,24.91,1.384,37.079,4.128
		l-14.638,64.923c-7.365-1.661-14.892-2.499-22.441-2.499V151.946z"/>
</g>
<g id="Social">
	<path opacity="0.7327" fill="#59AC24" enable-background="new    " d="M334.622,90.762c2.831,0,5.661,0.053,8.491,0.157
		l-2.261,61.142c-2.076-0.077-4.153-0.115-6.229-0.115V90.762z"/>
</g>
<g id="Realistic">
	<path opacity="0.6861" fill="#59AC24" enable-background="new    " d="M342.529,106.654c2.636,0.098,5.269,0.244,7.897,0.438
		l-3.355,45.313c-2.071-0.153-4.145-0.269-6.22-0.345L342.529,106.654z"/>
</g>
<g id="Investigative">
	<path opacity="0.7792" fill="#59AC24" enable-background="new    " d="M352.761,75.588c3.018,0.224,6.03,0.502,9.038,0.838
		l-8.523,76.555c-2.064-0.23-4.133-0.421-6.204-0.575L352.761,75.588z"/>
</g>
<g id="Enterprising">
	<path opacity="0.8257" fill="#59AC24" enable-background="new    " d="M363.563,60.585c3.202,0.356,6.397,0.771,9.585,1.247
		l-13.694,91.953c-2.055-0.306-4.114-0.574-6.179-0.804L363.563,60.585z"/>
</g>
<g id="Conventional">
	<path opacity="0.6396" fill="#59AC24" enable-background="new    " d="M363.843,124.314c2.418,0.36,4.829,0.765,7.23,1.214
		l-5.476,29.289c-2.042-0.382-4.089-0.726-6.144-1.032L363.843,124.314z"/>
</g>
<g id="Artistic">
	<path opacity="0.8722" fill="#59AC24" enable-background="new    " d="M385.626,47.678c3.361,0.629,6.712,1.319,10.048,2.072
		L371.7,156.074c-2.025-0.457-4.061-0.876-6.103-1.258L385.626,47.678z"/>
</g>
<g id="Skills">
	<path opacity="0.7714" fill="#1B55C0" enable-background="new    " d="M358.141,216.216c46.616,10.51,80.599,50.674,83.247,98.387
		l-67.386,3.74c-0.977-17.599-13.513-32.413-30.706-36.29L358.141,216.216z"/>
</g>
<g id="ContentAcquisition">
	<path opacity="0.8333" fill="#215ED5" enable-background="new    " d="M378.5,125.919c14.4,3.247,28.396,8.082,41.729,14.416
		l-39.721,83.608c-7.147-3.395-14.648-5.987-22.367-7.727L378.5,125.919z"/>
</g>
<g id="ActiveListening">
	<path opacity="0.8333" fill="#2468ED" enable-background="new    " d="M399.788,31.497c3.561,0.803,7.107,1.671,10.636,2.605
		l-24.764,93.57c-2.376-0.628-4.764-1.214-7.16-1.754L399.788,31.497z"/>
</g>
<g id="Mathematics">
	<path opacity="0.7778" fill="#2468ED" enable-background="new    " d="M405.501,52.705c3.299,0.874,6.583,1.808,9.848,2.803
		l-22.597,74.183c-2.351-0.716-4.716-1.389-7.092-2.018L405.501,52.705z"/>
</g>
<g id="ReadingComprehension">
	<path opacity="0.8333" fill="#2468ED" enable-background="new    " d="M420.956,37.1c3.492,1.063,6.965,2.191,10.414,3.383
		l-31.605,91.486c-2.324-0.803-4.661-1.562-7.013-2.278L420.956,37.1z"/>
</g>
<g id="Science">
	<path opacity="0.7778" fill="#2468ED" enable-background="new    " d="M425.087,58.671c3.227,1.115,6.432,2.289,9.613,3.522
		l-28.013,72.312c-2.291-0.888-4.601-1.733-6.923-2.536L425.087,58.671z"/>
</g>
<g id="Speaking">
	<path opacity="0.8889" fill="#2468ED" enable-background="new    " d="M448.645,26.199c3.627,1.405,7.227,2.876,10.799,4.414
		l-45.932,106.682c-2.257-0.972-4.532-1.902-6.824-2.79L448.645,26.199z"/>
</g>
<g id="Writing">
	<path opacity="0.8889" fill="#2468ED" enable-background="new    " d="M459.443,30.613c3.571,1.539,7.115,3.142,10.628,4.811
		l-49.843,104.911c-2.219-1.055-4.459-2.068-6.717-3.04L459.443,30.613z"/>
</g>
<g id="LearningProcess">
	<path opacity="0.875" fill="#215ED5" enable-background="new    " d="M426.24,127.682c9.507,4.517,18.669,9.731,27.406,15.599
		l-59.413,88.475c-4.376-2.938-8.964-5.55-13.726-7.813L426.24,127.682z"/>
</g>
<g id="ActiveLearning">
	<path opacity="0.8333" fill="#2468ED" enable-background="new    " d="M467.99,39.805c3.458,1.643,6.887,3.35,10.281,5.12
		l-44.968,86.275c-2.332-1.215-4.688-2.389-7.063-3.517L467.99,39.805z"/>
</g>
<g id="CriticalThinking">
	<path opacity="0.8889" fill="#2468ED" enable-background="new    " d="M487.256,27.686c3.608,1.88,7.182,3.827,10.717,5.839
		l-57.741,101.45c-2.285-1.301-4.595-2.56-6.928-3.776L487.256,27.686z"/>
</g>
<g id="LearningStrategies">
	<path opacity="0.9444" fill="#2468ED" enable-background="new    " d="M507.642,16.541c3.744,2.132,7.45,4.333,11.113,6.601
		l-71.738,115.863c-2.236-1.385-4.499-2.729-6.785-4.029L507.642,16.541z"/>
</g>
<g id="Monitoring">
	<path opacity="0.8333" fill="#2468ED" enable-background="new    " d="M498.234,56.286c3.254,2.016,6.473,4.092,9.651,6.227
		l-54.239,80.769c-2.184-1.466-4.394-2.893-6.63-4.277L498.234,56.286z"/>
</g>
<g id="ComplexProblemSolving">
	<path opacity="0.8889" fill="#215ED5" enable-background="new    " d="M456.262,139.389c2.231,1.499,4.435,3.039,6.61,4.619
		l-65.397,90.011c-1.067-0.774-2.146-1.528-3.241-2.263L456.262,139.389z"/>
</g>
<g id="ComplexProblemSolving_1_">
	<path opacity="0.8889" fill="#2468ED" enable-background="new    " d="M521.441,42.325c3.429,2.302,6.812,4.667,10.152,7.094
		l-68.722,94.589c-2.176-1.581-4.379-3.12-6.61-4.619L521.441,42.325z"/>
</g>
<g id="ResourceManagement">
	<path opacity="0.7083" fill="#215ED5" enable-background="new    " d="M427.507,192.682c6.304,4.58,12.259,9.619,17.819,15.077
		l-35.795,36.462c-3.763-3.693-7.792-7.104-12.057-10.202L427.507,192.682z"/>
</g>
<g id="ManagementofFinancialResources">
	<path opacity="0.7222" fill="#2468ED" enable-background="new    " d="M461.217,146.284c2.147,1.56,4.266,3.159,6.353,4.797
		l-35.402,45.121c-1.531-1.202-3.085-2.375-4.66-3.52L461.217,146.284z"/>
</g>
<g id="ManagementofMaterialResources">
	<path opacity="0.6667" fill="#2468ED" enable-background="new    " d="M456.042,165.773c1.908,1.495,3.785,3.026,5.635,4.592
		l-24.982,29.527c-1.486-1.258-2.994-2.488-4.527-3.689L456.042,165.773z"/>
</g>
<g id="ManagementofPersonnelResources">
	<path opacity="0.7222" fill="#2468ED" enable-background="new    " d="M473.74,156.109c2.024,1.714,4.019,3.465,5.979,5.253
		l-38.637,42.383c-1.438-1.312-2.902-2.596-4.389-3.854L473.74,156.109z"/>
</g>
<g id="TimeManagement">
	<path opacity="0.7222" fill="#2468ED" enable-background="new    " d="M479.72,161.362c1.962,1.788,3.889,3.611,5.782,5.47
		l-40.176,40.927c-1.39-1.364-2.805-2.702-4.243-4.014L479.72,161.362z"/>
</g>
<g id="Social_1_">
	<path opacity="0.8796" fill="#215ED5" enable-background="new    " d="M485.283,167.056c11.356,11.149,21.44,23.523,30.067,36.896
		l-90.87,58.615c-4.289-6.649-9.304-12.802-14.949-18.345L485.283,167.056z"/>
</g>
<g id="Coordination">
	<path opacity="0.8889" fill="#2468ED" enable-background="new    " d="M567.102,83.711c2.918,2.864,5.782,5.782,8.592,8.752
		l-84.842,80.265c-1.821-1.925-3.677-3.815-5.568-5.672L567.102,83.711z"/>
</g>
<g id="Instructing">
	<path opacity="0.9444" fill="#2468ED" enable-background="new    " d="M589.898,79.026c2.975,3.145,5.892,6.345,8.749,9.598
		l-102.441,89.978c-1.747-1.991-3.534-3.949-5.354-5.874L589.898,79.026z"/>
</g>
<g id="Negotiation">
	<path opacity="0.8333" fill="#2468ED" enable-background="new    " d="M569.345,114.361c2.54,2.892,5.027,5.831,7.458,8.814
		l-75.462,61.494c-1.674-2.054-3.386-4.077-5.135-6.068L569.345,114.361z"/>
</g>
<g id="Persuasion">
	<path opacity="0.8889" fill="#2468ED" enable-background="new    " d="M591.88,110.89c2.582,3.169,5.105,6.386,7.57,9.648
		l-93.203,70.384c-1.597-2.114-3.233-4.199-4.906-6.253L591.88,110.89z"/>
</g>
<g id="ServiceOrientation">
	<path opacity="0.8333" fill="#2468ED" enable-background="new    " d="M583.931,132.259c2.318,3.072,4.581,6.186,6.785,9.341
		l-79.798,55.753c-1.517-2.172-3.074-4.316-4.671-6.431L583.931,132.259z"/>
</g>
<g id="SocialPerceptiveness">
	<path opacity="0.8889" fill="#2468ED" enable-background="new    " d="M606.659,130.461c2.341,3.352,4.621,6.746,6.838,10.182
		l-98.146,63.308c-1.438-2.227-2.914-4.427-4.433-6.599L606.659,130.461z"/>
</g>
<g id="Systems">
	<path opacity="0.7963" fill="#215ED5" enable-background="new    " d="M491.865,219.101c3.748,5.813,7.174,11.83,10.258,18.022
		l-71.781,35.742c-1.762-3.538-3.72-6.977-5.861-10.298L491.865,219.101z"/>
</g>
<g id="JudgmentandDecisionMaking">
	<path opacity="0.8333" fill="#2468ED" enable-background="new    " d="M572.812,166.886c1.894,2.935,3.731,5.904,5.514,8.906
		l-82.82,49.188c-1.178-1.982-2.392-3.942-3.641-5.88L572.812,166.886z"/>
</g>
<g id="SystemsAnalysis">
	<path opacity="0.8333" fill="#2468ED" enable-background="new    " d="M578.326,175.792c1.784,3.003,3.512,6.038,5.184,9.104
		l-84.584,46.094c-1.103-2.024-2.244-4.028-3.42-6.01L578.326,175.792z"/>
</g>
<g id="SystemsEvaluation">
	<path opacity="0.7222" fill="#2468ED" enable-background="new    " d="M549.966,203.176c1.445,2.653,2.842,5.333,4.189,8.038
		l-52.032,25.909c-1.029-2.063-2.094-4.108-3.197-6.132L549.966,203.176z"/>
</g>
<g id="Technical">
	<path opacity="0.6465" fill="#215ED5" enable-background="new    " d="M458.019,259.083c8.356,16.781,13.2,35.09,14.239,53.807
		l-30.87,1.713c-0.806-14.519-4.563-28.721-11.046-41.738L458.019,259.083z"/>
</g>
<g id="EquipmentMaintenance">
	<path opacity="0.6111" fill="#2468ED" enable-background="new    " d="M475.857,250.201c0.867,1.74,1.701,3.496,2.503,5.267
		l-18.155,8.218c-0.7-1.547-1.43-3.081-2.187-4.602L475.857,250.201z"/>
</g>
<g id="EquipmentSelection">
	<path opacity="0.6667" fill="#2468ED" enable-background="new    " d="M495.05,247.914c0.896,1.976,1.753,3.969,2.573,5.978
		l-35.404,14.474c-0.643-1.572-1.313-3.132-2.014-4.679L495.05,247.914z"/>
</g>
<g id="Installation">
	<path opacity="0.6111" fill="#2468ED" enable-background="new    " d="M480.666,260.823c0.735,1.799,1.438,3.612,2.106,5.438
		l-18.714,6.854c-0.584-1.594-1.197-3.178-1.84-4.75L480.666,260.823z"/>
</g>
<g id="OperationandControl">
	<path opacity="0.5556" fill="#2468ED" enable-background="new    " d="M465.751,272.496c0.592,1.616,1.154,3.242,1.686,4.878
		l-1.713,0.557c-0.525-1.615-1.079-3.22-1.665-4.815L465.751,272.496z"/>
</g>
<g id="OperationMonitoring">
	<path opacity="0.5556" fill="#2468ED" enable-background="new    " d="M467.437,277.374c0.531,1.636,1.033,3.283,1.504,4.938
		l-1.733,0.492c-0.465-1.633-0.959-3.258-1.483-4.873L467.437,277.374z"/>
</g>
<g id="OperationsAnalysis">
	<path opacity="0.7778" fill="#2468ED" enable-background="new    " d="M539.728,262.17c0.721,2.527,1.393,5.066,2.018,7.619
		l-73.234,17.94c-0.404-1.65-0.838-3.292-1.304-4.926L539.728,262.17z"/>
</g>
<g id="Programming">
	<path opacity="0.6667" fill="#2468ED" enable-background="new    " d="M505.661,278.629c0.517,2.107,0.993,4.224,1.432,6.348
		l-37.461,7.722c-0.344-1.663-0.717-3.32-1.121-4.969L505.661,278.629z"/>
</g>
<g id="QualityControlAnalysis">
	<path opacity="0.6667" fill="#2468ED" enable-background="new    " d="M507.093,284.977c0.438,2.125,0.836,4.258,1.195,6.397
		l-37.72,6.333c-0.282-1.675-0.594-3.344-0.937-5.008L507.093,284.977z"/>
</g>
<g id="Repairing">
	<path opacity="0.5556" fill="#2468ED" enable-background="new    " d="M472.345,297.409c0.285,1.697,0.537,3.398,0.76,5.105
		l-1.787,0.232c-0.219-1.684-0.469-3.364-0.749-5.039L472.345,297.409z"/>
</g>
<g id="TechnologyDesign">
	<path opacity="0.6667" fill="#2468ED" enable-background="new    " d="M509.247,297.812c0.28,2.151,0.521,4.309,0.72,6.468
		l-38.085,3.529c-0.157-1.691-0.344-3.379-0.564-5.063L509.247,297.812z"/>
</g>
<g id="Troubleshooting">
	<path opacity="0.7778" fill="#2468ED" enable-background="new    " d="M546.96,300.852c0.241,2.616,0.437,5.236,0.581,7.86
		l-75.283,4.178c-0.094-1.696-0.219-3.39-0.376-5.081L546.96,300.852z"/>
</g>
<g id="Abilities">
	<path opacity="0.8094" fill="#5D235A" enable-background="new    " d="M453.443,313.934
		c3.642,65.623-46.604,121.774-112.228,125.417c-12.469,0.691-24.968-0.583-37.041-3.778l20.355-76.915
		c21.057,5.571,42.646-6.981,48.218-28.038c1.06-4.001,1.481-8.145,1.253-12.276L453.443,313.934z"/>
</g>
<g id="Cognitive-Attention">
	<path opacity="0.6944" fill="#5E265F" enable-background="new    " d="M500.303,311.333c0.226,4.083,0.302,8.172,0.226,12.261
		l-46.922-0.867c0.055-2.933,0-5.866-0.163-8.793L500.303,311.333z"/>
</g>
<g id="SelectiveAttention">
	<path opacity="0.6667" fill="#6B2A6F" enable-background="new    " d="M539.075,309.182c0.141,2.519,0.233,5.04,0.281,7.563
		l-38.828,0.717c-0.038-2.044-0.113-4.087-0.226-6.128L539.075,309.182z"/>
</g>
<g id="TimeSharing">
	<path opacity="0.7222" fill="#6B2A6F" enable-background="new    " d="M558.092,316.398c0.051,2.753,0.051,5.507,0,8.261
		l-57.563-1.064c0.038-2.045,0.038-4.089,0-6.133L558.092,316.398z"/>
</g>
<g id="Cognitive-IdeasandReasoning">
	<path opacity="0.8651" fill="#5E265F" enable-background="new    " d="M557.555,324.649c-0.356,19.252-3.204,38.378-8.475,56.898
		l-99.996-28.45c2.812-9.886,4.333-20.095,4.522-30.369L557.555,324.649z"/>
</g>
<g id="CategoryFlexibility">
	<path opacity="0.8333" fill="#6B2A6F" enable-background="new    " d="M655.152,326.452c-0.073,3.949-0.219,7.897-0.438,11.841
		l-97.464-5.409c0.151-2.743,0.254-5.488,0.305-8.235L655.152,326.452z"/>
</g>
<g id="DeductiveReasoning">
	<path opacity="0.8333" fill="#6B2A6F" enable-background="new    " d="M654.714,338.293c-0.219,3.943-0.511,7.882-0.875,11.814
		l-97.198-9.006c0.254-2.735,0.456-5.476,0.609-8.218L654.714,338.293z"/>
</g>
<g id="FluencyofIdeas">
	<path opacity="0.8889" fill="#6B2A6F" enable-background="new    " d="M673.248,351.906c-0.386,4.173-0.851,8.337-1.391,12.492
		L555.729,349.29c0.355-2.723,0.659-5.453,0.912-8.188L673.248,351.906z"/>
</g>
<g id="InductiveReasoning">
	<path opacity="0.8889" fill="#6B2A6F" enable-background="new    " d="M671.857,364.398c-0.54,4.155-1.158,8.299-1.852,12.43
		l-115.49-19.387c0.455-2.709,0.859-5.426,1.213-8.151L671.857,364.398z"/>
</g>
<g id="InformationOrdering">
	<path opacity="0.8889" fill="#6B2A6F" enable-background="new    " d="M670.006,376.828c-0.693,4.134-1.464,8.253-2.31,12.356
		l-114.694-23.643c0.554-2.69,1.058-5.392,1.514-8.101L670.006,376.828z"/>
</g>
<g id="Originality">
	<path opacity="0.8889" fill="#6B2A6F" enable-background="new    " d="M667.696,389.185c-0.845,4.104-1.768,8.19-2.764,12.26
		l-113.744-27.863c0.654-2.668,1.258-5.349,1.813-8.039L667.696,389.185z"/>
</g>
<g id="ProblemSensitivity">
	<path opacity="0.8333" fill="#6B2A6F" enable-background="new    " d="M645.999,396.807c-0.939,3.835-1.949,7.655-3.031,11.453
		l-93.888-26.713c0.753-2.642,1.454-5.298,2.108-7.966L645.999,396.807z"/>
</g>
<g id="Cognitive-Memory">
	<path opacity="0.7222" fill="#5E265F" enable-background="new    " d="M503.051,368.45c-0.591,2.075-1.22,4.14-1.887,6.191
		l-53.362-17.338c0.453-1.395,0.881-2.798,1.282-4.207L503.051,368.45z"/>
</g>
<g id="Memorization">
	<path opacity="0.7222" fill="#6B2A6F" enable-background="new    " d="M558.662,384.272c-0.786,2.762-1.621,5.507-2.509,8.235
		l-54.989-17.866c0.667-2.052,1.296-4.116,1.887-6.191L558.662,384.272z"/>
</g>
<g id="Cognitive-Perceptual">
	<path opacity="0.8148" fill="#5E265F" enable-background="new    " d="M530.553,384.191c-2.354,7.241-5.107,14.35-8.248,21.287
		l-79.267-35.878c1.813-4.008,3.405-8.114,4.764-12.297L530.553,384.191z"/>
</g>
<g id="FlexibilityofClosure">
	<path opacity="0.8333" fill="#6B2A6F" enable-background="new    " d="M622.831,414.174c-1.155,3.551-2.373,7.079-3.657,10.585
		l-91.108-33.372c0.873-2.384,1.702-4.782,2.487-7.195L622.831,414.174z"/>
</g>
<g id="PerceptualSpeed">
	<path opacity="0.7778" fill="#6B2A6F" enable-background="new    " d="M601.066,418.126c-1.202,3.282-2.466,6.543-3.789,9.779
		l-71.963-29.419c0.962-2.35,1.878-4.717,2.751-7.1L601.066,418.126z"/>
</g>
<g id="SpeedofClosure">
	<path opacity="0.8333" fill="#6B2A6F" enable-background="new    " d="M615.128,435.201c-1.414,3.457-2.89,6.887-4.43,10.288
		l-88.394-40.011c1.047-2.312,2.05-4.643,3.01-6.992L615.128,435.201z"/>
</g>
<g id="Cognitive-Quantitative">
	<path opacity="0.75" fill="#5E265F" enable-background="new    " d="M502.555,396.54c-1.873,4.139-3.898,8.206-6.072,12.194
		l-57.365-31.261c1.403-2.575,2.711-5.201,3.921-7.873L502.555,396.54z"/>
</g>
<g id="MathematicalReasoning">
	<path opacity="0.7778" fill="#6B2A6F" enable-background="new    " d="M572.771,428.322c-1.329,2.935-2.71,5.844-4.146,8.727
		l-68.994-34.355c1.012-2.033,1.987-4.084,2.923-6.153L572.771,428.322z"/>
</g>
<g id="NumberFacility">
	<path opacity="0.7222" fill="#6B2A6F" enable-background="new    " d="M551.601,428.571c-1.33,2.674-2.711,5.322-4.14,7.944
		l-50.979-27.781c1.086-1.993,2.136-4.009,3.149-6.041L551.601,428.571z"/>
</g>
<g id="Cognitive-Spatial">
	<path opacity="0.8611" fill="#5E265F" enable-background="new    " d="M529.229,426.58c-2.613,4.796-5.403,9.493-8.364,14.082
		l-86.238-55.626c1.59-2.465,3.089-4.988,4.491-7.562L529.229,426.58z"/>
</g>
<g id="SpatialOrientation">
	<path opacity="0.8333" fill="#6B2A6F" enable-background="new    " d="M614.901,473.267c-1.882,3.454-3.827,6.872-5.835,10.254
		l-83.89-49.822c1.394-2.348,2.745-4.721,4.052-7.118L614.901,473.267z"/>
</g>
<g id="Visualization">
	<path opacity="0.8889" fill="#6B2A6F" enable-background="new    " d="M625.82,493.47c-2.131,3.588-4.328,7.136-6.589,10.642
		l-98.367-63.449c1.48-2.294,2.918-4.615,4.312-6.964L625.82,493.47z"/>
</g>
<g id="Cognitive-Verbal">
	<path opacity="0.8472" fill="#5E265F" enable-background="new    " d="M516.919,438.118c-5.797,8.987-12.252,17.533-19.31,25.569
		l-73.575-64.626c3.871-4.406,7.412-9.096,10.592-14.025L516.919,438.118z"/>
</g>
<g id="OralComprehension">
	<path opacity="0.8333" fill="#6B2A6F" enable-background="new    " d="M598.776,490.918c-2.099,3.255-4.258,6.47-6.476,9.645
		l-79.852-55.789c1.531-2.191,3.021-4.41,4.47-6.655L598.776,490.918z"/>
</g>
<g id="OralExpression">
	<path opacity="0.8333" fill="#6B2A6F" enable-background="new    " d="M592.301,500.562c-2.219,3.175-4.495,6.309-6.829,9.398
		l-77.733-58.701c1.609-2.133,3.182-4.296,4.711-6.486L592.301,500.562z"/>
</g>
<g id="WrittenComprehension">
	<path opacity="0.8333" fill="#6B2A6F" enable-background="new    " d="M585.472,509.961c-2.334,3.091-4.725,6.139-7.172,9.141
		l-75.512-61.535c1.688-2.071,3.339-4.175,4.95-6.307L585.472,509.961z"/>
</g>
<g id="WrittenExpression">
	<path opacity="0.8889" fill="#6B2A6F" enable-background="new    " d="M593.386,531.395c-2.598,3.188-5.255,6.327-7.969,9.417
		l-87.808-77.124c1.765-2.009,3.49-4.049,5.179-6.121L593.386,531.395z"/>
</g>
<g id="Psychomoter-Control">
	<path opacity="0.8333" fill="#5E265F" enable-background="new    " d="M494.09,460.596c-6.906,7.861-14.384,15.202-22.372,21.961
		l-60.228-71.18c4.479-3.791,8.672-7.905,12.544-12.315L494.09,460.596z"/>
</g>
<g id="ControlPrecision">
	<path opacity="0.5556" fill="#6B2A6F" enable-background="new    " d="M495.497,461.832c-1.741,1.981-3.519,3.931-5.331,5.848
		l-1.361-1.288c1.798-1.898,3.559-3.831,5.285-5.796L495.497,461.832z"/>
</g>
<g id="MultilimbCoordination">
	<path opacity="0.9444" fill="#6B2A6F" enable-background="new    " d="M587.756,560.005c-2.949,3.118-5.957,6.183-9.021,9.189
		L483.31,471.99c1.865-1.832,3.698-3.698,5.495-5.599L587.756,560.005z"/>
</g>
<g id="RateControl">
	<path opacity="0.9444" fill="#6B2A6F" enable-background="new    " d="M578.735,569.194c-3.064,3.008-6.184,5.959-9.355,8.852
		l-91.77-100.665c1.933-1.762,3.833-3.56,5.699-5.391L578.735,569.194z"/>
</g>
<g id="ResponseOrientation">
	<path opacity="0.8889" fill="#6B2A6F" enable-background="new    " d="M556.217,563.607c-2.995,2.729-6.039,5.404-9.134,8.022
		l-75.365-89.073c1.995-1.688,3.96-3.415,5.893-5.176L556.217,563.607z"/>
</g>
<g id="Psychomoter-Fine">
	<path opacity="0.9074" fill="#5E265F" enable-background="new    " d="M487.927,501.715c-6.698,5.668-13.706,10.959-20.989,15.852
		l-65.972-98.242c3.652-2.453,7.166-5.105,10.524-7.947L487.927,501.715z"/>
</g>
<g id="Arm-HandSteadiness">
	<path opacity="0.8333" fill="#6B2A6F" enable-background="new    " d="M551.284,576.592c-3.155,2.67-6.359,5.281-9.611,7.831
		l-60.545-77.166c2.3-1.807,4.567-3.653,6.799-5.542L551.284,576.592z"/>
</g>
<g id="FingerDexterity">
	<path opacity="0.9444" fill="#6B2A6F" enable-background="new    " d="M565.895,615.296c-3.63,2.85-7.314,5.632-11.049,8.345
		l-80.719-111.099c2.366-1.719,4.7-3.48,7.001-5.285L565.895,615.296z"/>
</g>
<g id="ManualDexterity">
	<path opacity="0.9444" fill="#6B2A6F" enable-background="new    " d="M554.846,623.641c-3.734,2.713-7.52,5.357-11.351,7.931
		l-76.558-114.005c2.428-1.631,4.825-3.305,7.189-5.024L554.846,623.641z"/>
</g>
<g id="Psychomoter-Speed">
	<path opacity="0.9074" fill="#5E265F" enable-background="new    " d="M466.938,517.566c-7.284,4.891-14.835,9.375-22.615,13.431
		l-54.696-104.938c3.901-2.032,7.687-4.281,11.34-6.734L466.938,517.566z"/>
</g>
<g id="ReactionTime">
	<path opacity="0.8889" fill="#6B2A6F" enable-background="new    " d="M532.528,615.241c-3.631,2.439-7.307,4.81-11.024,7.112
		l-61.938-100.032c2.485-1.54,4.943-3.125,7.371-4.755L532.528,615.241z"/>
</g>
<g id="SpeedofLimbMovement">
	<path opacity="0.8889" fill="#6B2A6F" enable-background="new    " d="M521.504,622.354c-3.719,2.302-7.479,4.536-11.28,6.699
		L452.024,526.8c2.542-1.445,5.055-2.938,7.542-4.479L521.504,622.354z"/>
</g>
<g id="Wrist-FingerSpeed">
	<path opacity="0.9444" fill="#6B2A6F" enable-background="new    " d="M519.953,646.147c-4.012,2.284-8.065,4.493-12.159,6.626
		l-63.472-121.776c2.592-1.352,5.16-2.75,7.702-4.197L519.953,646.147z"/>
</g>
<g id="Physical-Dexterity">
	<path opacity="0.7639" fill="#5E265F" enable-background="new    " d="M421.96,488.095c-8.261,4.306-16.83,7.995-25.635,11.037
		l-22.844-66.122c5.545-1.916,10.942-4.238,16.145-6.951L421.96,488.095z"/>
</g>
<g id="DynamicFlexibility">
	<path opacity="0.7222" fill="#6B2A6F" enable-background="new    " d="M448.847,539.681c-2.7,1.406-5.426,2.765-8.175,4.071
		l-24.963-52.545c2.103-0.999,4.187-2.036,6.251-3.112L448.847,539.681z"/>
</g>
<g id="ExtentFlexibility">
	<path opacity="0.7778" fill="#6B2A6F" enable-background="new    " d="M448.847,560.958c-2.962,1.407-5.95,2.761-8.962,4.058
		l-30.539-70.929c2.139-0.921,4.26-1.881,6.363-2.88L448.847,560.958z"/>
</g>
<g id="GrossBodyCoordination">
	<path opacity="0.7778" fill="#6B2A6F" enable-background="new    " d="M439.885,565.016c-3.014,1.296-6.049,2.537-9.107,3.722
		l-27.896-72.008c2.171-0.841,4.326-1.722,6.464-2.643L439.885,565.016z"/>
</g>
<g id="GrossBodyEquilibrium">
	<path opacity="0.7778" fill="#6B2A6F" enable-background="new    " d="M430.777,568.737c-3.058,1.185-6.137,2.312-9.237,3.384
		l-25.215-72.989c2.2-0.76,4.387-1.562,6.557-2.402L430.777,568.737z"/>
</g>
<g id="Physical-Strength">
	<path opacity="0.6944" fill="#5E265F" enable-background="new    " d="M388.806,477.368c-7.732,2.671-15.651,4.768-23.693,6.271
		l-8.624-46.131c5.769-1.078,11.448-2.581,16.993-4.498L388.806,477.368z"/>
</g>
<g id="DynamicStrength">
	<path opacity="0.7222" fill="#6B2A6F" enable-background="new    " d="M407.605,531.784c-2.604,0.9-5.222,1.751-7.856,2.554
		l-16.775-55.075c1.955-0.596,3.9-1.227,5.832-1.895L407.605,531.784z"/>
</g>
<g id="ExplosiveStrength">
	<path opacity="0.6667" fill="#6B2A6F" enable-background="new    " d="M394.288,516.411c-2.412,0.735-4.839,1.426-7.277,2.07
		l-9.936-37.54c1.977-0.523,3.942-1.082,5.898-1.679L394.288,516.411z"/>
</g>
<g id="Stamina">
	<path opacity="0.6667" fill="#6B2A6F" enable-background="new    " d="M387.011,518.481c-2.439,0.646-4.89,1.246-7.352,1.802
		l-8.541-37.883c1.994-0.45,3.979-0.936,5.957-1.459L387.011,518.481z"/>
</g>
<g id="TrunkStrength">
	<path opacity="0.7222" fill="#6B2A6F" enable-background="new    " d="M383.781,538.563c-2.687,0.606-5.384,1.162-8.09,1.667
		l-10.579-56.592c2.01-0.376,4.011-0.789,6.006-1.238L383.781,538.563z"/>
</g>
<g id="Sensory-AuditoryandSpeech">
	<path opacity="0.8667" fill="#5E265F" enable-background="new    " d="M375.691,540.23c-13.544,2.532-27.292,3.807-41.07,3.807
		V439.534c7.335,0,14.656-0.68,21.867-2.026L375.691,540.23z"/>
</g>
<g id="AuditoryAttention">
	<path opacity="0.8889" fill="#6B2A6F" enable-background="new    " d="M397.213,655.364c-4.124,0.771-8.265,1.467-12.416,2.084
		l-17.252-115.85c2.724-0.405,5.439-0.861,8.146-1.368L397.213,655.364z"/>
</g>
<g id="HearingSensitivity">
	<path opacity="0.8889" fill="#6B2A6F" enable-background="new    " d="M384.797,657.448c-4.149,0.619-8.312,1.159-12.483,1.624
		l-12.961-116.408c2.737-0.305,5.468-0.659,8.192-1.065L384.797,657.448z"/>
</g>
<g id="SoundLocalization">
	<path opacity="0.8333" fill="#6B2A6F" enable-background="new    " d="M370.156,639.696c-3.933,0.438-7.872,0.803-11.818,1.095
		l-7.209-97.365c2.745-0.203,5.487-0.457,8.224-0.762L370.156,639.696z"/>
</g>
<g id="SpeechClarity">
	<path opacity="0.8889" fill="#6B2A6F" enable-background="new    " d="M359.778,660.234c-4.186,0.31-8.376,0.543-12.569,0.697
		l-4.328-117.048c2.752-0.102,5.501-0.254,8.248-0.458L359.778,660.234z"/>
</g>
<g id="SpeechRecognition">
	<path opacity="0.8333" fill="#6B2A6F" enable-background="new    " d="M346.487,641.449c-3.953,0.146-7.91,0.219-11.866,0.219
		v-97.631c2.753,0,5.507-0.051,8.259-0.153L346.487,641.449z"/>
</g>
<g id="Sensory-Visual">
	<path opacity="0.7302" fill="#5E265F" enable-background="new    " d="M334.622,498.272c-15.35,0-30.636-1.989-45.474-5.916
		l15.028-56.784c9.935,2.63,20.169,3.962,30.446,3.962V498.272z"/>
</g>
<g id="DepthPerception">
	<path opacity="0.7222" fill="#6B2A6F" enable-background="new    " d="M334.622,556.159c-2.904,0-5.806-0.053-8.707-0.159
		l2.139-57.85c2.188,0.081,4.379,0.122,6.568,0.122V556.159z"/>
</g>
<g id="FarVision">
	<path opacity="0.7222" fill="#6B2A6F" enable-background="new    " d="M325.915,556c-2.901-0.108-5.8-0.27-8.696-0.483l4.276-57.73
		c2.184,0.162,4.37,0.284,6.558,0.364L325.915,556z"/>
</g>
<g id="GlareSensitivity">
	<path opacity="0.6667" fill="#6B2A6F" enable-background="new    " d="M318.609,536.734c-2.664-0.196-5.323-0.443-7.977-0.739
		l4.321-38.815c2.177,0.243,4.358,0.445,6.542,0.606L318.609,536.734z"/>
</g>
<g id="NearVision">
	<path opacity="0.7778" fill="#6B2A6F" enable-background="new    " d="M306.449,573.567c-3.117-0.348-6.229-0.752-9.332-1.214
		l11.322-76.021c2.167,0.323,4.338,0.606,6.515,0.848L306.449,573.567z"/>
</g>
<g id="NightVision">
	<path opacity="0.7778" fill="#6B2A6F" enable-background="new    " d="M297.117,572.354c-3.102-0.462-6.196-0.982-9.279-1.558
		l14.123-75.55c2.153,0.401,4.313,0.765,6.479,1.086L297.117,572.354z"/>
</g>
<g id="PeripheralVision">
	<path opacity="0.7222" fill="#6B2A6F" enable-background="new    " d="M291.324,552.147c-2.854-0.533-5.697-1.119-8.529-1.758
		l12.732-56.47c2.136,0.481,4.282,0.924,6.433,1.326L291.324,552.147z"/>
</g>
<g id="VisualColorDiscrimination">
	<path opacity="0.7222" fill="#6B2A6F" enable-background="new    " d="M282.795,550.39c-2.832-0.639-5.652-1.329-8.458-2.072
		l14.811-55.961c2.116,0.56,4.244,1.081,6.38,1.563L282.795,550.39z"/>
</g>
<g id="Knowledge">
	<path opacity="0.7384" fill="#C60800" enable-background="new    " d="M309.932,413.82c-36.638-9.696-64.208-39.939-70.483-77.315
		l56.276-9.448c2.564,15.275,13.833,27.637,28.806,31.601L309.932,413.82z"/>
</g>
<g id="ArtsandHumanities">
	<path opacity="0.8111" fill="#D72121" enable-background="new    " d="M288.304,495.545c-10.79-2.855-21.29-6.702-31.371-11.491
		l36.277-76.358c5.373,2.552,10.971,4.604,16.722,6.125L288.304,495.545z"/>
</g>
<g id="EnglishLanguage">
	<path opacity="0.8889" fill="#D52424" enable-background="new    " d="M258.796,607.04c-3.531-0.935-7.042-1.935-10.536-2.998
		l33.607-110.328c2.133,0.649,4.279,1.26,6.436,1.831L258.796,607.04z"/>
</g>
<g id="FineArts">
	<path opacity="0.9444" fill="#D52424" enable-background="new    " d="M242.621,622.561c-3.722-1.134-7.421-2.336-11.099-3.605
		l43.982-127.309c2.108,0.729,4.23,1.417,6.363,2.067L242.621,622.561z"/>
</g>
<g id="ForeignLanguage">
	<path opacity="0.7222" fill="#D52424" enable-background="new    " d="M256.574,546.44c-2.783-0.961-5.548-1.975-8.294-3.038
		l20.942-54.058c2.08,0.806,4.175,1.573,6.283,2.302L256.574,546.44z"/>
</g>
<g id="HistoryandArcheology">
	<path opacity="0.7222" fill="#D52424" enable-background="new    " d="M248.279,543.402c-2.745-1.063-5.472-2.178-8.177-3.343
		l22.925-53.247c2.049,0.882,4.114,1.727,6.193,2.532L248.279,543.402z"/>
</g>
<g id="PhilosophyandTheology">
	<path opacity="0.7778" fill="#D52424" enable-background="new    " d="M232.592,557.507c-2.919-1.258-5.816-2.568-8.688-3.933
		l33.028-69.521c2.014,0.957,4.048,1.877,6.095,2.759L232.592,557.507z"/>
</g>
<g id="BusinessandManagement">
	<path opacity="0.7889" fill="#D72121" enable-background="new    " d="M260.095,477.397c-9.67-4.594-18.895-10.072-27.557-16.364
		l45.359-62.432c4.813,3.497,9.939,6.54,15.312,9.094L260.095,477.397z"/>
</g>
<g id="AdministrationandManagement">
	<path opacity="0.7778" fill="#D52424" enable-background="new    " d="M227.171,546.697c-2.786-1.324-5.548-2.698-8.284-4.124
		l35.462-68.036c1.897,0.989,3.813,1.942,5.746,2.86L227.171,546.697z"/>
</g>
<g id="Clerical">
	<path opacity="0.7778" fill="#D52424" enable-background="new    " d="M218.887,542.573c-2.735-1.426-5.444-2.902-8.125-4.43
		l37.95-66.679c1.859,1.06,3.739,2.083,5.636,3.072L218.887,542.573z"/>
</g>
<g id="CustomerandPersonalService">
	<path opacity="0.7778" fill="#D52424" enable-background="new    " d="M210.763,538.144c-2.682-1.525-5.334-3.102-7.958-4.726
		l40.389-65.23c1.819,1.127,3.659,2.22,5.519,3.277L210.763,538.144z"/>
</g>
<g id="EconomicsandAccounting">
	<path opacity="0.7778" fill="#D52424" enable-background="new    " d="M202.805,533.418c-2.623-1.623-5.215-3.295-7.776-5.016
		l42.772-63.693c1.775,1.192,3.574,2.352,5.393,3.479L202.805,533.418z"/>
</g>
<g id="PersonnelandHumanResources">
	<path opacity="0.8333" fill="#D52424" enable-background="new    " d="M184.396,544.236c-2.756-1.852-5.478-3.753-8.164-5.704
		l56.306-77.499c1.732,1.258,3.486,2.482,5.263,3.676L184.396,544.236z"/>
</g>
<g id="Communications">
	<path opacity="0.7222" fill="#D72121" enable-background="new    " d="M245.43,443.29c-3.026-2.198-5.969-4.507-8.823-6.922
		l35.679-42.169c1.816,1.536,3.687,3.004,5.611,4.402L245.43,443.29z"/>
</g>
<g id="CommunicationsandMedia">
	<path opacity="0.7778" fill="#D52424" enable-background="new    " d="M200.792,504.728c-2.27-1.648-4.508-3.34-6.714-5.071
		l46.876-59.746c1.471,1.153,2.963,2.28,4.476,3.38L200.792,504.728z"/>
</g>
<g id="Telecommunications">
	<path opacity="0.6667" fill="#D52424" enable-background="new    " d="M217.159,470.238c-1.844-1.447-3.663-2.928-5.452-4.441
		l24.9-29.429c1.427,1.207,2.877,2.389,4.348,3.542L217.159,470.238z"/>
</g>
<g id="EducationandTraining">
	<path opacity="0.9444" fill="#D72121" enable-background="new    " d="M188.772,492.902c-2.125-1.796-4.214-3.634-6.271-5.507
		l87.106-95.55c0.878,0.801,1.772,1.585,2.679,2.354L188.772,492.902z"/>
</g>
<g id="EducationandTraining_1_">
	<path opacity="0.9444" fill="#D52424" enable-background="new    " d="M100.392,597.356c-3.411-2.886-6.768-5.835-10.069-8.845
		l92.179-101.116c2.056,1.873,4.146,3.711,6.271,5.507L100.392,597.356z"/>
</g>
<g id="EngineeringandTechnology">
	<path opacity="0.6778" fill="#D72121" enable-background="new    " d="M242.139,421.977c-6.254-5.7-11.967-11.968-17.067-18.722
		l32.538-24.571c3.585,4.749,7.601,9.153,11.998,13.162L242.139,421.977z"/>
</g>
<g id="BuildingandConstruction">
	<path opacity="0.6111" fill="#D52424" enable-background="new    " d="M228.717,436.699c-1.43-1.304-2.838-2.636-4.22-3.991
		l13.957-14.217c1.207,1.185,2.435,2.347,3.686,3.485L228.717,436.699z"/>
</g>
<g id="ComputersandElectronics">
	<path opacity="0.8333" fill="#D52424" enable-background="new    " d="M172.478,485.696c-2.035-1.997-4.033-4.032-5.993-6.104
		l68.414-64.722c1.162,1.229,2.348,2.437,3.555,3.621L172.478,485.696z"/>
</g>
<g id="Design">
	<path opacity="0.6667" fill="#D52424" enable-background="new    " d="M207.124,441.146c-1.486-1.57-2.943-3.169-4.371-4.793
		l28.729-25.233c1.116,1.271,2.255,2.521,3.417,3.75L207.124,441.146z"/>
</g>
<g id="EngineeringandTechnology_1_">
	<path opacity="0.6667" fill="#D52424" enable-background="new    " d="M202.753,436.354c-1.427-1.625-2.824-3.275-4.189-4.952
		l29.641-24.155c1.068,1.312,2.16,2.604,3.277,3.874L202.753,436.354z"/>
</g>
<g id="Mechanical">
	<path opacity="0.6111" fill="#D52424" enable-background="new    " d="M212.76,419.833c-1.223-1.502-2.418-3.026-3.586-4.571
		l15.898-12.007c1.019,1.351,2.063,2.681,3.133,3.991L212.76,419.833z"/>
</g>
<g id="HealthServices">
	<path opacity="0.6667" fill="#D72121" enable-background="new    " d="M227.94,401.09c-1.984-2.629-3.872-5.33-5.657-8.1
		l31.242-20.151c1.288,1.998,2.651,3.947,4.084,5.845L227.94,401.09z"/>
</g>
<g id="MedicineandDentistry">
	<path opacity="0.6111" fill="#D52424" enable-background="new    " d="M212.079,413.068c-1.14-1.511-2.252-3.04-3.336-4.593
		l16.294-11.383c0.943,1.35,1.911,2.682,2.903,3.997L212.079,413.068z"/>
</g>
<g id="TherapyandCounseling">
	<path opacity="0.7222" fill="#D52424" enable-background="new    " d="M178.632,429.515c-1.343-1.921-2.65-3.869-3.921-5.84
		l47.572-30.685c0.893,1.384,1.811,2.752,2.754,4.103L178.632,429.515z"/>
</g>
<g id="LawandPublicSafety">
	<path opacity="0.6667" fill="#D72121" enable-background="new    " d="M222.283,392.99c-0.893-1.384-1.76-2.784-2.602-4.2
		l31.966-18.984c0.608,1.021,1.233,2.033,1.878,3.033L222.283,392.99z"/>
</g>
<g id="LawandGovernment">
	<path opacity="0.6667" fill="#D52424" enable-background="new    " d="M190.221,413.672c-1.148-1.778-2.263-3.579-3.343-5.399
		l32.804-19.482c0.842,1.416,1.709,2.816,2.602,4.2L190.221,413.672z"/>
</g>
<g id="ManufacturingandProduction">
	<path opacity="0.6389" fill="#D72121" enable-background="new    " d="M227.376,384.221c-1.569-2.643-3.042-5.343-4.411-8.094
		l25.269-12.583c1.061,2.129,2.199,4.219,3.413,6.262L227.376,384.221z"/>
</g>
<g id="FoodProduction">
	<path opacity="0.6111" fill="#D52424" enable-background="new    " d="M210.386,394.31c-0.909-1.529-1.789-3.076-2.641-4.64
		l17.351-9.456c0.735,1.35,1.496,2.686,2.281,4.007L210.386,394.31z"/>
</g>
<g id="ProductionandProcessing">
	<path opacity="0.6667" fill="#D52424" enable-background="new    " d="M191.781,398.37c-0.96-1.76-1.886-3.538-2.779-5.332
		l33.963-16.911c0.685,1.375,1.395,2.738,2.13,4.087L191.781,398.37z"/>
</g>
<g id="MathematicsandScience">
	<path opacity="0.746" fill="#D72121" enable-background="new    " d="M191.805,391.644c-6.143-12.334-10.661-25.411-13.442-38.906
		l61.741-12.727c1.683,8.162,4.416,16.072,8.13,23.533L191.805,391.644z"/>
</g>
<g id="Biology">
	<path opacity="0.7222" fill="#D52424" enable-background="new    " d="M140.427,417.225c-1.191-2.391-2.338-4.805-3.441-7.241
		l52.289-23.666c0.81,1.79,1.653,3.565,2.531,5.326L140.427,417.225z"/>
</g>
<g id="Chemistry">
	<path opacity="0.6667" fill="#D52424" enable-background="new    " d="M154.01,402.278c-1.007-2.226-1.973-4.469-2.898-6.729
		l35.83-14.647c0.744,1.818,1.521,3.625,2.333,5.416L154.01,402.278z"/>
</g>
<g id="Geography">
	<path opacity="0.7222" fill="#D52424" enable-background="new    " d="M133.815,402.621c-1.011-2.476-1.977-4.969-2.896-7.478
		l53.892-19.741c0.677,1.848,1.387,3.68,2.13,5.499L133.815,402.621z"/>
</g>
<g id="Mathematics_1_">
	<path opacity="0.7778" fill="#D52424" enable-background="new    " d="M113.234,401.622c-0.999-2.729-1.947-5.474-2.845-8.235
		l72.498-23.558c0.606,1.87,1.249,3.728,1.924,5.573L113.234,401.622z"/>
</g>
<g id="Physics">
	<path opacity="0.7222" fill="#D52424" enable-background="new    " d="M128.302,387.564c-0.826-2.54-1.605-5.097-2.336-7.668
		l55.203-15.707c0.539,1.89,1.111,3.771,1.719,5.64L128.302,387.564z"/>
</g>
<g id="Psychology">
	<path opacity="0.8333" fill="#D52424" enable-background="new    " d="M89.603,390.242c-0.859-3.019-1.662-6.054-2.409-9.103
		l92.466-22.651c0.469,1.91,0.971,3.811,1.509,5.701L89.603,390.242z"/>
</g>
<g id="SociologyandAnthropology">
	<path opacity="0.7778" fill="#D52424" enable-background="new    " d="M105.621,376.626c-0.691-2.82-1.33-5.655-1.917-8.499
		l74.659-15.39c0.397,1.926,0.83,3.843,1.297,5.751L105.621,376.626z"/>
</g>
<g id="Transportation">
	<path opacity="0.6111" fill="#D72121" enable-background="new    " d="M221.165,343.915c-0.288-1.397-0.55-2.801-0.786-4.209
		l19.07-3.201c0.198,1.174,0.416,2.341,0.655,3.506L221.165,343.915z"/>
</g>
<g id="Transportation_1_">
	<path opacity="0.6111" fill="#D52424" enable-background="new    " d="M201.932,347.879c-0.337-1.634-0.643-3.276-0.919-4.921
		l19.366-3.252c0.236,1.408,0.498,2.812,0.786,4.209L201.932,347.879z"/>
</g>
<g id="WorkActivities">
	<path opacity="0.7791" fill="#DA4B0F" enable-background="new    " d="M226.757,338.636c-9.61-57.25,27.179-112.035,83.808-124.802
		l15.382,68.22c-20.421,4.604-33.687,24.359-30.222,45.003L226.757,338.636z"/>
</g>
<g id="InformationInput">
	<path opacity="0.7222" fill="#F25321" enable-background="new    " d="M171.774,347.866c-1.685-10.039-2.438-20.211-2.25-30.389
		l55.743,1.03c-0.125,6.741,0.375,13.479,1.49,20.128L171.774,347.866z"/>
</g>
<g id="EstimatingtheQuantifiableCharacteristicsofProductsEventsorInformation">
	<path opacity="0.7222" fill="#FF5C24" enable-background="new    " d="M115.018,357.394c-0.454-2.706-0.858-5.42-1.212-8.14
		l57.07-7.424c0.263,2.018,0.562,4.028,0.898,6.036L115.018,357.394z"/>
</g>
<g id="GettingInformation">
	<path opacity="0.7222" fill="#FF5C24" enable-background="new    " d="M113.806,349.254c-0.354-2.722-0.658-5.448-0.91-8.18
		l57.305-5.311c0.188,2.026,0.413,4.048,0.675,6.066L113.806,349.254z"/>
</g>
<g id="IdentifyingObjectsActionsandEvents">
	<path opacity="0.7778" fill="#FF5C24" enable-background="new    " d="M94.099,342.816c-0.274-2.963-0.494-5.933-0.659-8.903
		l76.311-4.234c0.112,2.03,0.262,4.059,0.451,6.085L94.099,342.816z"/>
</g>
<g id="InspectingEquipmentStructuresorMaterial">
	<path opacity="0.6667" fill="#FF5C24" enable-background="new    " d="M130.991,331.829c-0.139-2.51-0.232-5.02-0.278-7.531
		l38.811-0.719c0.038,2.035,0.112,4.067,0.226,6.1L130.991,331.829z"/>
</g>
<g id="MonitorProcessesMaterialsorSurroundings">
	<path opacity="0.7222" fill="#FF5C24" enable-background="new    " d="M111.983,324.643c-0.05-2.742-0.05-5.487,0-8.229
		l57.541,1.063c-0.038,2.034-0.038,4.069,0,6.102L111.983,324.643z"/>
</g>
<g id="InteractingWithOthers-Administering">
	<path opacity="0.7407" fill="#F25321" enable-background="new    " d="M163.414,317.364c0.117-6.33,0.584-12.648,1.401-18.925
		l61.347,7.98c-0.522,4.01-0.821,8.045-0.896,12.088L163.414,317.364z"/>
</g>
<g id="MonitoringandControllingResources">
	<path opacity="0.7222" fill="#FF5C24" enable-background="new    " d="M105.708,316.297c0.052-2.82,0.157-5.64,0.312-8.456
		l57.628,3.198c-0.117,2.106-0.195,4.215-0.234,6.325L105.708,316.297z"/>
</g>
<g id="PerformingAdministrativeActivities">
	<path opacity="0.7778" fill="#FF5C24" enable-background="new    " d="M87.126,306.793c0.169-3.049,0.395-6.095,0.677-9.136
		l76.312,7.071c-0.194,2.101-0.35,4.205-0.467,6.311L87.126,306.793z"/>
</g>
<g id="StaffingOrganizationalUnits">
	<path opacity="0.7222" fill="#FF5C24" enable-background="new    " d="M106.645,299.403c0.26-2.809,0.573-5.612,0.936-8.409
		l57.234,7.445c-0.272,2.092-0.505,4.189-0.7,6.29L106.645,299.403z"/>
</g>
<g id="InteractingWithOthers-Communicating">
	<path opacity="0.8056" fill="#F25321" enable-background="new    " d="M143.455,295.66c2.455-18.875,7.693-37.284,15.542-54.625
		l75.984,34.393c-4.453,9.839-7.426,20.283-8.818,30.992L143.455,295.66z"/>
</g>
<g id="AssistingandCaringforOthers">
	<path opacity="0.7222" fill="#FF5C24" enable-background="new    " d="M85.676,288.144c0.399-3.067,0.854-6.127,1.367-9.177
		l57.461,9.646c-0.393,2.342-0.742,4.692-1.049,7.047L85.676,288.144z"/>
</g>
<g id="CommunicatingwithPersonsOutsideOrganization">
	<path opacity="0.7222" fill="#FF5C24" enable-background="new    " d="M87.042,278.967c0.512-3.05,1.081-6.091,1.705-9.12
		l57.066,11.762c-0.479,2.326-0.916,4.662-1.31,7.004L87.042,278.967z"/>
</g>
<g id="CommunicatingwithSupervisorsPeersorSubordinates">
	<path opacity="0.7778" fill="#FF5C24" enable-background="new    " d="M70.063,265.996c0.672-3.259,1.404-6.506,2.196-9.738
		l75.121,18.402c-0.565,2.307-1.088,4.624-1.567,6.95L70.063,265.996z"/>
</g>
<g id="EstablishingandMaintainingInterpersonalRelationships">
	<path opacity="0.8889" fill="#FF5C24" enable-background="new    " d="M34.848,247.093c0.905-3.693,1.878-7.37,2.918-11.027
		l111.437,31.707c-0.65,2.284-1.258,4.58-1.823,6.887L34.848,247.093z"/>
</g>
<g id="InterpretingtheMeaningofInformationforOthers">
	<path opacity="0.8889" fill="#FF5C24" enable-background="new    " d="M37.767,236.066c1.041-3.657,2.148-7.295,3.324-10.912
		l110.188,35.802c-0.734,2.259-1.426,4.531-2.076,6.816L37.767,236.066z"/>
</g>
<g id="PerformingfororWorkingDirectlywiththePublic">
	<path opacity="0.8333" fill="#FF5C24" enable-background="new    " d="M59.461,231.124c1.102-3.391,2.266-6.76,3.492-10.107
		l90.652,33.206c-0.817,2.23-1.593,4.475-2.327,6.733L59.461,231.124z"/>
</g>
<g id="ResolvingConflictsandNegotiatingwithOthers">
	<path opacity="0.7778" fill="#FF5C24" enable-background="new    " d="M80.982,227.621c1.145-3.125,2.347-6.228,3.606-9.309
		l71.591,29.267c-0.899,2.198-1.757,4.413-2.574,6.644L80.982,227.621z"/>
</g>
<g id="SellingorInfluencingOthers">
	<path opacity="0.8333" fill="#FF5C24" enable-background="new    " d="M66.815,211.046c1.35-3.3,2.759-6.574,4.229-9.821
		l87.953,39.81c-0.979,2.164-1.919,4.346-2.817,6.544L66.815,211.046z"/>
</g>
<g id="InteractingWithOthers-Coordinating">
	<path opacity="0.8611" fill="#F25321" enable-background="new    " d="M142.015,233.348c6.451-14.252,14.464-27.744,23.891-40.228
		l81.435,61.496c-4.878,6.459-9.023,13.439-12.36,20.812L142.015,233.348z"/>
</g>
<g id="CoachingandDevelopingOthers">
	<path opacity="0.8889" fill="#FF5C24" enable-background="new    " d="M35.748,185.249c1.667-3.682,3.401-7.333,5.203-10.952
		l104.417,51.994c-1.161,2.332-2.279,4.685-3.353,7.057L35.748,185.249z"/>
</g>
<g id="CoordinatingtheWorkandActivitiesofOthers">
	<path opacity="0.8889" fill="#FF5C24" enable-background="new    " d="M40.95,174.297c1.802-3.618,3.67-7.203,5.604-10.752
		l102.425,55.817c-1.247,2.287-2.451,4.597-3.612,6.929L40.95,174.297z"/>
</g>
<g id="DevelopingandBuildingTeams">
	<path opacity="0.8889" fill="#FF5C24" enable-background="new    " d="M46.554,163.545c1.934-3.548,3.934-7.062,5.998-10.537
		l100.292,59.563c-1.33,2.24-2.618,4.503-3.864,6.791L46.554,163.545z"/>
</g>
<g id="GuidingDirectingandMotivatingSubordinates">
	<path opacity="0.7778" fill="#FF5C24" enable-background="new    " d="M85.864,172.793c1.82-3.065,3.697-6.096,5.629-9.092
		l65.464,42.227c-1.412,2.189-2.783,4.404-4.114,6.644L85.864,172.793z"/>
</g>
<g id="ProvideConsultationandAdvicetoOthers">
	<path opacity="0.7778" fill="#FF5C24" enable-background="new    " d="M91.493,163.701c1.932-2.996,3.919-5.955,5.961-8.876
		l63.859,44.617c-1.492,2.135-2.944,4.298-4.356,6.486L91.493,163.701z"/>
</g>
<g id="TrainingandTeachingOthers">
	<path opacity="0.9444" fill="#FF5C24" enable-background="new    " d="M49.683,121.447c2.452-3.511,4.97-6.976,7.55-10.393
		l108.673,82.066c-1.569,2.079-3.101,4.187-4.593,6.321L49.683,121.447z"/>
</g>
<g id="MentalProcesses-InfoandData">
	<path opacity="0.7778" fill="#F25321" enable-background="new    " d="M188.171,209.934c5.453-7.22,11.431-14.027,17.888-20.366
		l51.941,52.911c-3.849,3.778-7.412,7.834-10.661,12.137L188.171,209.934z"/>
</g>
<g id="AnalyzingDataorInformation">
	<path opacity="0.8333" fill="#FF5C24" enable-background="new    " d="M111.412,151.969c2.077-2.75,4.204-5.461,6.381-8.133
		l74.564,60.763c-1.429,1.753-2.824,3.532-4.187,5.336L111.412,151.969z"/>
</g>
<g id="EvaluatingInformationtoDetermineCompliancewithStandards">
	<path opacity="0.7778" fill="#FF5C24" enable-background="new    " d="M132.63,155.926c2.028-2.489,4.102-4.939,6.221-7.352
		l57.889,50.847c-1.493,1.699-2.953,3.424-4.381,5.177L132.63,155.926z"/>
</g>
<g id="JudgingtheQualitiesofThingsServicesorPeople">
	<path opacity="0.7222" fill="#FF5C24" enable-background="new    " d="M153.135,161.121c1.964-2.236,3.969-4.436,6.014-6.597
		l42.159,39.884c-1.554,1.642-3.076,3.313-4.568,5.012L153.135,161.121z"/>
</g>
<g id="ProcessingInformation">
	<path opacity="0.7778" fill="#FF5C24" enable-background="new    " d="M145.338,141.458c2.206-2.332,4.455-4.623,6.746-6.872
		l53.976,54.981c-1.614,1.584-3.197,3.198-4.752,4.841L145.338,141.458z"/>
</g>
<g id="MentalProcesses-ReasoningandDecisions">
	<path opacity="0.8704" fill="#F25321" enable-background="new    " d="M184.326,167.43c11.33-11.122,23.857-20.951,37.354-29.308
		l55.364,89.415c-6.881,4.261-13.268,9.272-19.043,14.941L184.326,167.43z"/>
</g>
<g id="DevelopingObjectivesandStrategies">
	<path opacity="0.8889" fill="#FF5C24" enable-background="new    " d="M102.522,84.101c2.913-2.859,5.878-5.665,8.895-8.415
		l78.669,86.295c-1.953,1.781-3.875,3.598-5.761,5.45L102.522,84.101z"/>
</g>
<g id="MakingDecisionsandSolvingProblems">
	<path opacity="0.8889" fill="#FF5C24" enable-background="new    " d="M111.417,75.686c3.017-2.75,6.084-5.444,9.2-8.08
		l75.426,89.143c-2.017,1.708-4.004,3.452-5.957,5.232L111.417,75.686z"/>
</g>
<g id="OrganizingPlanningandPrioritizingWork">
	<path opacity="0.8333" fill="#FF5C24" enable-background="new    " d="M133.178,82.449c2.933-2.482,5.912-4.909,8.935-7.281
		l60.078,76.571c-2.08,1.631-4.129,3.302-6.147,5.009L133.178,82.449z"/>
</g>
<g id="SchedulingWorkandActivities">
	<path opacity="0.7778" fill="#FF5C24" enable-background="new    " d="M154.048,90.38c2.835-2.225,5.711-4.396,8.627-6.515
		l45.841,63.097c-2.138,1.554-4.247,3.146-6.327,4.778L154.048,90.38z"/>
</g>
<g id="ThinkingCreatively">
	<path opacity="0.9444" fill="#FF5C24" enable-background="new    " d="M128.39,36.675c3.497-2.541,7.041-5.017,10.629-7.427
		l75.998,113.172c-2.195,1.474-4.362,2.987-6.5,4.542L128.39,36.675z"/>
</g>
<g id="UpdatingandUsingRelevantKnowledge">
	<path opacity="0.8889" fill="#FF5C24" enable-background="new    " d="M149.918,45.478c3.389-2.276,6.819-4.488,10.29-6.638
		l61.472,99.282c-2.247,1.392-4.468,2.825-6.662,4.298L149.918,45.478z"/>
</g>
<g id="WorkOutput-ComplexandTechnical">
	<path opacity="0.6778" fill="#F25321" enable-background="new    " d="M255.369,192.533c7.89-4.885,16.215-9.03,24.869-12.383
		l14.874,38.391c-6.288,2.436-12.336,5.447-18.068,8.997L255.369,192.533z"/>
</g>
<g id="DocumentingRecordingInformation">
	<path opacity="0.7778" fill="#FF5C24" enable-background="new    " d="M215.417,128.005c2.372-1.469,4.77-2.893,7.195-4.273
		l37.542,65.96c-1.613,0.918-3.207,1.865-4.785,2.841L215.417,128.005z"/>
</g>
<g id="DraftingLayingOutandSpecifyingTechnicalDevicesPartsandEquipment">
	<path opacity="0.6111" fill="#FF5C24" enable-background="new    " d="M250.222,172.241c1.826-1.04,3.673-2.046,5.537-3.018
		l9.281,17.806c-1.645,0.857-3.273,1.745-4.885,2.662L250.222,172.241z"/>
</g>
<g id="InteractingWithComputers">
	<path opacity="0.7778" fill="#FF5C24" enable-background="new    " d="M229.96,119.727c2.475-1.289,4.971-2.532,7.492-3.73
		l32.568,68.553c-1.676,0.796-3.336,1.623-4.981,2.48L229.96,119.727z"/>
</g>
<g id="RepairingandMaintainingElectronicEquipment">
	<path opacity="0.6111" fill="#FF5C24" enable-background="new    " d="M261.403,166.412c1.899-0.902,3.814-1.769,5.744-2.601
		l7.942,18.444c-1.704,0.733-3.394,1.498-5.069,2.294L261.403,166.412z"/>
</g>
<g id="RepairingandMaintainingMechanicalEquipment">
	<path opacity="0.6111" fill="#FF5C24" enable-background="new    " d="M267.147,163.812c1.931-0.831,3.878-1.626,5.838-2.386
		l7.253,18.724c-1.729,0.67-3.447,1.372-5.149,2.106L267.147,163.812z"/>
</g>
<g id="WorkOutput-PhysicalandManual">
	<path opacity="0.6944" fill="#F25321" enable-background="new    " d="M278.268,175.064c7.173-2.778,14.54-5.022,22.042-6.714
		l10.255,45.483c-5.26,1.186-10.426,2.759-15.453,4.707L278.268,175.064z"/>
</g>
<g id="ControllingMachinesandProcesses">
	<path opacity="0.6111" fill="#FF5C24" enable-background="new    " d="M270.992,156.283c2.024-0.784,4.062-1.53,6.112-2.238
		l6.578,19.037c-1.817,0.628-3.622,1.289-5.415,1.983L270.992,156.283z"/>
</g>
<g id="HandlingandMovingObjects">
	<path opacity="0.7778" fill="#FF5C24" enable-background="new    " d="M258.833,101.154c2.703-0.934,5.423-1.817,8.158-2.65
		l22.174,72.796c-1.838,0.561-3.667,1.154-5.483,1.782L258.833,101.154z"/>
</g>
<g id="OperatingVehiclesMechanizedDevicesorEquipment">
	<path opacity="0.6111" fill="#FF5C24" enable-background="new    " d="M283.296,152.032c2.076-0.632,4.163-1.227,6.261-1.781
		l5.153,19.471c-1.858,0.492-3.707,1.018-5.545,1.577L283.296,152.032z"/>
</g>
<g id="PerformingGeneralPhysicalActivities">
	<path opacity="0.7778" fill="#FF5C24" enable-background="new    " d="M275.241,96.155c2.765-0.731,5.542-1.412,8.332-2.041
		l16.737,74.235c-1.875,0.423-3.741,0.88-5.6,1.372L275.241,96.155z"/>
</g>
<g id="WorkValues">
	<path opacity="0.7559" fill="#E9B104" enable-background="new    " d="M312.181,220.997c7.365-1.661,14.892-2.499,22.441-2.499
		v62.59c-2.918,0-5.829,0.323-8.675,0.965L312.181,220.997z"/>
</g>
<g id="WorkValues_1_">
	<path opacity="0.7559" fill="#FFC421" enable-background="new    " d="M297.542,156.074c12.169-2.744,24.605-4.128,37.079-4.128
		v66.552c-7.549,0-15.076,0.838-22.441,2.499L297.542,156.074z"/>
</g>
<g id="Achievement">
	<path opacity="0.7327" fill="#FFDA24" enable-background="new    " d="M284.085,96.389c2.762-0.624,5.534-1.194,8.317-1.714
		l11.243,60.142c-2.042,0.381-4.077,0.801-6.102,1.258L284.085,96.389z"/>
</g>
<g id="Independence">
	<path opacity="0.8722" fill="#FFDA24" enable-background="new    " d="M283.616,47.678c3.363-0.628,6.735-1.194,10.118-1.698
		l16.055,107.805c-2.055,0.306-4.103,0.65-6.145,1.032L283.616,47.678z"/>
</g>
<g id="Recognition">
	<path opacity="0.7792" fill="#FFDA24" enable-background="new    " d="M298.442,77.596c2.993-0.445,5.994-0.835,9.001-1.17
		l8.523,76.555c-2.064,0.229-4.123,0.498-6.178,0.804L298.442,77.596z"/>
</g>
<g id="Relationships">
	<path opacity="0.8257" fill="#FFDA24" enable-background="new    " d="M305.68,60.585c3.203-0.356,6.412-0.654,9.626-0.892
		l6.866,92.713c-2.071,0.153-4.14,0.345-6.205,0.575L305.68,60.585z"/>
</g>
<g id="Support">
	<path opacity="0.6861" fill="#FFDA24" enable-background="new    " d="M318.816,107.093c2.628-0.195,5.261-0.341,7.897-0.438
		l1.679,45.407c-2.076,0.077-4.148,0.192-6.22,0.345L318.816,107.093z"/>
</g>
<g id="WorkingConditions">
	<path opacity="0.6396" fill="#FFDA24" enable-background="new    " d="M327.291,122.285c2.442-0.09,4.886-0.135,7.331-0.135v29.796
		c-2.077,0-4.154,0.038-6.23,0.115L327.291,122.285z"/>
</g>
</svg>
