<?xml version="1.0" encoding="utf-8"?>
<!-- Generator: Adobe Illustrator 16.0.0, SVG Export Plug-In . SVG Version: 6.00 Build 0)  -->
<!DOCTYPE svg PUBLIC "-//W3C//DTD SVG 1.1//EN" "http://www.w3.org/Graphics/SVG/1.1/DTD/svg11.dtd">
<svg version="1.1" id="Layer_1" xmlns="http://www.w3.org/2000/svg" xmlns:xlink="http://www.w3.org/1999/xlink" x="0px" y="0px"
	 width="800px" height="308px" viewBox="0 0 800 308" enable-background="new 0 0 800 308" xml:space="preserve">
<g>
	<path opacity="0.7559" fill="#488C13" enable-background="new    " d="M636,82.998c4.423,0,8.781,0.441,13.032,1.436
		l-12.757,55.763L636,82.998L636,82.998z"/>
	<path opacity="0.7559" fill="#509B21" enable-background="new    " d="M636,28.147c8.385,0,16.837,0.937,25.064,2.766
		l-12.032,53.323c-4.251-0.995-8.609-1.435-13.032-1.435V28.147z"/>
	<path opacity="0.7714" fill="#1B55C0" enable-background="new    " d="M649.928,80.404c27.645,6.241,47.733,30.034,49.405,58.345
		l-63.058,1.344L649.928,80.404z"/>
	<path opacity="0.8333" fill="#215ED5" enable-background="new    " d="M666.646,6.184c10.044,2.259,19.852,5.629,29.146,10.038
		L663.17,84.906c-4.198-2.001-8.622-3.601-13.255-4.592L666.646,6.184z"/>
	<path opacity="0.875" fill="#215ED5" enable-background="new    " d="M700.702,5.836c6.728,3.206,13.178,6.845,19.378,10.998
		L671.347,89.52c-2.594-1.762-5.318-3.316-8.177-4.625L700.702,5.836z"/>
	<path opacity="0.8889" fill="#215ED5" enable-background="new    " d="M722.291,13.688c1.594,1.047,3.094,2.199,4.635,3.26
		l-53.605,73.91c-0.711-0.447-1.369-0.941-2.001-1.33L722.291,13.688z"/>
	<path opacity="0.7083" fill="#215ED5" enable-background="new    " d="M697.886,56.887c4.251,3.087,8.228,6.404,11.861,10.051
		l-29.356,29.931c-2.159-2.16-4.581-4.215-7.07-6.03L697.886,56.887z"/>
	<path opacity="0.8796" fill="#215ED5" enable-background="new    " d="M742.592,33.546c8.003,7.904,15.178,16.62,21.26,26.119
		l-74.575,48.127c-2.542-3.976-5.518-7.616-8.886-10.913L742.592,33.546z"/>
	<path opacity="0.7963" fill="#215ED5" enable-background="new    " d="M744.632,72.078c2.54,4.03,4.91,8.175,7.017,12.415
		l-58.949,29.441c-1.055-2.153-2.213-4.207-3.423-6.141L744.632,72.078z"/>
	<path opacity="0.6465" fill="#215ED5" enable-background="new    " d="M715.433,102.601c5.426,10.813,8.505,22.53,9.229,34.609
		l-25.328,1.433c-0.5-8.602-2.777-16.994-6.634-24.728L715.433,102.601z"/>
	<path opacity="0.8094" fill="#482355" enable-background="new    " d="M709.193,138.038c2.212,40.521-28.751,75.024-69.218,77.269
		c-7.558,0.453-15.284-0.219-22.748-2.362l19.048-72.959l0,0l0,0L709.193,138.038z"/>
	<path opacity="0.6944" fill="#502658" enable-background="new    " d="M747.619,135.945c0.172,2.751,0.225,5.521,0.172,8.28
		l-38.544-0.776c0-1.711,0-3.521-0.054-5.411L747.619,135.945z"/>
	<path opacity="0.6667" fill="#592A6C" enable-background="new    " d="M779.465,134.174c0.172,1.771,0.236,3.527,0.236,5.306
		l-31.896,0.613c0-1.391-0.079-2.824-0.186-4.135L779.465,134.174z"/>
	<path opacity="0.7222" fill="#592A6C" enable-background="new    " d="M795.143,139.19c0,1.943,0,3.923,0,5.904l-47.338-0.877
		c0-1.382,0-2.77,0-4.139L795.143,139.19z"/>
	<path opacity="0.8651" fill="#502658" enable-background="new    " d="M794.643,145.108c-0.274,13.683-2.315,27.324-6.002,40.455
		l-82.198-23.31c1.765-6.067,2.712-12.412,2.816-18.757L794.643,145.108z"/>
	<path opacity="0.7222" fill="#502658" enable-background="new    " d="M750.819,174.806c-0.436,1.48-0.883,2.811-1.277,4.227
		l-43.878-14.278c0.329-0.821,0.607-1.657,0.778-2.532L750.819,174.806z"/>
	<path opacity="0.8148" fill="#502658" enable-background="new    " d="M773.607,186.872c-1.594,5.047-3.527,10.05-5.728,15.04
		l-65.15-29.527c1.118-2.489,2.106-5.037,2.935-7.631L773.607,186.872z"/>
	<path opacity="0.75" fill="#502658" enable-background="new    " d="M751.584,194.513c-1.2,2.857-2.594,5.629-4.135,8.394
		l-47.076-25.737c0.817-1.554,1.646-3.139,2.356-4.805L751.584,194.513z"/>
	<path opacity="0.8611" fill="#502658" enable-background="new    " d="M774.331,217.531c-1.817,3.311-3.805,6.853-5.898,9.914
		l-70.824-45.544c0.936-1.526,1.818-3.081,2.765-4.713L774.331,217.531z"/>
	<path opacity="0.8472" fill="#502658" enable-background="new    " d="M765.114,225.475c-4.027,6.393-8.661,12.342-13.637,18.108
		l-60.384-53.11c2.382-2.64,4.475-5.641,6.515-8.571L765.114,225.475z"/>
	<path opacity="0.8333" fill="#502658" enable-background="new    " d="M748.567,240.931c-4.869,5.688-10.109,10.814-15.744,15.448
		l-49.446-58.337c2.701-2.219,5.28-4.733,7.717-7.569L748.567,240.931z"/>
	<path opacity="0.9074" fill="#502658" enable-background="new    " d="M746.066,272.229c-4.739,4.193-9.82,7.964-15.007,11.499
		l-54.146-80.716c2.2-1.555,4.425-3.188,6.464-4.97L746.066,272.229z"/>
	<path opacity="0.9074" fill="#502658" enable-background="new    " d="M731.06,283.714c-5.252,3.312-10.65,6.603-16.231,9.472
		l-44.984-86.101c2.371-1.191,4.741-2.521,7.069-4.073L731.06,283.714z"/>
	<path opacity="0.7639" fill="#502658" enable-background="new    " d="M696.385,257.939c-5.688,3.08-11.639,5.719-17.667,7.713
		l-18.759-54.256c3.368-1.203,6.687-2.546,9.885-4.33L696.385,257.939z"/>
	<path opacity="0.6944" fill="#502658" enable-background="new    " d="M672.544,247.775c-5.24,1.771-10.649,3.312-16.062,4.411
		l-7.081-38.039c3.594-0.539,7.081-1.541,10.558-2.765L672.544,247.775z"/>
	<path opacity="0.8667" fill="#502658" enable-background="new    " d="M665.211,298.491c-9.608,1.79-19.39,2.673-29.211,2.673
		v-85.635c4.476,0,9.017-0.441,13.427-1.382L665.211,298.491z"/>
	<path opacity="0.7302" fill="#502658" enable-background="new    " d="M636,263.658c-10.479,0-20.972-1.329-31.134-3.969
		l12.361-46.745c6.082,1.704,12.427,2.585,18.772,2.585V263.658z"/>
	<path opacity="0.7384" fill="#CC080E" enable-background="new    " d="M621.979,195.111c-20.865-5.462-36.742-22.958-40.217-44.218
		l54.513-10.908L621.979,195.111z"/>
	<path opacity="0.8111" fill="#CE2121" enable-background="new    " d="M604.22,262.119c-7.45-1.771-14.638-4.641-21.576-7.709
		l29.805-62.825c3.079,1.54,6.227,2.717,9.545,3.526L604.22,262.119z"/>
	<path opacity="0.7889" fill="#CE2121" enable-background="new    " d="M585.303,248.876c-6.581-3.094-12.873-6.846-18.718-11.06
		l37.135-51.247c2.767,1.862,5.688,3.673,8.729,5.047L585.303,248.876z"/>
	<path opacity="0.7222" fill="#CE2121" enable-background="new    " d="M577.128,223.252c-2.065-1.528-3.922-3.08-5.856-4.635
		l29.25-34.608c1.04,0.823,2.095,1.717,3.187,2.546L577.128,223.252z"/>
	<path opacity="0.7889" fill="#CE2121" enable-background="new    " d="M568.928,221.191c-1.476-1.344-1.396-1.02-2.884-2.548
		l32.978-35.953c0.554,0.383,1.001,0.81,1.5,1.318L568.928,221.191z"/>
	<path opacity="0.6778" fill="#CE2121" enable-background="new    " d="M576.456,207.435c-3.987-3.679-7.635-7.733-10.939-12.112
		l26.724-20.148c1.977,2.732,4.292,5.201,6.781,7.537L576.456,207.435z"/>
	<path opacity="0.6667" fill="#CE2121" enable-background="new    " d="M567.899,193.572c-1.289-1.653-2.434-3.378-3.593-5.141
		l25.618-16.554c0.658,1.144,1.541,2.211,2.315,3.296L567.899,193.572z"/>
	<path opacity="0.6667" fill="#CE2121" enable-background="new    " d="M564.294,188.432c-0.592-0.888-1.146-1.79-1.751-2.706
		l26.274-15.572c0.383,0.566,0.726,1.177,1.107,1.725L564.294,188.432z"/>
	<path opacity="0.6389" fill="#CE2121" enable-background="new    " d="M568.889,181.961c-0.989-1.586-1.817-3.37-2.766-5.062
		l20.826-10.302c0.525,1.238,1.197,2.443,1.868,3.62L568.889,181.961z"/>
	<path opacity="0.746" fill="#CE2121" enable-background="new    " d="M540.558,189.708c-4.066-8.281-7.109-17.021-8.978-26.052
		l50.723-10.446c0.934,4.653,2.475,9.122,4.646,13.362L540.558,189.708z"/>
	<path opacity="0.6111" fill="#CE2121" enable-background="new    " d="M566.794,156.428c-0.224-0.901-0.434-1.712-0.499-2.546
		l15.468-2.989c0.066,0.718,0.381,1.659,0.54,2.317L566.794,156.428z"/>
	<path opacity="0.7791" fill="#FB430F" enable-background="new    " d="M571.479,152.947c-5.738-34.227,16.234-66.96,50.119-74.614
		l14.677,61.652L571.479,152.947z"/>
	<path opacity="0.7222" fill="#FF5421" enable-background="new    " d="M526.392,160.575c-1.222-6.753-1.723-13.651-1.539-20.482
		l45.799,0.874c-0.158,3.976,0.132,8.003,0.843,11.974L526.392,160.575z"/>
	<path opacity="0.7407" fill="#FF5421" enable-background="new    " d="M519.812,139.985c0.118-4.317,0.408-8.503,0.935-12.814
		l50.393,6.569c-0.355,2.37-0.487,4.732-0.487,7.227L519.812,139.985z"/>
	<path opacity="0.8056" fill="#FF5421" enable-background="new    " d="M503.265,124.854c1.645-13.073,5.342-25.822,10.754-37.92
		l62.372,28.206c-2.645,5.91-4.408,12.204-5.252,18.608L503.265,124.854z"/>
	<path opacity="0.8611" fill="#FF5421" enable-background="new    " d="M500.117,80.623c4.528-10.098,10.15-19.589,16.771-28.371
		l66.888,50.452c-2.869,3.864-5.397,8.005-7.386,12.421L500.117,80.623z"/>
	<path opacity="0.7778" fill="#FF5421" enable-background="new    " d="M535.227,66.069c3.737-5.016,7.886-9.664,12.309-14.081
		l42.679,43.502c-2.316,2.257-4.488,4.64-6.423,7.234L535.227,66.069z"/>
	<path opacity="0.8704" fill="#FF5421" enable-background="new    " d="M529.698,33.883c8.016-7.9,16.823-14.857,26.394-20.754
		l45.484,73.41c-4.148,2.547-7.967,5.576-11.362,8.952L529.698,33.883z"/>
	<path opacity="0.6778" fill="#FF5421" enable-background="new    " d="M583.791,57.833c5.134-3.262,10.661-6.028,16.335-8.233
		l12.257,31.522c-3.804,1.481-7.451,3.258-10.821,5.405L583.791,57.833z"/>
	<path opacity="0.6944" fill="#FF5421" enable-background="new    " d="M598.521,45.46c4.7-1.805,9.677-3.292,14.691-4.457
		l8.387,37.314c-3.199,0.717-6.188,1.706-9.216,2.804L598.521,45.46z"/>
	<path opacity="0.7559" fill="#E9B104" enable-background="new    " d="M622.927,84.223c4.253-0.995,8.729-1.436,13.073-1.436
		l0.275,57.198L622.927,84.223z"/>
	<path opacity="0.7559" fill="#FFC421" enable-background="new    " d="M610.895,30.893c8.216-1.824,16.667-2.763,25.105-2.763
		v54.657c-4.345,0-8.82,0.441-13.073,1.436L610.895,30.893z"/>
</g>
<g enable-background="new    ">
	<path d="M6.265,139.308c0-5.567,0.979-11.094,2.937-16.577c1.958-5.482,4.785-10.419,8.484-14.814
		c3.698-4.393,8.266-7.962,13.705-10.703c5.438-2.741,11.637-4.111,18.6-4.111c8.266,0,15.271,1.893,21.015,5.678
		c5.743,3.785,10.005,8.637,12.791,14.554l-2.48,0.783c-1.827-3.394-3.938-6.266-6.33-8.615c-2.395-2.35-5.005-4.242-7.832-5.678
		c-2.829-1.436-5.743-2.48-8.745-3.133c-3.002-0.653-5.984-0.979-8.941-0.979c-6.441,0-12.184,1.285-17.229,3.851
		c-5.048,2.568-9.312,5.939-12.792,10.116c-3.481,4.177-6.114,8.898-7.897,14.162c-1.784,5.266-2.676,10.552-2.676,15.858
		c0,5.918,1.065,11.574,3.198,16.968c2.131,5.396,5.045,10.16,8.745,14.293c3.697,4.133,8.027,7.42,12.987,9.854
		c4.96,2.438,10.312,3.656,16.054,3.656c3.045,0,6.178-0.393,9.398-1.176c3.218-0.783,6.331-1.957,9.333-3.523
		s5.786-3.59,8.354-6.07c2.566-2.479,4.764-5.416,6.592-8.811l2.48,0.652c-1.566,3.482-3.7,6.572-6.396,9.268
		c-2.698,2.699-5.7,4.961-9.006,6.787c-3.308,1.828-6.81,3.199-10.507,4.113c-3.7,0.912-7.289,1.369-10.769,1.369
		c-6.265,0-12.053-1.391-17.36-4.176c-5.309-2.785-9.854-6.416-13.64-10.9c-3.785-4.48-6.745-9.57-8.876-15.27
		C7.33,151.035,6.265,145.227,6.265,139.308z"/>
	<path d="M122.953,187.604c-14.533,0-21.797-10.355-21.797-31.066v-37.982h2.61v37.982c0,18.971,6.396,28.455,19.187,28.455
		c3.218,0,6.396-0.588,9.528-1.762c3.133-1.176,6.004-2.785,8.615-4.83c2.61-2.043,4.895-4.502,6.853-7.375
		c1.958-2.871,3.459-6.004,4.503-9.396v-43.074h2.61v62.521c0,1.742,0.695,2.611,2.088,2.611v2.609c-0.958,0-1.566-0.086-1.828-0.26
		c-0.871-0.348-1.566-0.98-2.088-1.893c-0.522-0.914-0.783-1.936-0.783-3.068v-12.008c-2.959,5.742-7.093,10.268-12.4,13.574
		C134.743,185.951,129.043,187.604,122.953,187.604z"/>
	<path d="M177.903,91.014h2.611v85.232c0,2.525,0.783,4.527,2.349,6.006c1.566,1.48,3.655,2.219,6.266,2.219
		c0.956,0,2.108-0.109,3.458-0.326c1.348-0.217,2.588-0.5,3.72-0.85l0.914,2.088c-1.22,0.438-2.721,0.807-4.503,1.109
		c-1.785,0.305-3.286,0.457-4.503,0.457c-3.047,0-5.527-0.979-7.44-2.936c-1.915-1.959-2.872-4.547-2.872-7.768V91.014z"/>
	<path d="M234.55,183.164c-1.305,0.871-2.502,1.523-3.589,1.959c-1.089,0.436-2.372,0.848-3.851,1.24
		c-1.48,0.391-3.132,0.586-4.96,0.586c-3.132,0-5.874-0.955-8.223-2.871c-2.349-1.912-3.524-4.438-3.524-7.57v-55.342h-9.79v-2.611
		h9.79V94.93h2.61v23.625h16.316v2.611h-16.316v55.342c0.173,2.525,1.175,4.461,3.002,5.809c1.828,1.35,3.871,2.023,6.135,2.023
		c1.479,0,2.872-0.15,4.177-0.457c1.305-0.305,2.458-0.652,3.459-1.045c1-0.391,1.783-0.76,2.35-1.109
		c0.565-0.346,0.891-0.564,0.979-0.652L234.55,183.164z"/>
	<path d="M246.688,101.064v-10.05h2.611v10.05H246.688z M246.688,186.297v-67.742h2.611v67.742H246.688z"/>
	<path d="M293.023,186.297l-29.499-67.742h2.872l27.802,63.957L322,118.555h2.872l-29.499,67.742H293.023z"/>
	<path d="M353.457,187.604c-3.047,0-5.918-0.545-8.615-1.633c-2.698-1.086-5.025-2.564-6.983-4.438
		c-1.958-1.871-3.504-4.066-4.634-6.592c-1.132-2.523-1.697-5.221-1.697-8.092s0.673-5.482,2.023-7.832
		c1.348-2.35,3.263-4.373,5.743-6.069c2.48-1.697,5.437-3.022,8.875-3.981c3.437-0.957,7.199-1.436,11.291-1.436
		c3.916,0,7.874,0.327,11.877,0.979c4.001,0.653,7.613,1.589,10.834,2.806v-7.701c0-3.479-0.522-6.677-1.566-9.594
		c-1.044-2.914-2.545-5.394-4.503-7.44c-1.958-2.043-4.308-3.632-7.049-4.764c-2.741-1.13-5.765-1.697-9.071-1.697
		c-3.308,0-6.832,0.718-10.572,2.154c-3.743,1.436-7.528,3.504-11.356,6.2l-1.566-2.088c8.701-5.917,16.532-8.875,23.495-8.875
		c3.74,0,7.156,0.61,10.246,1.827c3.088,1.22,5.698,2.959,7.832,5.221c2.131,2.264,3.785,5.005,4.96,8.223
		c1.175,3.22,1.762,6.832,1.762,10.833v37.46c0,1.742,0.695,2.611,2.088,2.611v2.609c-0.958,0-1.566-0.086-1.827-0.26
		c-0.871-0.348-1.566-0.98-2.088-1.893c-0.522-0.914-0.783-1.936-0.783-3.068v-6.266c-3.133,4.092-7.224,7.244-12.27,9.463
		C364.855,186.492,359.373,187.604,353.457,187.604z M353.457,184.992c5.829,0,11.16-1.088,15.989-3.264
		c4.83-2.174,8.419-5.09,10.769-8.744c1.305-1.828,1.958-3.611,1.958-5.352v-13.445c-6.963-2.695-14.533-4.045-22.711-4.045
		c-3.83,0-7.289,0.392-10.377,1.174c-3.09,0.783-5.743,1.916-7.962,3.395c-2.219,1.48-3.938,3.242-5.156,5.285
		c-1.22,2.047-1.827,4.33-1.827,6.854s0.5,4.895,1.501,7.113c0.999,2.219,2.37,4.156,4.111,5.809c1.74,1.654,3.785,2.936,6.135,3.85
		S350.758,184.992,353.457,184.992z"/>
	<path d="M431.64,183.164c-1.305,0.871-2.502,1.523-3.589,1.959c-1.09,0.436-2.372,0.848-3.851,1.24
		c-1.481,0.391-3.133,0.586-4.96,0.586c-3.133,0-5.874-0.955-8.224-2.871c-2.35-1.912-3.524-4.438-3.524-7.57v-55.342h-9.789v-2.611
		h9.789V94.93h2.611v23.625h16.315v2.611h-16.315v55.342c0.173,2.525,1.174,4.461,3.002,5.809c1.827,1.35,3.87,2.023,6.135,2.023
		c1.479,0,2.871-0.15,4.177-0.457c1.305-0.305,2.457-0.652,3.459-1.045c0.999-0.391,1.782-0.76,2.349-1.109
		c0.565-0.346,0.892-0.564,0.979-0.652L431.64,183.164z"/>
	<path d="M469.755,187.604c-4.438,0-8.638-0.938-12.596-2.807c-3.961-1.871-7.42-4.438-10.377-7.701
		c-2.959-3.264-5.309-7.049-7.049-11.355c-1.741-4.309-2.61-8.896-2.61-13.771c0-4.785,0.826-9.267,2.48-13.444
		c1.651-4.177,3.936-7.832,6.853-10.964c2.914-3.132,6.308-5.59,10.181-7.375c3.871-1.783,8.027-2.676,12.465-2.676
		c4.523,0,8.766,0.914,12.727,2.741c3.959,1.828,7.396,4.308,10.312,7.44c2.914,3.133,5.241,6.833,6.983,11.095
		c1.739,4.265,2.61,8.833,2.61,13.705v1.436h-62c0.347,4.352,1.371,8.418,3.067,12.204c1.697,3.785,3.894,7.07,6.592,9.855
		c2.696,2.785,5.809,4.982,9.333,6.592c3.523,1.611,7.244,2.414,11.159,2.414c2.61,0,5.156-0.348,7.636-1.045
		c2.48-0.695,4.808-1.674,6.983-2.936c2.174-1.262,4.089-2.762,5.743-4.504c1.652-1.74,2.957-3.654,3.916-5.742l2.479,0.652
		c-0.958,2.35-2.329,4.502-4.111,6.461c-1.784,1.957-3.873,3.654-6.266,5.09c-2.394,1.436-5.005,2.568-7.831,3.395
		C475.605,187.189,472.712,187.604,469.755,187.604z M498.992,151.316c-0.261-4.523-1.22-8.7-2.871-12.53
		c-1.654-3.828-3.809-7.113-6.462-9.854c-2.655-2.741-5.723-4.895-9.201-6.461c-3.481-1.566-7.225-2.35-11.226-2.35
		c-4.003,0-7.746,0.783-11.226,2.35c-3.48,1.566-6.548,3.742-9.201,6.526c-2.655,2.786-4.765,6.092-6.331,9.92
		c-1.566,3.83-2.479,7.962-2.741,12.399H498.992z"/>
	<path fill="#FFFFFF" d="M631.342,186.297v-66.698l-27.541,50.512h-8.092l-27.672-50.512v66.698h-14.618V93.625h15.663
		l30.673,56.648l30.674-56.648h15.663v92.672H631.342z"/>
	<path fill="#FFFFFF" d="M695.169,187.604c-5.309,0-10.138-0.938-14.488-2.807c-4.352-1.871-8.072-4.416-11.159-7.637
		c-3.09-3.219-5.482-6.961-7.18-11.225c-1.696-4.262-2.545-8.789-2.545-13.575c0-4.785,0.849-9.333,2.545-13.64
		c1.697-4.308,4.09-8.093,7.18-11.356c3.087-3.263,6.808-5.829,11.159-7.701c4.351-1.871,9.223-2.807,14.619-2.807
		c5.307,0,10.115,0.958,14.423,2.872c4.308,1.915,7.982,4.46,11.029,7.636c3.045,3.178,5.372,6.875,6.983,11.095
		c1.609,4.222,2.415,8.637,2.415,13.248c0,1.044-0.045,2.023-0.131,2.937c-0.088,0.914-0.176,1.678-0.261,2.285h-54.69
		c0.261,3.047,0.979,5.787,2.153,8.223c1.175,2.438,2.696,4.549,4.568,6.33c1.87,1.785,4.002,3.156,6.396,4.111
		c2.392,0.959,4.895,1.436,7.505,1.436c1.913,0,3.806-0.238,5.678-0.717c1.87-0.477,3.59-1.176,5.155-2.088
		c1.566-0.914,2.958-2.023,4.178-3.33c1.217-1.305,2.174-2.74,2.871-4.307l12.27,3.523c-2.35,5.137-6.245,9.334-11.683,12.596
		C708.722,185.971,702.391,187.604,695.169,187.604z M715.923,147.009c-0.261-2.872-0.979-5.525-2.154-7.962
		c-1.174-2.435-2.675-4.503-4.503-6.2c-1.827-1.697-3.96-3.022-6.396-3.981c-2.438-0.957-5.005-1.436-7.701-1.436
		c-2.698,0-5.243,0.479-7.636,1.436c-2.394,0.958-4.503,2.284-6.33,3.981s-3.308,3.765-4.438,6.2
		c-1.133,2.437-1.828,5.09-2.089,7.962H715.923z"/>
</g>
<g>
</g>
<g>
</g>
<g>
</g>
<g>
</g>
<g>
</g>
<g>
</g>
<g>
</g>
<g>
</g>
<g>
</g>
<g>
</g>
<g>
</g>
<g>
</g>
<g>
</g>
<g>
</g>
<g>
</g>
</svg>
