<?xml version="1.0" encoding="utf-8"?>
<!-- Generator: Adobe Illustrator 16.0.0, SVG Export Plug-In . SVG Version: 6.00 Build 0)  -->
<!DOCTYPE svg PUBLIC "-//W3C//DTD SVG 1.1//EN" "http://www.w3.org/Graphics/SVG/1.1/DTD/svg11.dtd">
<svg version="1.1" id="Layer_1" xmlns="http://www.w3.org/2000/svg" xmlns:xlink="http://www.w3.org/1999/xlink" x="0px" y="0px"
	 width="40px" height="40px" viewBox="0 1 40 40" enable-background="new 0 1 40 40" xml:space="preserve">
<path opacity="0.7775" fill="#FFFFFF" enable-background="new    " d="M18.432,20.021c-0.573,0-1.019-0.453-1.019-1.019
	s0.446-1.024,1.019-1.024l0,0c0.565,0,1.011,0.458,1.011,1.024S18.998,20.021,18.432,20.021L18.432,20.021z"/>
<path opacity="0.7559" fill="#488C13" enable-background="new    " d="M18.432,11.404c0.565,0,1.125,0.056,1.668,0.184l-1.449,6.417
	c-0.071-0.021-0.148-0.028-0.22-0.028L18.432,11.404L18.432,11.404z"/>
<path opacity="0.7559" fill="#509B21" enable-background="new    " d="M18.432,4.407c1.074,0,2.156,0.12,3.208,0.354L20.1,11.59
	c-0.544-0.127-1.103-0.184-1.668-0.184V4.407z"/>
<path opacity="0.7714" fill="#1B55C0" enable-background="new    " d="M20.214,11.085c3.541,0.799,6.114,3.846,6.326,7.471
	l-7.097,0.396c-0.021-0.459-0.339-0.841-0.791-0.947L20.214,11.085z"/>
<path opacity="0.8333" fill="#215ED5" enable-background="new    " d="M22.355,1.595c1.287,0.289,2.543,0.721,3.731,1.286
	l-4.178,8.794c-0.537-0.255-1.103-0.461-1.696-0.588L22.355,1.595z"/>
<path opacity="0.875" fill="#215ED5" enable-background="new    " d="M26.717,1.551c0.861,0.41,1.688,0.876,2.48,1.407l-6.241,9.308
	c-0.332-0.225-0.679-0.424-1.046-0.592L26.717,1.551z"/>
<path opacity="0.8889" fill="#215ED5" enable-background="new    " d="M29.48,2.556c0.205,0.134,0.396,0.282,0.594,0.417
	l-6.864,9.464c-0.092-0.057-0.176-0.12-0.255-0.17L29.48,2.556z"/>
<path opacity="0.7083" fill="#215ED5" enable-background="new    " d="M26.355,8.088c0.545,0.395,1.054,0.82,1.52,1.286l-3.76,3.832
	c-0.275-0.276-0.586-0.538-0.904-0.771L26.355,8.088z"/>
<path opacity="0.8796" fill="#215ED5" enable-background="new    " d="M32.08,5.099c1.025,1.012,1.943,2.128,2.722,3.344
	l-9.549,6.163c-0.325-0.509-0.707-0.975-1.138-1.398L32.08,5.099z"/>
<path opacity="0.7963" fill="#215ED5" enable-background="new    " d="M32.342,10.033c0.325,0.516,0.629,1.046,0.898,1.59
	l-7.549,3.769c-0.135-0.276-0.283-0.538-0.438-0.786L32.342,10.033z"/>
<path opacity="0.6465" fill="#215ED5" enable-background="new    " d="M28.604,13.941c0.692,1.385,1.088,2.884,1.181,4.432
	l-3.244,0.183c-0.063-1.102-0.354-2.176-0.849-3.166L28.604,13.941z"/>
<path opacity="0.8094" fill="#482355" enable-background="new    " d="M27.805,18.479c0.283,5.188-3.683,9.606-8.864,9.894
	c-0.968,0.059-1.957-0.027-2.913-0.303l2.143-8.079c0.544,0.148,1.102-0.177,1.251-0.728c0.014-0.1,0.021-0.205,0.021-0.312
	L27.805,18.479z"/>
<path opacity="0.6944" fill="#502658" enable-background="new    " d="M32.725,18.211c0.021,0.352,0.028,0.706,0.021,1.06
	l-4.936-0.099c0-0.22,0-0.452-0.006-0.693L32.725,18.211z"/>
<path opacity="0.6667" fill="#592A6C" enable-background="new    " d="M36.803,17.984c0.021,0.227,0.028,0.452,0.028,0.679
	l-4.084,0.078c0-0.177-0.009-0.361-0.022-0.529L36.803,17.984z"/>
<path opacity="0.7222" fill="#592A6C" enable-background="new    " d="M38.811,18.626c0,0.248,0,0.502,0,0.757l-6.063-0.113
	c0-0.177,0-0.354,0-0.53L38.811,18.626z"/>
<path opacity="0.8651" fill="#502658" enable-background="new    " d="M38.746,19.384c-0.035,1.753-0.297,3.499-0.77,5.181
	l-10.525-2.986c0.227-0.777,0.348-1.59,0.361-2.402L38.746,19.384z"/>
<path opacity="0.7222" fill="#502658" enable-background="new    " d="M33.134,23.188c-0.057,0.188-0.112,0.358-0.163,0.541
	L27.352,21.9c0.043-0.106,0.078-0.213,0.099-0.325L33.134,23.188z"/>
<path opacity="0.8148" fill="#502658" enable-background="new    " d="M36.053,24.732c-0.205,0.646-0.453,1.287-0.734,1.926
	l-8.342-3.782c0.143-0.317,0.27-0.644,0.375-0.976L36.053,24.732z"/>
<path opacity="0.75" fill="#502658" enable-background="new    " d="M33.232,25.71c-0.155,0.366-0.332,0.722-0.529,1.074
	l-6.029-3.295c0.105-0.198,0.211-0.401,0.303-0.614L33.232,25.71z"/>
<path opacity="0.8611" fill="#502658" enable-background="new    " d="M36.145,28.657c-0.232,0.424-0.486,0.878-0.756,1.271
	l-9.068-5.832c0.119-0.195,0.232-0.395,0.354-0.604L36.145,28.657z"/>
<path opacity="0.8472" fill="#502658" enable-background="new    " d="M34.965,29.676c-0.517,0.818-1.109,1.58-1.747,2.318
	l-7.731-6.801c0.304-0.338,0.572-0.723,0.834-1.098L34.965,29.676z"/>
<path opacity="0.8333" fill="#502658" enable-background="new    " d="M32.846,31.654c-0.623,0.729-1.295,1.385-2.016,1.979
	l-6.333-7.471c0.346-0.283,0.677-0.605,0.989-0.969L32.846,31.654z"/>
<path opacity="0.9074" fill="#502658" enable-background="new    " d="M32.525,35.662c-0.607,0.536-1.258,1.02-1.922,1.472
	L23.67,26.798c0.282-0.198,0.566-0.407,0.827-0.637L32.525,35.662z"/>
<path opacity="0.9074" fill="#502658" enable-background="new    " d="M30.604,37.133c-0.672,0.424-1.363,0.846-2.078,1.213
	l-5.76-11.025c0.303-0.153,0.607-0.322,0.904-0.521L30.604,37.133z"/>
<path opacity="0.7639" fill="#502658" enable-background="new    " d="M26.164,33.831c-0.729,0.396-1.49,0.733-2.262,0.989
	L21.5,27.873c0.432-0.154,0.855-0.326,1.266-0.555L26.164,33.831z"/>
<path opacity="0.6944" fill="#502658" enable-background="new    " d="M23.111,32.531c-0.672,0.226-1.363,0.424-2.057,0.564
	l-0.906-4.871c0.458-0.068,0.906-0.197,1.35-0.354L23.111,32.531z"/>
<path opacity="0.8667" fill="#502658" enable-background="new    " d="M22.171,39.025c-1.229,0.228-2.481,0.342-3.739,0.342V28.402
	c0.572,0,1.153-0.057,1.718-0.178L22.171,39.025z"/>
<path opacity="0.7302" fill="#502658" enable-background="new    " d="M18.432,34.564c-1.342,0-2.686-0.17-3.987-0.508l1.583-5.986
	c0.778,0.219,1.591,0.332,2.404,0.332V34.564z"/>
<path opacity="0.7384" fill="#CC080E" enable-background="new    " d="M16.637,25.787c-2.672-0.699-4.679-2.903-5.125-5.625
	l5.91-0.99c0.07,0.396,0.36,0.713,0.749,0.819L16.637,25.787z"/>
<path opacity="0.8111" fill="#CE2121" enable-background="new    " d="M14.362,34.367c-0.955-0.227-1.874-0.594-2.764-0.987
	l3.817-8.045c0.396,0.198,0.797,0.349,1.223,0.452L14.362,34.367z"/>
<path opacity="0.7889" fill="#CE2121" enable-background="new    " d="M11.938,32.671c-0.842-0.396-1.647-0.876-2.396-1.415
	l4.757-6.562c0.353,0.238,0.728,0.469,1.117,0.646L11.938,32.671z"/>
<path opacity="0.7222" fill="#CE2121" enable-background="new    " d="M10.891,29.391c-0.262-0.195-0.502-0.395-0.75-0.594
	l3.746-4.432c0.134,0.105,0.269,0.221,0.41,0.326L10.891,29.391z"/>
<path opacity="0.7889" fill="#CE2121" enable-background="new    " d="M9.843,29.126c-0.19-0.171-0.179-0.13-0.37-0.325l4.224-4.604
	c0.07,0.049,0.127,0.104,0.19,0.168L9.843,29.126z"/>
<path opacity="0.6778" fill="#CE2121" enable-background="new    " d="M10.806,27.364c-0.51-0.47-0.976-0.989-1.401-1.55l3.422-2.58
	c0.254,0.35,0.551,0.666,0.87,0.964L10.806,27.364z"/>
<path opacity="0.6667" fill="#CE2121" enable-background="new    " d="M9.711,25.59c-0.164-0.212-0.312-0.433-0.46-0.658l3.28-2.119
	c0.084,0.145,0.197,0.283,0.297,0.422L9.711,25.59z"/>
<path opacity="0.6667" fill="#CE2121" enable-background="new    " d="M9.25,24.932c-0.077-0.113-0.148-0.229-0.226-0.346
	l3.365-1.994c0.05,0.071,0.092,0.15,0.142,0.221L9.25,24.932z"/>
<path opacity="0.6389" fill="#CE2121" enable-background="new    " d="M9.837,24.104c-0.126-0.203-0.233-0.433-0.354-0.65
	l2.666-1.317c0.07,0.158,0.155,0.312,0.24,0.462L9.837,24.104z"/>
<path opacity="0.746" fill="#CE2121" enable-background="new    " d="M6.211,25.096c-0.523-1.062-0.911-2.18-1.151-3.337
	l6.495-1.337c0.121,0.596,0.318,1.167,0.595,1.71L6.211,25.096z"/>
<path opacity="0.6111" fill="#CE2121" enable-background="new    " d="M9.569,20.833c-0.028-0.114-0.056-0.219-0.063-0.326
	l2.007-0.345c0.007,0.092,0.021,0.176,0.042,0.26L9.569,20.833z"/>
<path opacity="0.7791" fill="#FB430F" enable-background="new    " d="M10.17,20.388c-0.736-4.382,2.078-8.574,6.417-9.555
	l1.619,7.173c-0.523,0.121-0.875,0.63-0.784,1.167L10.17,20.388z"/>
<path opacity="0.7222" fill="#FF5421" enable-background="new    " d="M4.395,21.364C4.24,20.5,4.176,19.616,4.198,18.741
	l5.866,0.113c-0.021,0.509,0.015,1.024,0.107,1.533L4.395,21.364z"/>
<path opacity="0.7407" fill="#FF5421" enable-background="new    " d="M3.554,18.728c0.014-0.552,0.05-1.089,0.12-1.641l6.453,0.841
	c-0.048,0.304-0.063,0.607-0.063,0.926L3.554,18.728z"/>
<path opacity="0.8056" fill="#FF5421" enable-background="new    " d="M1.434,16.791c0.211-1.675,0.685-3.307,1.378-4.856
	l7.987,3.612c-0.339,0.756-0.566,1.562-0.673,2.382L1.434,16.791z"/>
<path opacity="0.8611" fill="#FF5421" enable-background="new    " d="M1.031,11.127c0.58-1.293,1.301-2.508,2.148-3.633l8.565,6.46
	c-0.367,0.495-0.692,1.025-0.946,1.59L1.031,11.127z"/>
<path opacity="0.7778" fill="#FF5421" enable-background="new    " d="M5.526,9.263c0.48-0.643,1.011-1.237,1.577-1.802l5.464,5.57
	c-0.297,0.289-0.573,0.594-0.821,0.925L5.526,9.263z"/>
<path opacity="0.8704" fill="#FF5421" enable-background="new    " d="M4.82,5.142C5.845,4.131,6.974,3.24,8.198,2.484l5.824,9.401
	c-0.53,0.325-1.018,0.713-1.455,1.146L4.82,5.142z"/>
<path opacity="0.6778" fill="#FF5421" enable-background="new    " d="M11.745,8.208c0.658-0.417,1.365-0.771,2.093-1.053
	l1.569,4.036c-0.488,0.19-0.954,0.417-1.386,0.692L11.745,8.208z"/>
<path opacity="0.6944" fill="#FF5421" enable-background="new    " d="M13.632,6.625c0.602-0.232,1.238-0.423,1.881-0.572
	l1.074,4.778c-0.41,0.092-0.792,0.219-1.18,0.36L13.632,6.625z"/>
<path opacity="0.7559" fill="#E9B104" enable-background="new    " d="M16.758,11.588c0.544-0.127,1.116-0.184,1.674-0.184v6.573
	c-0.078,0-0.155,0.007-0.226,0.028L16.758,11.588z"/>
<path opacity="0.7559" fill="#FFC421" enable-background="new    " d="M15.216,4.759c1.053-0.233,2.135-0.354,3.216-0.354v6.999
	c-0.558,0-1.13,0.056-1.674,0.184L15.216,4.759z"/>
</svg>
