<svg version="1.1" id="Layer_1" xmlns="http://www.w3.org/2000/svg" xmlns:xlink="http://www.w3.org/1999/xlink" style="pointer-events: none; position: absolute; left: 0px; top: 0px;" width="318" height="700"><g class="mainGroup" style="pointer-events: fill;" transform="translate(0,0)" opacity="1"><text dy="1em" x="159" style="font-family: 'Source Sans Pro'; font-size: 2.5em; font-weight: 300; text-anchor: middle; fill: rgb(0, 0, 0); cursor: default; -webkit-user-select: none;"></text><g class="arcsGroup" transform="translate(159,350) rotate(0)"><circle cx="0" cy="0" r="55.964285714285715" style="stroke: rgb(102, 102, 102); fill: rgb(204, 204, 204); opacity: 0.2;"></circle><circle cx="0" cy="0" r="77.17857142857142" style="stroke: rgb(102, 102, 102); fill: rgb(204, 204, 204); opacity: 0.2;"></circle><circle cx="0" cy="0" r="98.39285714285714" style="stroke: rgb(102, 102, 102); fill: rgb(204, 204, 204); opacity: 0.2;"></circle><path class="dataArc" style="fill: rgb(255, 255, 255); fill-opacity: 0.8898989898989899;" d="M0,24.142857142857142A24.142857142857142,24.142857142857142 0 1,1 0,-24.142857142857142A24.142857142857142,24.142857142857142 0 1,1 0,24.142857142857142Z"></path><path class="dataArc" id="Awarenessanddecisionmaking" style="fill: rgb(219, 51, 64); fill-opacity: 0.8916666666666666;" d="M3.138157422815092e-15,-51.24999999999999A51.24999999999999,51.24999999999999 0 0,1 35.366549338458235,-37.091369452884834L16.660478991496703,-17.473007491393833A24.142857142857142,24.142857142857142 0 0,0 1.4783236361135906e-15,-24.142857142857142Z"></path><path class="dataArc" id="Awarenessanddecisionmaking" style="fill: rgb(243, 56, 71); fill-opacity: 0.8916666666666666;" d="M4.797991209516594e-15,-78.35714285714285A78.35714285714285,78.35714285714285 0 0,1 54.072619685419774,-56.70973141437584L35.366549338458235,-37.091369452884834A51.24999999999999,51.24999999999999 0 0,0 3.138157422815092e-15,-51.24999999999999Z"></path><path class="dataArc" id="Convenenationalsecuritycouncil" style="fill: rgb(255, 62, 79); fill-opacity: 0.9333333333333333;" d="M6.818658428109726e-15,-111.35714285714283A111.35714285714283,111.35714285714283 0 0,1 21.074477854134248,-109.34477421661138L14.829186790240712,-76.94112720694208A78.35714285714285,78.35714285714285 0 0,0 4.797991209516594e-15,-78.35714285714285Z"></path><path class="dataArc" id="Meetwithkeystaffmembersonkeyissuesanddecisions" style="fill: rgb(255, 62, 79); fill-opacity: 0.9666666666666666;" d="M21.966662291833327,-113.97386664656416A116.07142857142856,116.07142857142856 0 0,1 43.13939217485944,-107.75699222507984L29.1224081328128,-72.74425875133082A78.35714285714285,78.35714285714285 0 0,0 14.829186790240712,-76.94112720694208Z"></path><path class="dataArc" id="ReceivethePresidentialdailybriefing" style="fill: rgb(255, 62, 79); fill-opacity: 0.8333333333333333;" d="M36.130900153836116,-90.25062548820532A97.2142857142857,97.2142857142857 0 0,1 52.558010896933446,-81.78186129880265L42.36306976777075,-65.91822325112896A78.35714285714285,78.35714285714285 0 0,0 29.1224081328128,-72.74425875133082Z"></path><path class="dataArc" id="Reviewdailyschedule" style="fill: rgb(255, 62, 79); fill-opacity: 0.8333333333333333;" d="M52.558010896933446,-81.78186129880265A97.2142857142857,97.2142857142857 0 0,1 67.08553818765388,-70.35728756150002L54.072619685419774,-56.70973141437584A78.35714285714285,78.35714285714285 0 0,0 42.36306976777075,-65.91822325112896Z"></path><path class="dataArc" id="Campaigning" style="fill: rgb(113, 211, 98); fill-opacity: 0.9083333333333333;" d="M36.9931641512375,-38.797313971275365A53.607142857142854,53.607142857142854 0 0,1 53.54642414691767,-2.5507305589799016L24.115511474561192,-1.148763396316065A24.142857142857142,24.142857142857142 0 0,0 16.660478991496703,-17.473007491393833Z"></path><path class="dataArc" id="Campaigning" style="fill: rgb(125, 234, 109); fill-opacity: 0.9083333333333333;" d="M57.325849310978306,-60.12162045115689A83.07142857142857,83.07142857142857 0 0,1 82.97733681927416,-3.9526977216437387L53.54642414691767,-2.5507305589799016A53.607142857142854,53.607142857142854 0 0,0 36.9931641512375,-38.797313971275365Z"></path><path class="dataArc" id="Deliverremarksatcampaignevent" style="fill: rgb(139, 255, 121); fill-opacity: 0.8999999999999999;" d="M76.84522706432948,-80.59295467184316A111.35714285714286,111.35714285714286 0 0,1 90.70885066046239,-64.59348014439271L67.66798801675289,-48.18615613080739A83.07142857142857,83.07142857142857 0 0,0 57.325849310978306,-60.12162045115689Z"></path><path class="dataArc" id="Deliverremarksatconvention" style="fill: rgb(139, 255, 121); fill-opacity: 0.8999999999999999;" d="M90.70885066046239,-64.59348014439271A111.35714285714286,111.35714285714286 0 0,1 101.29402005412102,-46.25942894785292L75.56442932837892,-34.50911858008527A83.07142857142857,83.07142857142857 0 0,0 67.66798801675289,-48.18615613080739Z"></path><path class="dataArc" id="Deliverremarksatreception" style="fill: rgb(139, 255, 121); fill-opacity: 0.8999999999999999;" d="M101.29402005412102,-46.25942894785292A111.35714285714286,111.35714285714286 0 0,1 108.21815964402867,-26.253441461371217L80.72977528287707,-19.584831571247417A83.07142857142857,83.07142857142857 0 0,0 75.56442932837892,-34.50911858008527Z"></path><path class="dataArc" id="Participateinpartyroundtable" style="fill: rgb(139, 255, 121); fill-opacity: 0.9333333333333333;" d="M112.79955703755392,-27.364876443058513A116.07142857142856,116.07142857142856 0 0,1 115.93995901231341,-5.522900943827235L82.97733681927416,-3.9526977216437387A83.07142857142857,83.07142857142857 0 0,0 80.72977528287707,-19.584831571247417Z"></path><path class="dataArc" id="Commanderinchief" style="fill: rgb(255, 209, 111); fill-opacity: 0.8666666666666666;" d="M47.660241612446384,-2.2703371264471346A47.714285714285715,47.714285714285715 0 0,1 47.22862308403308,6.790450854753887L23.897117668268233,3.4358868097407393A24.142857142857142,24.142857142857142 0 0,0 24.115511474561192,-1.148763396316065Z"></path><path class="dataArc" id="Commanderinchief" style="fill: rgb(255, 232, 123); fill-opacity: 0.8666666666666666;" d="M71.20497175033158,-3.391910856578204A71.28571428571429,71.28571428571429 0 0,1 70.56012849979793,10.145014899767036L47.22862308403308,6.790450854753887A47.714285714285715,47.714285714285715 0 0,0 47.660241612446384,-2.2703371264471346Z"></path><path class="dataArc" id="Deliverremarkstomilitary" style="fill: rgb(255, 255, 136); fill-opacity: 0.8666666666666666;" d="M94.74970188821675,-4.513484586709273A94.85714285714285,94.85714285714285 0 0,1 93.89163391556276,13.49957894478018L70.56012849979793,10.145014899767036A71.28571428571429,71.28571428571429 0 0,0 71.20497175033158,-3.391910856578204Z"></path><path class="dataArc" id="Internationalrelations" style="fill: rgb(255, 61, 93); fill-opacity: 0.8916666666666666;" d="M50.7283488963978,7.2936354615058585A51.24999999999999,51.24999999999999 0 0,1 -4.871622219339363,51.017936031870576L-2.294924474058125,24.033536416407326A24.142857142857142,24.142857142857142 0 0,0 23.897117668268233,3.4358868097407393Z"></path><path class="dataArc" id="Internationalrelations" style="fill: rgb(255, 67, 103); fill-opacity: 0.8916666666666666;" d="M77.55958012452737,11.151384113270979A78.35714285714285,78.35714285714285 0 0,1 -7.448319964620601,78.00233564733384L-4.871622219339363,51.017936031870576A51.24999999999999,51.24999999999999 0 0,0 50.7283488963978,7.2936354615058585Z"></path><path class="dataArc" id="Attendstatedinner" style="fill: rgb(255, 74, 114); fill-opacity: 0.8999999999999999;" d="M105.55738662344518,15.176860967286757A106.64285714285714,106.64285714285714 0 0,1 100.77758731007144,34.879462088065004L74.04756415214223,25.628111125657938A78.35714285714285,78.35714285714285 0 0,0 77.55958012452737,11.151384113270979Z"></path><path class="dataArc" id="Deliverremarksatinternationalrelationsevent" style="fill: rgb(255, 74, 114); fill-opacity: 0.8666666666666666;" d="M96.32258345041654,33.337570260997154A101.9285714285714,101.9285714285714 0 0,1 88.27273222859958,50.964285714285644L67.8592762822521,39.17857142857138A78.35714285714285,78.35714285714285 0 0,0 74.04756415214223,25.628111125657938Z"></path><path class="dataArc" id="DeliverremarkstoUnitedNations" style="fill: rgb(255, 74, 114); fill-opacity: 0.8666666666666666;" d="M88.27273222859958,50.964285714285644A101.9285714285714,101.9285714285714 0 0,1 77.0324744716805,66.74901909570862L59.21837736190156,51.31301608128407A78.35714285714285,78.35714285714285 0 0,0 67.8592762822521,39.17857142857138Z"></path><path class="dataArc" id="Discussurgentissuesoverthephonewithheadsofstate" style="fill: rgb(255, 74, 114); fill-opacity: 0.9666666666666666;" d="M87.72093273754788,76.01062090436336A116.07142857142856,116.07142857142856 0 0,1 71.75059661489173,91.23830563978777L48.43717199171461,61.592874638059804A78.35714285714285,78.35714285714285 0 0,0 59.21837736190156,51.31301608128407Z"></path><path class="dataArc" id="Holdbi-lateralmeetingwithstatedignitaries" style="fill: rgb(255, 74, 114); fill-opacity: 0.9666666666666666;" d="M71.75059661489173,91.23830563978777A116.07142857142856,116.07142857142856 0 0,1 53.18700698621737,103.16840029030355L35.90532102392643,69.64660622674646A78.35714285714285,78.35714285714285 0 0,0 48.43717199171461,61.592874638059804Z"></path><path class="dataArc" id="Holdjointpressconferencewithdignitaries" style="fill: rgb(255, 74, 114); fill-opacity: 0.8666666666666666;" d="M46.706374750358265,90.59772751646963A101.9285714285714,101.9285714285714 0 0,1 28.716597043765837,97.79974809627764L22.075758203932114,75.18312800393593A78.35714285714285,78.35714285714285 0 0,0 35.90532102392643,69.64660622674646Z"></path><path class="dataArc" id="Takeofficialphotoswithstatedignitaries" style="fill: rgb(255, 74, 114); fill-opacity: 0.8333333333333333;" d="M27.38842927579909,93.2764240778093A97.2142857142857,97.2142857142857 0 0,1 9.24080535264247,96.77409190156912L7.448319964620713,78.00233564733382A78.35714285714285,78.35714285714285 0 0,0 22.075758203932114,75.18312800393593Z"></path><path class="dataArc" id="Welcomestatedignitaries" style="fill: rgb(255, 74, 114); fill-opacity: 0.8666666666666666;" d="M9.688926699647908,101.46703096512795A101.9285714285714,101.9285714285714 0 0,1 -9.688926699647583,101.46703096512798L-7.448319964620462,78.00233564733385A78.35714285714285,78.35714285714285 0 0,0 7.448319964620713,78.00233564733382Z"></path><path class="dataArc" id="Politicaldiscourse" style="fill: rgb(255, 114, 24); fill-opacity: 0.8999999999999999;" d="M-4.983652556090722,52.19117079776029A52.42857142857143,52.42857142857143 0 0,1 -14.770835480114947,50.304845902360086L-6.801828872314513,23.16490179155001A24.142857142857142,24.142857142857142 0 0,0 -2.294924474058125,24.033536416407326Z"></path><path class="dataArc" id="Politicaldiscourse" style="fill: rgb(255, 126, 33); fill-opacity: 0.8999999999999999;" d="M-7.672380638123319,80.34880517911327A80.71428571428572,80.71428571428572 0 0,1 -22.739842087915385,77.44479001317016L-14.770835480114947,50.304845902360086A52.42857142857143,52.42857142857143 0 0,0 -4.983652556090722,52.19117079776029Z"></path><path class="dataArc" id="Meetwithcongressionalleaders" style="fill: rgb(255, 140, 36); fill-opacity: 0.8999999999999999;" d="M-10.361108720155915,108.50643956046623A109.00000000000001,109.00000000000001 0 0,1 -30.70884869571582,104.58473412398024L-22.739842087915385,77.44479001317016A80.71428571428572,80.71428571428572 0 0,0 -7.672380638123319,80.34880517911327Z"></path><path class="dataArc" id="Publicityandcommunications" style="fill: rgb(4, 179, 243); fill-opacity: 0.8844444444444444;" d="M-14.151023855063801,48.19396136040819A50.22857142857143,50.22857142857143 0 0,1 -9.226838883861629e-15,-50.22857142857143L-4.434970908340772e-15,-24.142857142857142A24.142857142857142,24.142857142857142 0 0,0 -6.801828872314513,23.16490179155001Z"></path><path class="dataArc" id="Publicityandcommunications" style="fill: rgb(33, 199, 255); fill-opacity: 0.8844444444444444;" d="M-21.500218837813094,73.22302092926637A76.31428571428572,76.31428571428572 0 0,1 -1.4018706859382487e-14,-76.31428571428572L-9.226838883861629e-15,-50.22857142857143A50.22857142857143,50.22857142857143 0 0,0 -14.151023855063801,48.19396136040819Z"></path><path class="dataArc" id="Attendpublicstateevent" style="fill: rgb(36, 221, 255); fill-opacity: 0.8333333333333333;" d="M-26.812889909680045,91.31631700313974A95.17142857142856,95.17142857142856 0 0,1 -43.61007268211436,84.59173941341574L-34.96922970096892,67.83084238163718A76.31428571428572,76.31428571428572 0 0,0 -21.500218837813094,73.22302092926637Z"></path><path class="dataArc" id="Beinterviewedonnewsshow" style="fill: rgb(36, 221, 255); fill-opacity: 0.8666666666666666;" d="M-45.77028342740071,88.78196367136037A99.88571428571427,99.88571428571427 0 0,1 -61.7452518807781,78.51547483487961L-47.17436149129243,59.98708045879962A76.31428571428572,76.31428571428572 0 0,0 -34.96922970096892,67.83084238163718Z"></path><path class="dataArc" id="BeinterviewedonscriptedentertainmentTVshow" style="fill: rgb(36, 221, 255); fill-opacity: 0.8666666666666666;" d="M-61.7452518807781,78.51547483487961A99.88571428571427,99.88571428571427 0 0,1 -75.48858605549955,65.41123216779198L-57.67448894572063,49.97522915336739A76.31428571428572,76.31428571428572 0 0,0 -47.17436149129243,59.98708045879962Z"></path><path class="dataArc" id="Deliverremarksaboutpolicyorlegislation" style="fill: rgb(36, 221, 255); fill-opacity: 0.8999999999999999;" d="M-79.05140547745535,68.4984327706769A104.6,104.6 0 0,1 -90.58625723585222,52.30000000000011L-66.09011010023526,38.157142857142944A76.31428571428572,76.31428571428572 0 0,0 -57.67448894572063,49.97522915336739Z"></path><path class="dataArc" id="Deliverremarksataconference" style="fill: rgb(36, 221, 255); fill-opacity: 0.8666666666666666;" d="M-86.50356604658272,49.94285714285725A99.88571428571427,99.88571428571427 0 0,1 -94.3920817778994,32.66941713593456L-72.1170624796251,24.959958000595314A76.31428571428572,76.31428571428572 0 0,0 -66.09011010023526,38.157142857142944Z"></path><path class="dataArc" id="Deliverremarksatpressevent" style="fill: rgb(36, 221, 255); fill-opacity: 0.9666666666666666;" d="M-107.75709335686399,37.2950926171381A114.02857142857141,114.02857142857141 0 0,1 -112.86792498705145,16.227957701391087L-75.53751632182774,10.860655229369982A76.31428571428572,76.31428571428572 0 0,0 -72.1170624796251,24.959958000595314Z"></path><path class="dataArc" id="Deliverremarksattelevisedevent" style="fill: rgb(36, 221, 255); fill-opacity: 0.9333333333333333;" d="M-108.2016239038985,15.557044892388449A109.3142857142857,109.3142857142857 0 0,1 -109.19046970611967,-5.2013831411894795L-76.22784751308042,-3.631179919006038A76.31428571428572,76.31428571428572 0 0,0 -75.53751632182774,10.860655229369982Z"></path><path class="dataArc" id="Holdmeetandgreetwithlocalpubliconlocation" style="fill: rgb(36, 221, 255); fill-opacity: 0.8666666666666666;" d="M-99.77257765096559,-4.752753649137067A99.88571428571427,99.88571428571427 0 0,1 -97.07009265311721,-23.548949672598646L-74.16310568549088,-17.991774764162184A76.31428571428572,76.31428571428572 0 0,0 -76.22784751308042,-3.631179919006038Z"></path><path class="dataArc" id="Meetwithhonorees" style="fill: rgb(36, 221, 255); fill-opacity: 0.8333333333333333;" d="M-92.48869525959195,-22.437514690911353A95.17142857142856,95.17142857142856 0 0,1 -86.57097647216867,-39.53564023740792L-69.4179159883406,-31.702099992229527A76.31428571428572,76.31428571428572 0 0,0 -74.16310568549088,-17.991774764162184Z"></path><path class="dataArc" id="Participateinconferencecallwithpublicadvocatesandleaders" style="fill: rgb(36, 221, 255); fill-opacity: 0.8999999999999999;" d="M-95.14750671408271,-43.45241035999712A104.6,104.6 0 0,1 -85.20464458446523,-60.67395274114716L-62.163781940755705,-44.26662872756189A76.31428571428572,76.31428571428572 0 0,0 -69.4179159883406,-31.702099992229527Z"></path><path class="dataArc" id="Participateinroundtablediscussionwithbusinessleaders" style="fill: rgb(36, 221, 255); fill-opacity: 0.8999999999999999;" d="M-85.20464458446523,-60.67395274114716A104.6,104.6 0 0,1 -72.18226460102912,-75.70258038579014L-52.662886847677896,-55.231246165103926A76.31428571428572,76.31428571428572 0 0,0 -62.163781940755705,-44.26662872756189Z"></path><path class="dataArc" id="Bestowhonorsatstateceremonies" style="fill: rgb(36, 221, 255); fill-opacity: 0.8333333333333333;" d="M-65.67580534991204,-68.87880231222806A95.17142857142856,95.17142857142856 0 0,1 -51.45355894127435,-80.06330051030456L-41.25861781211162,-64.1996624626309A76.31428571428572,76.31428571428572 0 0,0 -52.662886847677896,-55.231246165103926Z"></path><path class="dataArc" id="Participateintelevisedtownhallconversation" style="fill: rgb(36, 221, 255); fill-opacity: 0.9666666666666666;" d="M-61.64850007043708,-95.92693855797823A114.02857142857141,114.02857142857141 0 0,1 -42.38013887258216,-105.86046916191835L-28.363154830535446,-70.84773568816937A76.31428571428572,76.31428571428572 0 0,0 -41.25861781211162,-64.1996624626309Z"></path><path class="dataArc" id="Visitandtourprojectsites" style="fill: rgb(36, 221, 255); fill-opacity: 0.8333333333333333;" d="M-35.3716468515588,-88.35410242504385A95.17142857142856,95.17142857142856 0 0,1 -18.011311284701037,-93.45155687377354L-14.442573533904675,-74.93518715396252A76.31428571428572,76.31428571428572 0 0,0 -28.363154830535446,-70.84773568816937Z"></path><path class="dataArc" id="Deliverstateoftheunionaddress" style="fill: rgb(36, 221, 255); fill-opacity: 0.8999999999999999;" d="M-19.795680160099216,-102.70974173367905A104.6,104.6 0 0,1 -2.9792509638052126e-13,-104.6L-2.1736081191815688e-13,-76.31428571428572A76.31428571428572,76.31428571428572 0 0,0 -14.442573533904675,-74.93518715396252Z"></path></g></g></svg>