<?xml version="1.0" encoding="utf-8"?>
<!-- Generator: Adobe Illustrator 16.0.0, SVG Export Plug-In . SVG Version: 6.00 Build 0)  -->
<!DOCTYPE svg PUBLIC "-//W3C//DTD SVG 1.1//EN" "http://www.w3.org/Graphics/SVG/1.1/DTD/svg11.dtd">
<svg version="1.1" id="Layer_1" xmlns="http://www.w3.org/2000/svg" xmlns:xlink="http://www.w3.org/1999/xlink" x="0px" y="0px"
	 width="690px" height="690px" viewBox="69.5 0.5 690 690" enable-background="new 69.5 0.5 690 690" xml:space="preserve">
<g transform="translate(414.5,345.5)">
	<g id="AverageScore">
		<path opacity="0.7775" fill="#FFFFFF" enable-background="new    " d="M-10.396-7.157c-5.858,0.002-10.608-4.747-10.608-10.605
			c-0.001-5.858,4.748-10.608,10.605-10.608c0.001,0,0.001,0,0.002,0c5.858-0.001,10.609,4.748,10.609,10.605
			C0.214-11.907-4.535-7.157-10.393-7.157C-10.395-7.157-10.395-7.157-10.396-7.157z"/>
	</g>
	<g id="Interests">
		<path opacity="0.7559" fill="#488C13" enable-background="new    " d="M-10.396-96.697c5.841,0,11.665,0.648,17.361,1.933
			L-8.062-28.111c-0.766-0.172-1.548-0.259-2.333-0.259V-96.697z"/>
	</g>
	<g id="Interests_1_">
		<path opacity="0.7559" fill="#509B21" enable-background="new    " d="M-10.396-169.35c11.216,0,22.399,1.245,33.341,3.712
			L6.965-94.764c-5.696-1.285-11.52-1.933-17.361-1.933V-169.35z"/>
	</g>
	<g id="Social">
		<path opacity="0.7327" fill="#59AC24" enable-background="new    " d="M-10.396-236.141c2.691,0,5.381,0.05,8.069,0.149
			l-2.467,66.746c-1.867-0.069-3.733-0.104-5.602-0.104V-236.141z"/>
	</g>
	<g id="Realistic">
		<path opacity="0.6861" fill="#59AC24" enable-background="new    " d="M-2.962-218.814c2.478,0.092,4.953,0.229,7.425,0.412
			l-3.664,49.467c-1.862-0.138-3.727-0.241-5.593-0.311L-2.962-218.814z"/>
	</g>
	<g id="Investigative">
		<path opacity="0.7792" fill="#59AC24" enable-background="new    " d="M7.01-252.795c2.895,0.214,5.787,0.482,8.672,0.804
			l-9.305,83.572c-1.855-0.206-3.716-0.379-5.578-0.517L7.01-252.795z"/>
	</g>
	<g id="Enterprising">
		<path opacity="0.8257" fill="#59AC24" enable-background="new    " d="M17.607-269.284c3.099,0.345,6.19,0.748,9.274,1.207
			L11.933-167.696c-1.847-0.275-3.699-0.516-5.556-0.723L17.607-269.284z"/>
	</g>
	<g id="Conventional">
		<path opacity="0.6396" fill="#59AC24" enable-background="new    " d="M16.725-199.869c2.242,0.334,4.481,0.71,6.711,1.126
			l-5.978,31.974c-1.835-0.344-3.678-0.652-5.525-0.928L16.725-199.869z"/>
	</g>
	<g id="Artistic">
		<path opacity="0.8722" fill="#59AC24" enable-background="new    " d="M39.321-283.727c3.276,0.612,6.542,1.285,9.794,2.019
			l-26.17,116.07c-1.822-0.411-3.651-0.788-5.487-1.131L39.321-283.727z"/>
	</g>
	<g id="Skills">
		<path opacity="0.7714" fill="#1B55C0" enable-background="new    " d="M8.142-99.983c36.743,8.285,63.529,39.941,65.617,77.549
			L0.195-18.352c-0.264-4.733-3.634-8.717-8.258-9.76L8.142-99.983z"/>
	</g>
	<g id="ContentAcquisition">
		<path opacity="0.8333" fill="#215ED5" enable-background="new    " d="M30.367-198.557c13.379,3.016,26.379,7.508,38.767,13.393
			L25.771-93.893c-5.633-2.677-11.546-4.719-17.63-6.091L30.367-198.557z"/>
	</g>
	<g id="ActiveListening">
		<path opacity="0.8333" fill="#2468ED" enable-background="new    " d="M53.607-301.632c3.498,0.789,6.98,1.641,10.446,2.559
			L37.021-196.927c-2.208-0.584-4.426-1.128-6.653-1.63L53.607-301.632z"/>
	</g>
	<g id="Mathematics">
		<path opacity="0.7778" fill="#2468ED" enable-background="new    " d="M58.68-278.766c3.215,0.851,6.415,1.762,9.597,2.731
			l-24.669,80.982c-2.184-0.666-4.38-1.291-6.587-1.875L58.68-278.766z"/>
	</g>
	<g id="ReadingComprehension">
		<path opacity="0.8333" fill="#2468ED" enable-background="new    " d="M74.396-296.131c3.431,1.045,6.84,2.152,10.229,3.323
			l-34.504,99.872c-2.157-0.746-4.33-1.451-6.515-2.117L74.396-296.131z"/>
	</g>
	<g id="Science">
		<path opacity="0.7778" fill="#2468ED" enable-background="new    " d="M77.766-272.952c3.145,1.086,6.269,2.23,9.369,3.432
			l-30.581,78.94c-2.129-0.825-4.274-1.61-6.432-2.355L77.766-272.952z"/>
	</g>
	<g id="Speaking">
		<path opacity="0.8889" fill="#2468ED" enable-background="new    " d="M102.358-308.813c3.585,1.389,7.146,2.845,10.677,4.366
			L62.894-187.988c-2.097-0.903-4.21-1.768-6.34-2.592L102.358-308.813z"/>
	</g>
	<g id="Writing">
		<path opacity="0.8889" fill="#2468ED" enable-background="new    " d="M113.035-304.448c3.532,1.521,7.035,3.106,10.509,4.757
			l-54.41,114.527c-2.063-0.98-4.143-1.921-6.24-2.824L113.035-304.448z"/>
	</g>
	<g id="LearningProcess">
		<path opacity="0.875" fill="#215ED5" enable-background="new    " d="M75.695-198.977c8.935,4.245,17.542,9.144,25.755,14.659
			L36.592-87.735c-3.45-2.316-7.066-4.375-10.82-6.158L75.695-198.977z"/>
	</g>
	<g id="ActiveLearning">
		<path opacity="0.8333" fill="#2468ED" enable-background="new    " d="M121.272-294.909c3.414,1.622,6.799,3.307,10.15,5.054
			l-49.09,94.183c-2.191-1.143-4.405-2.244-6.638-3.305L121.272-294.909z"/>
	</g>
	<g id="CriticalThinking">
		<path opacity="0.8889" fill="#2468ED" enable-background="new    " d="M141.231-308.673c3.584,1.868,7.133,3.803,10.646,5.802
			L88.845-192.124c-2.149-1.223-4.319-2.405-6.512-3.548L141.231-308.673z"/>
	</g>
	<g id="LearningStrategies">
		<path opacity="0.9444" fill="#2468ED" enable-background="new    " d="M162.431-321.414c3.742,2.129,7.442,4.328,11.103,6.594
			L95.22-188.338c-2.102-1.301-4.228-2.563-6.375-3.786L162.431-321.414z"/>
	</g>
	<g id="Monitoring">
		<path opacity="0.8333" fill="#2468ED" enable-background="new    " d="M151.13-278.638c3.215,1.99,6.393,4.039,9.529,6.146
			l-59.209,88.173c-2.052-1.378-4.129-2.718-6.23-4.02L151.13-278.638z"/>
	</g>
	<g id="ComplexProblemSolving">
		<path opacity="0.8889" fill="#215ED5" enable-background="new    " d="M104.303-188.567c2.104,1.413,4.183,2.865,6.233,4.354
			L39.146-85.951c-0.842-0.61-1.692-1.205-2.554-1.784L104.303-188.567z"/>
	</g>
	<g id="ComplexProblemSolving_1_">
		<path opacity="0.8889" fill="#2468ED" enable-background="new    " d="M175.457-294.528c3.411,2.29,6.778,4.642,10.102,7.057
			l-75.022,103.258c-2.051-1.49-4.129-2.941-6.233-4.354L175.457-294.528z"/>
	</g>
	<g id="ResourceManagement">
		<path opacity="0.7083" fill="#215ED5" enable-background="new    " d="M71.931-131.077c5.587,4.059,10.866,8.525,15.793,13.363
			L48.648-77.91c-2.966-2.911-6.142-5.599-9.503-8.042L71.931-131.077z"/>
	</g>
	<g id="ManagementofFinancialResources">
		<path opacity="0.7222" fill="#2468ED" enable-background="new    " d="M108.73-181.728c2.021,1.468,4.013,2.973,5.978,4.514
			l-38.646,49.257c-1.358-1.065-2.735-2.105-4.131-3.12L108.73-181.728z"/>
	</g>
	<g id="ManagementofMaterialResources">
		<path opacity="0.6667" fill="#2468ED" enable-background="new    " d="M102.125-161.176c1.767,1.387,3.507,2.805,5.223,4.256
			l-27.273,32.232c-1.317-1.115-2.654-2.205-4.013-3.27L102.125-161.176z"/>
	</g>
	<g id="ManagementofPersonnelResources">
		<path opacity="0.7222" fill="#2468ED" enable-background="new    " d="M120.515-172.481c1.906,1.612,3.783,3.261,5.628,4.942
			l-42.18,46.269c-1.274-1.163-2.57-2.302-3.889-3.417L120.515-172.481z"/>
	</g>
	<g id="TimeManagement">
		<path opacity="0.7222" fill="#2468ED" enable-background="new    " d="M126.143-167.539c1.845,1.682,3.658,3.398,5.44,5.148
			l-43.859,44.677c-1.231-1.208-2.485-2.395-3.761-3.557L126.143-167.539z"/>
	</g>
	<g id="Social_1_">
		<path opacity="0.8796" fill="#215ED5" enable-background="new    " d="M131.344-162.148c10.685,10.488,20.171,22.13,28.285,34.711
			L60.431-63.45C57.05-68.691,53.1-73.54,48.648-77.91L131.344-162.148z"/>
	</g>
	<g id="Coordination">
		<path opacity="0.8889" fill="#2468ED" enable-background="new    " d="M220.661-253.131c2.901,2.846,5.747,5.746,8.54,8.698
			l-92.619,87.622c-1.712-1.811-3.46-3.59-5.238-5.336L220.661-253.131z"/>
	</g>
	<g id="Instructing">
		<path opacity="0.9444" fill="#2468ED" enable-background="new    " d="M244.707-259.102c2.973,3.143,5.888,6.34,8.744,9.591
			l-111.83,98.225c-1.646-1.874-3.325-3.716-5.039-5.526L244.707-259.102z"/>
	</g>
	<g id="Negotiation">
		<path opacity="0.8333" fill="#2468ED" enable-background="new    " d="M221.462-221.414c2.51,2.857,4.966,5.759,7.368,8.707
			l-82.38,67.13c-1.574-1.933-3.185-3.836-4.829-5.708L221.462-221.414z"/>
	</g>
	<g id="Persuasion">
		<path opacity="0.8889" fill="#2468ED" enable-background="new    " d="M245.287-226.119c2.566,3.15,5.076,6.347,7.524,9.59
			l-101.745,76.835c-1.502-1.989-3.042-3.951-4.616-5.883L245.287-226.119z"/>
	</g>
	<g id="ServiceOrientation">
		<path opacity="0.8333" fill="#2468ED" enable-background="new    " d="M235.869-203.734c2.291,3.034,4.526,6.11,6.704,9.227
			l-87.112,60.863c-1.428-2.043-2.893-4.061-4.395-6.05L235.869-203.734z"/>
	</g>
	<g id="SocialPerceptiveness">
		<path opacity="0.8889" fill="#2468ED" enable-background="new    " d="M259.976-206.667c2.328,3.331,4.594,6.705,6.796,10.119
			l-107.143,69.111c-1.351-2.095-2.74-4.165-4.168-6.208L259.976-206.667z"/>
	</g>
	<g id="Systems">
		<path opacity="0.7963" fill="#215ED5" enable-background="new    " d="M133.992-110.899c3.442,5.338,6.587,10.862,9.419,16.549
			L65.052-55.332c-1.389-2.789-2.932-5.5-4.621-8.118L133.992-110.899z"/>
	</g>
	<g id="JudgmentandDecisionMaking">
		<path opacity="0.8333" fill="#2468ED" enable-background="new    " d="M222.359-167.9c1.85,2.868,3.646,5.77,5.389,8.703
			L137.336-105.5c-1.082-1.821-2.197-3.621-3.344-5.399L222.359-167.9z"/>
	</g>
	<g id="SystemsAnalysis">
		<path opacity="0.8333" fill="#2468ED" enable-background="new    " d="M227.748-159.197c1.743,2.934,3.431,5.901,5.062,8.896
			l-92.335,50.319c-1.013-1.859-2.06-3.699-3.14-5.519L227.748-159.197z"/>
	</g>
	<g id="SystemsEvaluation">
		<path opacity="0.7222" fill="#2468ED" enable-background="new    " d="M196.194-130.345c1.387,2.545,2.727,5.115,4.019,7.71
			l-56.802,28.284c-0.943-1.896-1.922-3.772-2.936-5.631L196.194-130.345z"/>
	</g>
	<g id="Technical">
		<path opacity="0.6465" fill="#215ED5" enable-background="new    " d="M95.265-70.376c7.155,14.368,11.304,30.045,12.193,46.072
			l-33.699,1.871c-0.636-11.444-3.599-22.638-8.707-32.898L95.265-70.376z"/>
	</g>
	<g id="EquipmentMaintenance">
		<path opacity="0.6111" fill="#2468ED" enable-background="new    " d="M114.739-80.074c0.768,1.542,1.507,3.097,2.217,4.666
			l-19.819,8.971c-0.6-1.325-1.225-2.639-1.872-3.94L114.739-80.074z"/>
	</g>
	<g id="EquipmentSelection">
		<path opacity="0.6667" fill="#2468ED" enable-background="new    " d="M135.177-83.654c0.811,1.794,1.59,3.603,2.335,5.424
			L98.862-62.429c-0.552-1.347-1.126-2.682-1.726-4.007L135.177-83.654z"/>
	</g>
	<g id="Installation">
		<path opacity="0.6111" fill="#2468ED" enable-background="new    " d="M119-70.662c0.651,1.594,1.273,3.2,1.866,4.818
			l-20.428,7.482c-0.502-1.365-1.026-2.721-1.576-4.067L119-70.662z"/>
	</g>
	<g id="OperationandControl">
		<path opacity="0.5556" fill="#2468ED" enable-background="new    " d="M102.284-59.038c0.509,1.388,0.991,2.786,1.448,4.191
			l-1.87,0.608c-0.449-1.383-0.925-2.757-1.424-4.123L102.284-59.038z"/>
	</g>
	<g id="OperationMonitoring">
		<path opacity="0.5556" fill="#2468ED" enable-background="new    " d="M103.732-54.847c0.456,1.407,0.887,2.821,1.292,4.243
			l-1.892,0.539c-0.397-1.399-0.821-2.79-1.271-4.173L103.732-54.847z"/>
	</g>
	<g id="OperationsAnalysis">
		<path opacity="0.7778" fill="#2468ED" enable-background="new    " d="M182.301-72.591c0.676,2.375,1.308,4.76,1.896,7.158
			l-79.947,19.584c-0.346-1.412-0.719-2.818-1.116-4.217L182.301-72.591z"/>
	</g>
	<g id="Programming">
		<path opacity="0.6667" fill="#2468ED" enable-background="new    " d="M144.804-55.784c0.47,1.912,0.901,3.833,1.299,5.761
			l-40.895,8.43c-0.293-1.424-0.613-2.843-0.959-4.255L144.804-55.784z"/>
	</g>
	<g id="QualityControlAnalysis">
		<path opacity="0.6667" fill="#2468ED" enable-background="new    " d="M146.103-50.023c0.398,1.929,0.76,3.864,1.087,5.806
			l-41.179,6.912c-0.242-1.434-0.509-2.863-0.803-4.288L146.103-50.023z"/>
	</g>
	<g id="Repairing">
		<path opacity="0.5556" fill="#2468ED" enable-background="new    " d="M107.949-37.631c0.245,1.458,0.463,2.92,0.654,4.387
			l-1.95,0.253c-0.188-1.442-0.402-2.88-0.643-4.314L107.949-37.631z"/>
	</g>
	<g id="TechnologyDesign">
		<path opacity="0.6667" fill="#2468ED" enable-background="new    " d="M148.059-38.377c0.254,1.953,0.472,3.909,0.653,5.87
			l-41.576,3.853c-0.134-1.448-0.295-2.894-0.482-4.336L148.059-38.377z"/>
	</g>
	<g id="Troubleshooting">
		<path opacity="0.7778" fill="#2468ED" enable-background="new    " d="M189.095-36.25c0.228,2.458,0.41,4.919,0.547,7.384
			l-82.184,4.561c-0.08-1.452-0.188-2.902-0.322-4.35L189.095-36.25z"/>
	</g>
	<g id="Abilities">
		<path opacity="0.8094" fill="#482355" enable-background="new    " d="M86.919-23.165C89.901,30.58,48.751,76.568-4.995,79.551
			c-10.212,0.566-20.45-0.477-30.336-3.094L-13.109-7.51C-7.446-6.011-1.64-9.387-0.142-15.05c0.285-1.076,0.398-2.19,0.337-3.301
			L86.919-23.165z"/>
	</g>
	<g id="Cognitive-Attention">
		<path opacity="0.6944" fill="#502658" enable-background="new    " d="M138.071-26.003c0.203,3.659,0.271,7.323,0.203,10.988
			l-51.223-0.948c0.044-2.401,0-4.803-0.133-7.201L138.071-26.003z"/>
	</g>
	<g id="SelectiveAttention">
		<path opacity="0.6667" fill="#592A6C" enable-background="new    " d="M180.399-28.353c0.131,2.351,0.218,4.703,0.261,7.058
			l-42.386,0.784c-0.033-1.832-0.101-3.663-0.203-5.492L180.399-28.353z"/>
	</g>
	<g id="TimeSharing">
		<path opacity="0.7222" fill="#592A6C" enable-background="new    " d="M201.114-21.673c0.048,2.605,0.048,5.212,0,7.818
			l-62.84-1.161c0.035-1.832,0.035-3.665,0-5.496L201.114-21.673z"/>
	</g>
	<g id="Cognitive-IdeasandReasoning">
		<path opacity="0.8651" fill="#502658" enable-background="new    " d="M200.526-13.866c-0.335,18.216-3.03,36.312-8.017,53.835
			L83.349,8.908c2.303-8.095,3.547-16.456,3.703-24.872L200.526-13.866z"/>
	</g>
	<g id="CategoryFlexibility">
		<path opacity="0.8333" fill="#592A6C" enable-background="new    " d="M307.069-11.896c-0.071,3.911-0.216,7.821-0.434,11.726
			L200.238-6.074c0.145-2.596,0.241-5.193,0.288-7.792L307.069-11.896z"/>
	</g>
	<g id="DeductiveReasoning">
		<path opacity="0.8333" fill="#592A6C" enable-background="new    " d="M306.636-0.17c-0.216,3.906-0.505,7.809-0.865,11.703
			L199.664,1.701c0.239-2.589,0.431-5.18,0.574-7.775L306.636-0.17z"/>
	</g>
	<g id="FluencyofIdeas">
		<path opacity="0.8889" fill="#592A6C" enable-background="new    " d="M326.958,13.498c-0.385,4.156-0.847,8.305-1.386,12.443
			L198.801,9.451c0.335-2.578,0.623-5.163,0.863-7.75L326.958,13.498z"/>
	</g>
	<g id="InductiveReasoning">
		<path opacity="0.8889" fill="#592A6C" enable-background="new    " d="M325.572,25.941c-0.538,4.139-1.152,8.27-1.844,12.385
			L197.651,17.162c0.431-2.564,0.814-5.135,1.149-7.711L325.572,25.941z"/>
	</g>
	<g id="InformationOrdering">
		<path opacity="0.8889" fill="#592A6C" enable-background="new    " d="M323.729,38.326c-0.691,4.117-1.459,8.219-2.302,12.307
			L196.22,24.824c0.524-2.545,1.003-5.1,1.432-7.662L323.729,38.326z"/>
	</g>
	<g id="Originality">
		<path opacity="0.8889" fill="#592A6C" enable-background="new    " d="M321.427,50.633c-0.842,4.09-1.76,8.162-2.754,12.217
			L194.505,32.432c0.618-2.525,1.189-5.061,1.715-7.607L321.427,50.633z"/>
	</g>
	<g id="ProblemSensitivity">
		<path opacity="0.8333" fill="#592A6C" enable-background="new    " d="M298.006,57.785c-0.931,3.801-1.932,7.582-3.002,11.346
			L192.51,39.969c0.712-2.5,1.377-5.012,1.995-7.537L298.006,57.785z"/>
	</g>
	<g id="Cognitive-Memory">
		<path opacity="0.7222" fill="#502658" enable-background="new    " d="M142.26,25.672c-0.534,1.879-1.104,3.75-1.708,5.609
			L82.298,12.354c0.372-1.141,0.722-2.289,1.051-3.445L142.26,25.672z"/>
	</g>
	<g id="Memorization">
		<path opacity="0.7222" fill="#592A6C" enable-background="new    " d="M202.97,42.945c-0.748,2.629-1.544,5.242-2.389,7.842
			l-60.029-19.506c0.604-1.859,1.174-3.73,1.708-5.609L202.97,42.945z"/>
	</g>
	<g id="Cognitive-Perceptual">
		<path opacity="0.8148" fill="#502658" enable-background="new    " d="M172.633,41.705c-2.198,6.768-4.771,13.408-7.704,19.889
			L78.396,22.428c1.486-3.283,2.788-6.645,3.901-10.074L172.633,41.705z"/>
	</g>
	<g id="FlexibilityofClosure">
		<path opacity="0.8333" fill="#592A6C" enable-background="new    " d="M273.368,74.438c-1.135,3.496-2.336,6.971-3.6,10.422
			l-99.458-36.43c0.815-2.227,1.589-4.469,2.322-6.725L273.368,74.438z"/>
	</g>
	<g id="PerceptualSpeed">
		<path opacity="0.7778" fill="#592A6C" enable-background="new    " d="M250.002,77.619c-1.176,3.209-2.41,6.395-3.702,9.557
			l-78.559-32.115c0.897-2.195,1.753-4.406,2.569-6.631L250.002,77.619z"/>
	</g>
	<g id="SpeedofClosure">
		<path opacity="0.8333" fill="#592A6C" enable-background="new    " d="M265.785,95.143c-1.392,3.402-2.845,6.779-4.36,10.127
			l-96.496-43.676c0.978-2.16,1.915-4.338,2.812-6.533L265.785,95.143z"/>
	</g>
	<g id="Cognitive-Quantitative">
		<path opacity="0.75" fill="#502658" enable-background="new    " d="M143.369,51.834c-1.716,3.791-3.57,7.516-5.56,11.166
			L75.186,28.875c1.149-2.109,2.222-4.26,3.211-6.447L143.369,51.834z"/>
	</g>
	<g id="MathematicalReasoning">
		<path opacity="0.7778" fill="#592A6C" enable-background="new    " d="M220.021,86.529c-1.285,2.84-2.621,5.656-4.01,8.443
			l-75.319-37.504c0.928-1.861,1.819-3.738,2.678-5.635L220.021,86.529z"/>
	</g>
	<g id="NumberFacility">
		<path opacity="0.7222" fill="#592A6C" enable-background="new    " d="M197.426,85.719c-1.274,2.561-2.597,5.098-3.967,7.609
			L137.81,63c0.994-1.824,1.956-3.67,2.882-5.531L197.426,85.719z"/>
	</g>
	<g id="Cognitive-Spatial">
		<path opacity="0.8611" fill="#502658" enable-background="new    " d="M173.557,82.482c-2.471,4.531-5.108,8.973-7.906,13.311
			L71.509,35.066c1.301-2.018,2.527-4.082,3.677-6.191L173.557,82.482z"/>
	</g>
	<g id="SpatialOrientation">
		<path opacity="0.8333" fill="#592A6C" enable-background="new    " d="M267.083,133.447c-1.864,3.42-3.79,6.803-5.777,10.15
			l-91.579-54.387c1.317-2.221,2.594-4.463,3.83-6.729L267.083,133.447z"/>
	</g>
	<g id="Visualization">
		<path opacity="0.8889" fill="#592A6C" enable-background="new    " d="M279.594,154.459c-2.122,3.574-4.31,7.107-6.562,10.6
			L165.65,95.793c1.399-2.17,2.758-4.363,4.076-6.582L279.594,154.459z"/>
	</g>
	<g id="Cognitive-Verbal">
		<path opacity="0.8472" fill="#502658" enable-background="new    " d="M161.344,93.014c-5.462,8.469-11.542,16.52-18.192,24.09
			L62.832,46.555c3.172-3.609,6.071-7.449,8.677-11.488L161.344,93.014z"/>
	</g>
	<g id="OralComprehension">
		<path opacity="0.8333" fill="#592A6C" enable-background="new    " d="M250.703,150.656c-2.074,3.217-4.209,6.395-6.401,9.531
			l-87.17-60.902c1.443-2.064,2.846-4.154,4.212-6.271L250.703,150.656z"/>
	</g>
	<g id="OralExpression">
		<path opacity="0.8333" fill="#592A6C" enable-background="new    " d="M244.302,160.188c-2.192,3.139-4.443,6.236-6.749,9.291
			l-84.86-64.082c1.519-2.01,2.998-4.047,4.439-6.111L244.302,160.188z"/>
	</g>
	<g id="WrittenComprehension">
		<path opacity="0.8333" fill="#592A6C" enable-background="new    " d="M237.553,169.479c-2.308,3.055-4.671,6.066-7.088,9.033
			l-82.435-67.174c1.592-1.953,3.146-3.934,4.662-5.941L237.553,169.479z"/>
	</g>
	<g id="WrittenExpression">
		<path opacity="0.8889" fill="#592A6C" enable-background="new    " d="M246.931,191.932c-2.583,3.17-5.226,6.291-7.924,9.365
			l-95.855-84.193c1.662-1.893,3.289-3.812,4.879-5.766L246.931,191.932z"/>
	</g>
	<g id="Psychomoter-Control">
		<path opacity="0.8333" fill="#502658" enable-background="new    " d="M139.309,113.729c-6.482,7.379-13.503,14.271-21.002,20.617
			L52.56,56.641c3.668-3.104,7.102-6.475,10.272-10.086L139.309,113.729z"/>
	</g>
	<g id="ControlPrecision">
		<path opacity="0.5556" fill="#592A6C" enable-background="new    " d="M140.846,115.078c-1.638,1.863-3.309,3.695-5.013,5.498
			l-1.484-1.406c1.687-1.783,3.34-3.598,4.96-5.441L140.846,115.078z"/>
	</g>
	<g id="MultilimbCoordination">
		<path opacity="0.9444" fill="#592A6C" enable-background="new    " d="M242.369,221.363c-2.945,3.113-5.949,6.172-9.008,9.176
			L129.188,124.426c1.752-1.721,3.472-3.473,5.16-5.256L242.369,221.363z"/>
	</g>
	<g id="RateControl">
		<path opacity="0.9444" fill="#592A6C" enable-background="new    " d="M233.361,230.539c-3.06,3.004-6.174,5.951-9.343,8.838
			L123.84,129.486c1.814-1.654,3.598-3.342,5.349-5.061L233.361,230.539z"/>
	</g>
	<g id="ResponseOrientation">
		<path opacity="0.8889" fill="#592A6C" enable-background="new    " d="M209.65,223.615c-2.974,2.713-5.998,5.369-9.069,7.967
			l-82.274-97.236c1.874-1.586,3.72-3.207,5.533-4.859L209.65,223.615z"/>
	</g>
	<g id="Psychomoter-Fine">
		<path opacity="0.9074" fill="#502658" enable-background="new    " d="M136.003,155.26c-6.396,5.412-13.088,10.465-20.045,15.137
			L43.94,63.15c2.99-2.008,5.868-4.184,8.619-6.51L136.003,155.26z"/>
	</g>
	<g id="Arm-HandSteadiness">
		<path opacity="0.8333" fill="#592A6C" enable-background="new    " d="M205.165,237c-3.139,2.654-6.326,5.254-9.562,7.791
			l-66.095-84.24c2.198-1.725,4.362-3.488,6.494-5.291L205.165,237z"/>
	</g>
	<g id="FingerDexterity">
		<path opacity="0.9444" fill="#592A6C" enable-background="new    " d="M222.047,278.492c-3.651,2.863-7.353,5.662-11.106,8.389
			L122.824,165.6c2.26-1.643,4.488-3.324,6.685-5.049L222.047,278.492z"/>
	</g>
	<g id="ManualDexterity">
		<path opacity="0.9444" fill="#592A6C" enable-background="new    " d="M210.94,286.881c-3.754,2.727-7.556,5.383-11.407,7.971
			l-83.575-124.455c2.318-1.559,4.607-3.156,6.866-4.797L210.94,286.881z"/>
	</g>
	<g id="Psychomoter-Speed">
		<path opacity="0.9074" fill="#502658" enable-background="new    " d="M115.958,170.396c-6.956,4.67-14.166,8.953-21.597,12.826
			L34.652,68.666c3.195-1.666,6.296-3.508,9.288-5.516L115.958,170.396z"/>
	</g>
	<g id="ReactionTime">
		<path opacity="0.8889" fill="#592A6C" enable-background="new    " d="M187.562,277.025c-3.633,2.438-7.309,4.809-11.029,7.113
			l-67.614-109.201c2.374-1.471,4.722-2.984,7.039-4.541L187.562,277.025z"/>
	</g>
	<g id="SpeedofLimbMovement">
		<path opacity="0.8889" fill="#592A6C" enable-background="new    " d="M176.533,284.139c-3.719,2.303-7.481,4.537-11.283,6.701
			l-63.533-111.627c2.428-1.381,4.828-2.807,7.202-4.275L176.533,284.139z"/>
	</g>
	<g id="Wrist-FingerSpeed">
		<path opacity="0.9444" fill="#592A6C" enable-background="new    " d="M175.872,309.5c-4.033,2.295-8.106,4.516-12.22,6.66
			L94.361,183.223c2.478-1.291,4.929-2.627,7.355-4.01L175.872,309.5z"/>
	</g>
	<g id="Physical-Dexterity">
		<path opacity="0.7639" fill="#502658" enable-background="new    " d="M69.95,136.387c-7.6,3.961-15.482,7.355-23.583,10.154
			L21.431,74.359c4.541-1.57,8.962-3.473,13.222-5.693L69.95,136.387z"/>
	</g>
	<g id="DynamicFlexibility">
		<path opacity="0.7222" fill="#592A6C" enable-background="new    " d="M99.302,192.701c-2.593,1.352-5.21,2.654-7.852,3.908
			L64.2,139.252c1.935-0.92,3.852-1.875,5.75-2.865L99.302,192.701z"/>
	</g>
	<g id="ExtentFlexibility">
		<path opacity="0.7778" fill="#592A6C" enable-background="new    " d="M100.375,215.395c-2.872,1.365-5.771,2.678-8.691,3.934
			L58.347,141.9c1.968-0.848,3.919-1.73,5.854-2.648L100.375,215.395z"/>
	</g>
	<g id="GrossBodyCoordination">
		<path opacity="0.7778" fill="#592A6C" enable-background="new    " d="M91.684,219.328c-2.921,1.258-5.865,2.463-8.831,3.611
			l-30.453-78.607c1.998-0.773,3.979-1.586,5.947-2.432L91.684,219.328z"/>
	</g>
	<g id="GrossBodyEquilibrium">
		<path opacity="0.7778" fill="#592A6C" enable-background="new    " d="M82.853,222.939c-2.966,1.148-5.951,2.242-8.957,3.279
			l-27.528-79.678c2.025-0.699,4.036-1.436,6.032-2.209L82.853,222.939z"/>
	</g>
	<g id="Physical-Strength">
		<path opacity="0.6944" fill="#502658" enable-background="new    " d="M38.16,122.781c-6.93,2.395-14.026,4.273-21.232,5.619
			L7.514,78.041c4.723-0.883,9.375-2.113,13.917-3.682L38.16,122.781z"/>
	</g>
	<g id="DynamicStrength">
		<path opacity="0.7222" fill="#592A6C" enable-background="new    " d="M58.683,182.188c-2.464,0.85-4.942,1.656-7.436,2.414
			L32.933,124.48c1.753-0.535,3.495-1.102,5.228-1.699L58.683,182.188z"/>
	</g>
	<g id="ExplosiveStrength">
		<path opacity="0.6667" fill="#592A6C" enable-background="new    " d="M45.285,165.033c-2.251,0.686-4.517,1.332-6.792,1.934
			l-10.847-40.982c1.772-0.469,3.533-0.971,5.286-1.504L45.285,165.033z"/>
	</g>
	<g id="Stamina">
		<path opacity="0.6667" fill="#592A6C" enable-background="new    " d="M38.493,166.967c-2.276,0.602-4.563,1.162-6.859,1.68
			l-9.325-41.355c1.788-0.402,3.568-0.84,5.338-1.307L38.493,166.967z"/>
	</g>
	<g id="TrunkStrength">
		<path opacity="0.7222" fill="#592A6C" enable-background="new    " d="M36.134,188.602c-2.544,0.574-5.097,1.1-7.659,1.578
			L16.928,128.4c1.801-0.336,3.595-0.705,5.381-1.109L36.134,188.602z"/>
	</g>
	<g id="Sensory-AuditoryandSpeech">
		<path opacity="0.8667" fill="#502658" enable-background="new    " d="M28.475,190.18c-12.817,2.398-25.829,3.604-38.871,3.604
			V79.701c6.008,0,12.004-0.555,17.91-1.66L28.475,190.18z"/>
	</g>
	<g id="AuditoryAttention">
		<path opacity="0.8889" fill="#592A6C" enable-background="new    " d="M51.97,315.867c-4.109,0.768-8.234,1.461-12.369,2.076
			L20.765,191.475c2.578-0.383,5.149-0.816,7.71-1.295L51.97,315.867z"/>
	</g>
	<g id="HearingSensitivity">
		<path opacity="0.8889" fill="#592A6C" enable-background="new    " d="M39.601,317.943c-4.137,0.615-8.284,1.156-12.439,1.619
			L13.013,192.484c2.59-0.289,5.176-0.625,7.752-1.01L39.601,317.943z"/>
	</g>
	<g id="SoundLocalization">
		<path opacity="0.8333" fill="#592A6C" enable-background="new    " d="M24.807,298.41c-3.896,0.434-7.8,0.795-11.707,1.084
			L5.228,193.205c2.599-0.193,5.194-0.434,7.785-0.721L24.807,298.41z"/>
	</g>
	<g id="SpeechClarity">
		<path opacity="0.8889" fill="#592A6C" enable-background="new    " d="M14.671,320.719c-4.17,0.309-8.346,0.541-12.525,0.695
			l-4.725-127.777c2.604-0.094,5.207-0.24,7.807-0.432L14.671,320.719z"/>
	</g>
	<g id="SpeechRecognition">
		<path opacity="0.8333" fill="#592A6C" enable-background="new    " d="M1.359,300.146c-3.917,0.145-7.836,0.217-11.755,0.217
			v-106.58c2.607,0,5.213-0.049,7.817-0.146L1.359,300.146z"/>
	</g>
	<g id="Sensory-Visual">
		<path opacity="0.7302" fill="#502658" enable-background="new    " d="M-10.396,143.822c-13.954,0-27.851-1.807-41.341-5.377
			l16.406-61.988c8.136,2.154,16.518,3.244,24.935,3.244V143.822z"/>
	</g>
	<g id="DepthPerception">
		<path opacity="0.7222" fill="#592A6C" enable-background="new    " d="M-10.396,207.018c-2.77,0-5.538-0.051-8.306-0.154
			l2.336-63.15c1.989,0.074,3.98,0.109,5.97,0.109V207.018z"/>
	</g>
	<g id="FarVision">
		<path opacity="0.7222" fill="#592A6C" enable-background="new    " d="M-18.702,206.863c-2.767-0.104-5.533-0.256-8.294-0.461
			l4.667-63.02c1.985,0.146,3.973,0.258,5.963,0.33L-18.702,206.863z"/>
	</g>
	<g id="GlareSensitivity">
		<path opacity="0.6667" fill="#592A6C" enable-background="new    " d="M-25.478,185.9c-2.509-0.186-5.016-0.418-7.516-0.697
			l4.717-42.371c1.979,0.219,3.961,0.402,5.947,0.551L-25.478,185.9z"/>
	</g>
	<g id="NearVision">
		<path opacity="0.7778" fill="#592A6C" enable-background="new    " d="M-37.56,226.219c-3.006-0.334-6.006-0.725-8.998-1.17
			l12.359-82.988c1.969,0.293,3.944,0.551,5.921,0.771L-37.56,226.219z"/>
	</g>
	<g id="NightVision">
		<path opacity="0.7778" fill="#592A6C" enable-background="new    " d="M-46.557,225.049c-2.992-0.445-5.975-0.947-8.948-1.502
			l15.417-82.475c1.958,0.365,3.921,0.695,5.89,0.988L-46.557,225.049z"/>
	</g>
	<g id="PeripheralVision">
		<path opacity="0.7222" fill="#592A6C" enable-background="new    " d="M-51.699,203.189c-2.723-0.508-5.435-1.068-8.137-1.676
			l13.899-61.648c1.943,0.439,3.892,0.84,5.849,1.207L-51.699,203.189z"/>
	</g>
	<g id="VisualColorDiscrimination">
		<path opacity="0.7222" fill="#592A6C" enable-background="new    " d="M-59.836,201.514c-2.701-0.609-5.391-1.27-8.069-1.979
			l16.168-61.09c1.924,0.51,3.859,0.982,5.8,1.42L-59.836,201.514z"/>
	</g>
	<g id="Knowledge">
		<path opacity="0.7384" fill="#CC080E" enable-background="new    " d="M-29.047,52.711c-27.676-7.324-48.504-30.17-53.244-58.406
			l61.434-10.313c0.69,4.109,3.72,7.432,7.748,8.499L-29.047,52.711z"/>
	</g>
	<g id="ArtsandHumanities">
		<path opacity="0.8111" fill="#CE2121" enable-background="new    " d="M-52.657,141.926c-9.845-2.605-19.426-6.115-28.624-10.484
			l39.603-83.357c4.059,1.928,8.288,3.477,12.632,4.627L-52.657,141.926z"/>
	</g>
	<g id="EnglishLanguage">
		<path opacity="0.8889" fill="#E02424" enable-background="new    " d="M-84.869,263.641c-3.467-0.918-6.917-1.898-10.348-2.945
			l36.688-120.439c1.947,0.592,3.905,1.15,5.872,1.67L-84.869,263.641z"/>
	</g>
	<g id="FineArts">
		<path opacity="0.9444" fill="#E02424" enable-background="new    " d="M-101.375,280.912c-3.68-1.121-7.338-2.311-10.974-3.566
			l48.013-138.979c1.923,0.666,3.858,1.295,5.806,1.889L-101.375,280.912z"/>
	</g>
	<g id="ForeignLanguage">
		<path opacity="0.7222" fill="#E02424" enable-background="new    " d="M-85.002,198.186c-2.66-0.918-5.303-1.887-7.928-2.902
			l22.861-59.014c1.898,0.734,3.809,1.436,5.733,2.098L-85.002,198.186z"/>
	</g>
	<g id="HistoryandArcheology">
		<path opacity="0.7222" fill="#E02424" enable-background="new    " d="M-92.93,195.283c-2.625-1.018-5.231-2.084-7.816-3.197
			l25.027-58.127c1.868,0.805,3.752,1.574,5.65,2.311L-92.93,195.283z"/>
	</g>
	<g id="PhilosophyandTheology">
		<path opacity="0.7778" fill="#E02424" enable-background="new    " d="M-108.946,211.133c-2.82-1.215-5.617-2.48-8.39-3.799
			l36.055-75.893c1.839,0.873,3.693,1.713,5.562,2.518L-108.946,211.133z"/>
	</g>
	<g id="BusinessandManagement">
		<path opacity="0.7889" fill="#CE2121" enable-background="new    " d="M-77.829,124.176c-8.75-4.158-17.097-9.113-24.934-14.809
			l49.517-68.152c3.635,2.641,7.508,4.941,11.567,6.869L-77.829,124.176z"/>
	</g>
	<g id="AdministrationandManagement">
		<path opacity="0.7778" fill="#E02424" enable-background="new    " d="M-113.77,199.826c-2.681-1.273-5.338-2.596-7.969-3.969
			l38.711-74.271c1.717,0.895,3.451,1.76,5.2,2.59L-113.77,199.826z"/>
	</g>
	<g id="Clerical">
		<path opacity="0.7778" fill="#E02424" enable-background="new    " d="M-121.739,195.857c-2.632-1.371-5.239-2.791-7.818-4.26
			l41.43-72.789c1.683,0.957,3.382,1.883,5.099,2.777L-121.739,195.857z"/>
	</g>
	<g id="CustomerandPersonalService">
		<path opacity="0.7778" fill="#E02424" enable-background="new    " d="M-129.558,191.598c-2.578-1.467-5.131-2.984-7.654-4.545
			l44.091-71.211c1.646,1.02,3.312,2.008,4.994,2.967L-129.558,191.598z"/>
	</g>
	<g id="EconomicsandAccounting">
		<path opacity="0.7778" fill="#E02424" enable-background="new    " d="M-137.212,187.053c-2.523-1.562-5.018-3.172-7.481-4.828
			l46.692-69.531c1.607,1.08,3.233,2.129,4.88,3.148L-137.212,187.053z"/>
	</g>
	<g id="PersonnelandHumanResources">
		<path opacity="0.8333" fill="#E02424" enable-background="new    " d="M-156.301,199.512c-2.678-1.799-5.321-3.646-7.929-5.541
			l61.467-84.604c1.567,1.139,3.154,2.248,4.762,3.326L-156.301,199.512z"/>
	</g>
	<g id="Communications">
		<path opacity="0.7222" fill="#CE2121" enable-background="new    " d="M-88.689,89.998c-2.656-1.928-5.239-3.955-7.745-6.076
			l38.95-46.033c1.371,1.162,2.784,2.27,4.238,3.326L-88.689,89.998z"/>
	</g>
	<g id="CommunicationsandMedia">
		<path opacity="0.7778" fill="#E02424" enable-background="new    " d="M-137.417,157.066c-2.154-1.564-4.279-3.168-6.374-4.812
			l51.173-65.223c1.292,1.014,2.601,2.002,3.929,2.967L-137.417,157.066z"/>
	</g>
	<g id="Telecommunications">
		<path opacity="0.6667" fill="#E02424" enable-background="new    " d="M-118.595,120.141c-1.698-1.334-3.373-2.697-5.021-4.092
			l27.182-32.127c1.253,1.061,2.525,2.098,3.816,3.109L-118.595,120.141z"/>
	</g>
	<g id="EducationandTraining">
		<path opacity="0.9444" fill="#CE2121" enable-background="new    " d="M-148.654,145.639c-2.014-1.703-3.996-3.443-5.944-5.219
			l95.089-104.309c0.664,0.605,1.339,1.197,2.025,1.777L-148.654,145.639z"/>
	</g>
	<g id="EducationandTraining_1_">
		<path opacity="0.9444" fill="#E02424" enable-background="new    " d="M-245.135,259.666c-3.418-2.893-6.782-5.846-10.091-8.863
			l100.628-110.383c1.949,1.775,3.931,3.516,5.944,5.219L-245.135,259.666z"/>
	</g>
	<g id="EngineeringandTechnology">
		<path opacity="0.6778" fill="#CE2121" enable-background="new    " d="M-89.494,69.004c-5.35-4.875-10.235-10.236-14.598-16.012
			l35.521-26.824c2.708,3.588,5.741,6.916,9.063,9.943L-89.494,69.004z"/>
	</g>
	<g id="BuildingandConstruction">
		<path opacity="0.6111" fill="#E02424" enable-background="new    " d="M-104.147,85.076c-1.266-1.154-2.512-2.334-3.736-3.535
			l15.236-15.52c1.033,1.014,2.083,2.008,3.153,2.982L-104.147,85.076z"/>
	</g>
	<g id="ComputersandElectronics">
		<path opacity="0.8333" fill="#E02424" enable-background="new    " d="M-164.669,139.389c-1.936-1.902-3.837-3.838-5.702-5.809
			l74.685-70.654c0.994,1.051,2.007,2.082,3.04,3.096L-164.669,139.389z"/>
	</g>
	<g id="Design">
		<path opacity="0.6667" fill="#E02424" enable-background="new    " d="M-126.009,91.611c-1.347-1.424-2.669-2.873-3.962-4.348
			l31.361-27.545c0.955,1.086,1.929,2.154,2.924,3.207L-126.009,91.611z"/>
	</g>
	<g id="EngineeringandTechnology_1_">
		<path opacity="0.6667" fill="#E02424" enable-background="new    " d="M-129.971,87.264c-1.293-1.473-2.561-2.969-3.799-4.49
			l32.357-26.367c0.915,1.121,1.848,2.227,2.803,3.312L-129.971,87.264z"/>
	</g>
	<g id="Mechanical">
		<path opacity="0.6111" fill="#E02424" enable-background="new    " d="M-118.272,70.145c-1.083-1.328-2.142-2.678-3.175-4.047
			l17.355-13.105c0.873,1.156,1.766,2.293,2.679,3.414L-118.272,70.145z"/>
	</g>
	<g id="HealthServices">
		<path opacity="0.6667" fill="#CE2121" enable-background="new    " d="M-100.959,50.627c-1.685-2.232-3.289-4.525-4.804-6.875
			l34.106-22c0.974,1.51,2.002,2.984,3.085,4.416L-100.959,50.627z"/>
	</g>
	<g id="MedicineandDentistry">
		<path opacity="0.6111" fill="#E02424" enable-background="new    " d="M-118.275,63.703c-1.004-1.328-1.983-2.676-2.937-4.041
			l17.787-12.428c0.801,1.146,1.623,2.277,2.466,3.393L-118.275,63.703z"/>
	</g>
	<g id="TherapyandCounseling">
		<path opacity="0.7222" fill="#E02424" enable-background="new    " d="M-154.083,82.627c-1.237-1.77-2.441-3.562-3.612-5.377
			l51.932-33.498c0.758,1.174,1.537,2.336,2.338,3.482L-154.083,82.627z"/>
	</g>
	<g id="LawandPublicSafety">
		<path opacity="0.6667" fill="#CE2121" enable-background="new    " d="M-105.763,43.752c-0.757-1.174-1.494-2.363-2.208-3.566
			l34.896-20.725c0.458,0.773,0.932,1.537,1.419,2.291L-105.763,43.752z"/>
	</g>
	<g id="LawandGovernment">
		<path opacity="0.6667" fill="#E02424" enable-background="new    " d="M-140.764,66.328c-1.037-1.605-2.042-3.23-3.019-4.873
			l35.812-21.27c0.714,1.203,1.451,2.393,2.208,3.566L-140.764,66.328z"/>
	</g>
	<g id="ManufacturingandProduction">
		<path opacity="0.6389" fill="#CE2121" enable-background="new    " d="M-99.571,35.199c-1.305-2.199-2.529-4.443-3.669-6.732
			l27.586-13.736c0.801,1.607,1.661,3.188,2.578,4.73L-99.571,35.199z"/>
	</g>
	<g id="FoodProduction">
		<path opacity="0.6111" fill="#E02424" enable-background="new    " d="M-118.119,46.213c-0.788-1.326-1.551-2.67-2.29-4.025
			l18.941-10.322c0.612,1.123,1.244,2.232,1.897,3.334L-118.119,46.213z"/>
	</g>
	<g id="ProductionandProcessing">
		<path opacity="0.6667" fill="#E02424" enable-background="new    " d="M-137.837,51.686c-0.855-1.57-1.682-3.154-2.479-4.758
			l37.076-18.461c0.571,1.145,1.161,2.277,1.772,3.398L-137.837,51.686z"/>
	</g>
	<g id="MathematicsandScience">
		<path opacity="0.746" fill="#CE2121" enable-background="new    " d="M-137.256,45.404c-5.456-10.955-9.469-22.57-11.939-34.557
			l67.4-13.894c1.27,6.166,3.336,12.142,6.142,17.776L-137.256,45.404z"/>
	</g>
	<g id="Biology">
		<path opacity="0.7222" fill="#E02424" enable-background="new    " d="M-193.343,73.334c-1.122-2.254-2.203-4.529-3.241-6.822
			l57.081-25.838c0.719,1.592,1.469,3.17,2.247,4.73L-193.343,73.334z"/>
	</g>
	<g id="Chemistry">
		<path opacity="0.6667" fill="#E02424" enable-background="new    " d="M-178,58.1c-0.935-2.064-1.833-4.148-2.689-6.244
			l39.114-15.992c0.66,1.617,1.351,3.221,2.071,4.811L-178,58.1z"/>
	</g>
	<g id="Geography">
		<path opacity="0.7222" fill="#E02424" enable-background="new    " d="M-199.571,59.574c-0.953-2.332-1.862-4.68-2.729-7.045
			l58.833-21.549c0.601,1.641,1.231,3.268,1.893,4.883L-199.571,59.574z"/>
	</g>
	<g id="Mathematics_1_">
		<path opacity="0.7778" fill="#E02424" enable-background="new    " d="M-221.605,59.602c-0.953-2.602-1.858-5.221-2.714-7.855
			l79.143-25.717c0.539,1.662,1.109,3.311,1.709,4.951L-221.605,59.602z"/>
	</g>
	<g id="Physics">
		<path opacity="0.7222" fill="#E02424" enable-background="new    " d="M-204.766,45.391c-0.779-2.395-1.513-4.803-2.201-7.225
			l60.263-17.146c0.478,1.68,0.987,3.35,1.527,5.01L-204.766,45.391z"/>
	</g>
	<g id="Psychology">
		<path opacity="0.8333" fill="#E02424" enable-background="new    " d="M-246.663,49.461c-0.829-2.912-1.603-5.836-2.323-8.777
			l100.942-24.729c0.415,1.697,0.861,3.385,1.339,5.064L-246.663,49.461z"/>
	</g>
	<g id="SociologyandAnthropology">
		<path opacity="0.7778" fill="#E02424" enable-background="new    " d="M-228.87,35.756c-0.659-2.691-1.269-5.395-1.828-8.109
			l81.502-16.799c0.353,1.709,0.736,3.414,1.152,5.107L-228.87,35.756z"/>
	</g>
	<g id="Transportation">
		<path opacity="0.6111" fill="#CE2121" enable-background="new    " d="M-102.47,1.214c-0.235-1.133-0.447-2.272-0.638-3.413
			l20.817-3.496c0.15,0.886,0.314,1.769,0.496,2.649L-102.47,1.214z"/>
	</g>
	<g id="Transportation_1_">
		<path opacity="0.6111" fill="#E02424" enable-background="new    " d="M-123.466,5.545c-0.287-1.396-0.547-2.792-0.784-4.195
			l21.142-3.549c0.191,1.141,0.403,2.28,0.638,3.413L-123.466,5.545z"/>
	</g>
	<g id="WorkActivities">
		<path opacity="0.7791" fill="#FB430F" enable-background="new    " d="M-96.146-3.369c-7.64-45.512,21.607-89.065,66.626-99.215
			l16.791,74.473c-5.492,1.239-9.06,6.551-8.128,12.103L-96.146-3.369z"/>
	</g>
	<g id="InformationInput">
		<path opacity="0.7222" fill="#FF5421" enable-background="new    " d="M-156.168,6.709c-1.508-8.987-2.184-18.095-2.015-27.205
			l60.852,1.125c-0.098,5.359,0.298,10.715,1.185,16.001L-156.168,6.709z"/>
	</g>
	<g id="EstimatingtheQuantifiableCharacteristicsofProductsEventsorInformation">
		<path opacity="0.7222" fill="#FF5924" enable-background="new    " d="M-218.126,17.107c-0.43-2.559-0.812-5.125-1.146-7.699
			l62.299-8.104c0.235,1.806,0.504,3.606,0.805,5.405L-218.126,17.107z"/>
	</g>
	<g id="GettingInformation">
		<path opacity="0.7222" fill="#FF5924" enable-background="new    " d="M-219.273,9.408c-0.335-2.572-0.623-5.152-0.861-7.736
			l62.557-5.797c0.167,1.813,0.369,3.622,0.604,5.429L-219.273,9.408z"/>
	</g>
	<g id="IdentifyingObjectsActionsandEvents">
		<path opacity="0.7778" fill="#FF5924" enable-background="new    " d="M-240.654,3.573c-0.263-2.837-0.473-5.679-0.631-8.523
			l83.305-4.624c0.101,1.819,0.234,3.636,0.403,5.449L-240.654,3.573z"/>
	</g>
	<g id="InspectingEquipmentStructuresorMaterial">
		<path opacity="0.6667" fill="#FF5924" enable-background="new    " d="M-200.292-7.227c-0.129-2.339-0.217-4.681-0.26-7.023
			l42.368-0.784c0.034,1.821,0.101,3.642,0.203,5.459L-200.292-7.227z"/>
	</g>
	<g id="MonitorProcessesMaterialsorSurroundings">
		<path opacity="0.7222" fill="#FF5924" enable-background="new    " d="M-220.997-13.872c-0.048-2.594-0.048-5.189,0-7.784
			l62.814,1.161c-0.033,1.821-0.033,3.642,0,5.462L-220.997-13.872z"/>
	</g>
	<g id="InteractingWithOthers-Administering">
		<path opacity="0.7407" fill="#FF5421" enable-background="new    " d="M-164.852-20.619c0.105-5.71,0.527-11.41,1.263-17.073
			l66.971,8.711c-0.415,3.188-0.652,6.396-0.713,9.61L-164.852-20.619z"/>
	</g>
	<g id="MonitoringandControllingResources">
		<path opacity="0.7222" fill="#FF5924" enable-background="new    " d="M-227.848-21.783c0.05-2.679,0.148-5.356,0.297-8.032
			l62.909,3.492c-0.105,1.9-0.175,3.802-0.21,5.705L-227.848-21.783z"/>
	</g>
	<g id="PerformingAdministrativeActivities">
		<path opacity="0.7778" fill="#FF5924" enable-background="new    " d="M-248.177-30.959c0.163-2.93,0.379-5.856,0.65-8.778
			l83.307,7.72c-0.176,1.895-0.317,3.793-0.422,5.694L-248.177-30.959z"/>
	</g>
	<g id="StaffingOrganizationalUnits">
		<path opacity="0.7222" fill="#FF5924" enable-background="new    " d="M-226.958-37.832c0.247-2.667,0.544-5.332,0.89-7.988
			l62.479,8.128c-0.245,1.887-0.455,3.779-0.631,5.674L-226.958-37.832z"/>
	</g>
	<g id="InteractingWithOthers-Communicating">
		<path opacity="0.8056" fill="#FF5421" enable-background="new    " d="M-186.908-40.725c2.268-17.429,7.103-34.426,14.351-50.438
			l82.947,37.545c-3.539,7.821-5.903,16.124-7.009,24.637L-186.908-40.725z"/>
	</g>
	<g id="AssistingandCaringforOthers">
		<path opacity="0.7222" fill="#FF5924" enable-background="new    " d="M-249.981-48.931c0.384-2.951,0.822-5.896,1.315-8.832
			l62.729,10.531c-0.363,2.163-0.687,4.332-0.97,6.507L-249.981-48.931z"/>
	</g>
	<g id="CommunicatingwithPersonsOutsideOrganization">
		<path opacity="0.7222" fill="#FF5924" enable-background="new    " d="M-248.667-57.763c0.493-2.935,1.04-5.861,1.641-8.777
			l62.296,12.841c-0.442,2.148-0.845,4.304-1.208,6.467L-248.667-57.763z"/>
	</g>
	<g id="CommunicatingwithSupervisorsPeersorSubordinates">
		<path opacity="0.7778" fill="#FF5924" enable-background="new    " d="M-267.422-70.744c0.652-3.167,1.364-6.321,2.133-9.462
			l82.006,20.089c-0.521,2.13-1.004,4.27-1.447,6.417L-267.422-70.744z"/>
	</g>
	<g id="EstablishingandMaintainingInterpersonalRelationships">
		<path opacity="0.8889" fill="#FF5924" enable-background="new    " d="M-306.128-90.209c0.892-3.644,1.852-7.271,2.879-10.878
			l121.65,34.612c-0.601,2.108-1.161,4.229-1.684,6.359L-306.128-90.209z"/>
	</g>
	<g id="InterpretingtheMeaningofInformationforOthers">
		<path opacity="0.8889" fill="#FF5924" enable-background="new    " d="M-303.25-101.087c1.026-3.608,2.12-7.198,3.279-10.765
			l120.288,39.083c-0.678,2.086-1.318,4.185-1.917,6.294L-303.25-101.087z"/>
	</g>
	<g id="PerformingfororWorkingDirectlywiththePublic">
		<path opacity="0.8333" fill="#FF5924" enable-background="new    " d="M-279.916-105.336c1.079-3.321,2.219-6.621,3.42-9.899
			l98.961,36.249c-0.754,2.059-1.47,4.132-2.147,6.217L-279.916-105.336z"/>
	</g>
	<g id="ResolvingConflictsandNegotiatingwithOthers">
		<path opacity="0.7778" fill="#FF5924" enable-background="new    " d="M-256.814-108.026c1.112-3.036,2.28-6.051,3.504-9.044
			l78.153,31.95c-0.83,2.03-1.622,4.075-2.377,6.134L-256.814-108.026z"/>
	</g>
	<g id="SellingorInfluencingOthers">
		<path opacity="0.8333" fill="#FF5924" enable-background="new    " d="M-272.711-125.002c1.321-3.231,2.701-6.439,4.141-9.619
			l96.014,43.458c-0.904,1.998-1.771,4.012-2.601,6.042L-272.711-125.002z"/>
	</g>
	<g id="InteractingWithOthers-Coordinating">
		<path opacity="0.8611" fill="#FF5421" enable-background="new    " d="M-191.095-99.554c6.052-13.372,13.569-26.029,22.415-37.742
			l88.897,67.133c-3.877,5.134-7.173,10.683-9.826,16.545L-191.095-99.554z"/>
	</g>
	<g id="CoachingandDevelopingOthers">
		<path opacity="0.8889" fill="#FF5924" enable-background="new    " d="M-307.102-152.062c1.655-3.655,3.377-7.279,5.165-10.872
			l113.987,56.759c-1.089,2.187-2.138,4.395-3.146,6.621L-307.102-152.062z"/>
	</g>
	<g id="CoordinatingtheWorkandActivitiesofOthers">
		<path opacity="0.8889" fill="#FF5924" enable-background="new    " d="M-301.937-162.934c1.789-3.592,3.643-7.151,5.563-10.674
			l111.812,60.932c-1.17,2.146-2.3,4.313-3.389,6.501L-301.937-162.934z"/>
	</g>
	<g id="DevelopingandBuildingTeams">
		<path opacity="0.8889" fill="#FF5924" enable-background="new    " d="M-296.374-173.608c1.92-3.523,3.905-7.011,5.954-10.46
			l109.485,65.021c-1.249,2.102-2.458,4.226-3.626,6.371L-296.374-173.608z"/>
	</g>
	<g id="GuidingDirectingandMotivatingSubordinates">
		<path opacity="0.7778" fill="#FF5924" enable-background="new    " d="M-254.054-162.471c1.783-3.002,3.621-5.971,5.514-8.905
			l71.464,46.097c-1.325,2.053-2.611,4.132-3.858,6.232L-254.054-162.471z"/>
	</g>
	<g id="ProvideConsultationandAdvicetoOthers">
		<path opacity="0.7778" fill="#FF5924" enable-background="new    " d="M-248.541-171.376c1.892-2.934,3.839-5.833,5.839-8.695
			l69.711,48.706c-1.398,2.003-2.761,4.032-4.086,6.085L-248.541-171.376z"/>
	</g>
	<g id="TrainingandTeachingOthers">
		<path opacity="0.9444" fill="#FF5924" enable-background="new    " d="M-294.852-216.507c2.449-3.504,4.961-6.963,7.538-10.376
			l118.633,89.588c-1.474,1.95-2.91,3.927-4.31,5.931L-294.852-216.507z"/>
	</g>
	<g id="MentalProcesses-InfoandData">
		<path opacity="0.7778" fill="#FF5421" enable-background="new    " d="M-144.375-118.94c4.988-6.605,10.458-12.833,16.365-18.632
			l56.701,57.76c-3.058,3.003-5.891,6.229-8.475,9.649L-144.375-118.94z"/>
	</g>
	<g id="AnalyzingDataorInformation">
		<path opacity="0.8333" fill="#FF5924" enable-background="new    " d="M-228.169-182.219c2.026-2.683,4.102-5.328,6.226-7.934
			l81.398,66.332c-1.306,1.603-2.584,3.23-3.83,4.881L-228.169-182.219z"/>
	</g>
	<g id="EvaluatingInformationtoDetermineCompliancewithStandards">
		<path opacity="0.7778" fill="#FF5924" enable-background="new    " d="M-205.747-176.955c1.961-2.407,3.967-4.778,6.016-7.11
			l63.195,55.506c-1.366,1.554-2.702,3.133-4.009,4.737L-205.747-176.955z"/>
	</g>
	<g id="JudgingtheQualitiesofThingsServicesorPeople">
		<path opacity="0.7222" fill="#FF5924" enable-background="new    " d="M-184.137-170.368c1.88-2.14,3.8-4.246,5.757-6.316
			l46.023,43.54c-1.421,1.503-2.816,3.032-4.18,4.585L-184.137-170.368z"/>
	</g>
	<g id="ProcessingInformation">
		<path opacity="0.7778" fill="#FF5924" enable-background="new    " d="M-193.457-190.948c2.134-2.255,4.309-4.471,6.524-6.646
			l58.923,60.022c-1.477,1.449-2.925,2.925-4.347,4.428L-193.457-190.948z"/>
	</g>
	<g id="MentalProcesses-ReasoningandDecisions">
		<path opacity="0.8704" fill="#FF5421" enable-background="new    " d="M-151.735-161.739
			c10.654-10.458,22.435-19.703,35.129-27.561l60.437,97.61c-5.47,3.387-10.547,7.371-15.14,11.878L-151.735-161.739z"/>
	</g>
	<g id="DevelopingObjectivesandStrategies">
		<path opacity="0.8889" fill="#FF5924" enable-background="new    " d="M-241.036-252.707c2.895-2.842,5.841-5.629,8.839-8.362
			l85.879,94.205c-1.838,1.675-3.643,3.384-5.417,5.125L-241.036-252.707z"/>
	</g>
	<g id="MakingDecisionsandSolvingProblems">
		<path opacity="0.8889" fill="#FF5924" enable-background="new    " d="M-232.197-261.068c2.997-2.732,6.045-5.41,9.142-8.03
			l82.339,97.315c-1.897,1.605-3.765,3.246-5.602,4.92L-232.197-261.068z"/>
	</g>
	<g id="OrganizingPlanningandPrioritizingWork">
		<path opacity="0.8333" fill="#FF5924" enable-background="new    " d="M-209.344-252.893c2.897-2.452,5.839-4.848,8.824-7.191
			l65.583,83.589c-1.955,1.535-3.882,3.105-5.78,4.711L-209.344-252.893z"/>
	</g>
	<g id="SchedulingWorkandActivities">
		<path opacity="0.7778" fill="#FF5924" enable-background="new    " d="M-187.49-243.478c2.781-2.182,5.602-4.312,8.462-6.39
			l50.044,68.88c-2.012,1.46-3.996,2.959-5.952,4.493L-187.49-243.478z"/>
	</g>
	<g id="ThinkingCreatively">
		<path opacity="0.9444" fill="#FF5924" enable-background="new    " d="M-216.457-301.383c3.494-2.539,7.035-5.012,10.621-7.42
			l82.963,123.545c-2.062,1.386-4.101,2.81-6.111,4.271L-216.457-301.383z"/>
	</g>
	<g id="UpdatingandUsingRelevantKnowledge">
		<path opacity="0.8889" fill="#FF5924" enable-background="new    " d="M-193.938-291.086c3.367-2.262,6.776-4.46,10.225-6.596
			l67.107,108.382c-2.115,1.309-4.203,2.656-6.267,4.042L-193.938-291.086z"/>
	</g>
	<g id="WorkOutput-ComplexandTechnical">
		<path opacity="0.6778" fill="#FF5421" enable-background="new    " d="M-79.83-129.903c6.913-4.28,14.207-7.912,21.789-10.849
			l16.235,41.91c-4.998,1.937-9.806,4.331-14.363,7.152L-79.83-129.903z"/>
	</g>
	<g id="DocumentingRecordingInformation">
		<path opacity="0.7778" fill="#FF5924" enable-background="new    " d="M-123.445-200.345c2.249-1.393,4.524-2.744,6.823-4.053
			l40.984,72.006c-1.413,0.804-2.81,1.633-4.191,2.489L-123.445-200.345z"/>
	</g>
	<g id="DraftingLayingOutandSpecifyingTechnicalDevicesPartsandEquipment">
		<path opacity="0.6111" fill="#FF5924" enable-background="new    " d="M-86.481-151.443c1.646-0.937,3.312-1.844,4.991-2.72
			l10.133,19.439c-1.442,0.751-2.869,1.528-4.281,2.333L-86.481-151.443z"/>
	</g>
	<g id="InteractingWithComputers">
		<path opacity="0.7778" fill="#FF5924" enable-background="new    " d="M-109.652-208.196c2.346-1.223,4.714-2.402,7.104-3.538
			l35.554,74.836c-1.468,0.697-2.922,1.421-4.363,2.173L-109.652-208.196z"/>
	</g>
	<g id="RepairingandMaintainingElectronicEquipment">
		<path opacity="0.6111" fill="#FF5924" enable-background="new    " d="M-76.401-156.697c1.712-0.813,3.438-1.595,5.18-2.344
			l8.668,20.134c-1.492,0.643-2.973,1.313-4.441,2.01L-76.401-156.697z"/>
	</g>
	<g id="RepairingandMaintainingMechanicalEquipment">
		<path opacity="0.6111" fill="#FF5924" enable-background="new    " d="M-71.222-159.041c1.74-0.75,3.494-1.466,5.261-2.151
			l7.919,20.44c-1.516,0.587-3.021,1.202-4.513,1.845L-71.222-159.041z"/>
	</g>
	<g id="WorkOutput-PhysicalandManual">
		<path opacity="0.6944" fill="#FF5421" enable-background="new    " d="M-60.192-146.303c6.336-2.455,12.847-4.438,19.477-5.933
			l11.196,49.652c-4.183,0.942-8.289,2.193-12.286,3.742L-60.192-146.303z"/>
	</g>
	<g id="ControllingMachinesandProcesses">
		<path opacity="0.6111" fill="#FF5924" enable-background="new    " d="M-68.135-166.806c1.836-0.711,3.686-1.389,5.547-2.032
			l7.18,20.783c-1.606,0.555-3.201,1.139-4.784,1.752L-68.135-166.806z"/>
	</g>
	<g id="HandlingandMovingObjects">
		<path opacity="0.7778" fill="#FF5924" enable-background="new    " d="M-82.536-226.576c2.573-0.889,5.163-1.73,7.767-2.523
			l24.207,79.469c-1.625,0.495-3.241,1.02-4.845,1.574L-82.536-226.576z"/>
	</g>
	<g id="OperatingVehiclesMechanizedDevicesorEquipment">
		<path opacity="0.6111" fill="#FF5924" enable-background="new    " d="M-56.97-170.663c1.883-0.574,3.778-1.113,5.681-1.617
			l5.626,21.256c-1.642,0.434-3.275,0.899-4.9,1.394L-56.97-170.663z"/>
	</g>
	<g id="PerformingGeneralPhysicalActivities">
		<path opacity="0.7778" fill="#FF5924" enable-background="new    " d="M-66.917-231.333c2.631-0.696,5.274-1.345,7.93-1.943
			l18.271,81.04c-1.656,0.374-3.306,0.778-4.948,1.212L-66.917-231.333z"/>
	</g>
	<g id="WorkValues">
		<path opacity="0.7559" fill="#E9B104" enable-background="new    " d="M-27.756-94.764c5.697-1.285,11.52-1.933,17.36-1.933
			v68.326c-0.785,0-1.567,0.087-2.333,0.259L-27.756-94.764z"/>
	</g>
	<g id="WorkValues_1_">
		<path opacity="0.7559" fill="#FFC421" enable-background="new    " d="M-43.737-165.638c10.942-2.467,22.125-3.712,33.341-3.712
			v72.653c-5.84,0-11.664,0.648-17.36,1.933L-43.737-165.638z"/>
	</g>
	<g id="Achievement">
		<path opacity="0.7327" fill="#FFDA24" enable-background="new    " d="M-58.427-230.794c2.625-0.591,5.26-1.135,7.905-1.629
			l12.273,65.654c-1.836,0.343-3.666,0.72-5.488,1.131L-58.427-230.794z"/>
	</g>
	<g id="Independence">
		<path opacity="0.8722" fill="#FFDA24" enable-background="new    " d="M-60.112-283.727c3.277-0.613,6.563-1.165,9.86-1.656
			l17.528,117.686c-1.848,0.275-3.69,0.584-5.525,0.928L-60.112-283.727z"/>
	</g>
	<g id="Recognition">
		<path opacity="0.7792" fill="#FFDA24" enable-background="new    " d="M-45.111-250.867c2.872-0.428,5.751-0.802,8.638-1.124
			l9.305,83.572c-1.856,0.207-3.708,0.448-5.555,0.723L-45.111-250.867z"/>
	</g>
	<g id="Relationships">
		<path opacity="0.8257" fill="#FFDA24" enable-background="new    " d="M-38.399-269.284c3.098-0.345,6.204-0.633,9.313-0.863
			l7.496,101.211c-1.862,0.138-3.723,0.311-5.579,0.517L-38.399-269.284z"/>
	</g>
	<g id="Support">
		<path opacity="0.6861" fill="#FFDA24" enable-background="new    " d="M-25.254-218.402c2.472-0.183,4.948-0.32,7.425-0.412
			l1.833,49.568c-1.867,0.069-3.731,0.172-5.593,0.311L-25.254-218.402z"/>
	</g>
	<g id="WorkingConditions">
		<path opacity="0.6396" fill="#FFDA24" enable-background="new    " d="M-17.199-201.751c2.266-0.083,4.534-0.126,6.803-0.126
			v32.527c-1.868,0-3.735,0.035-5.601,0.104L-17.199-201.751z"/>
	</g>
</g>
</svg>
