<?xml version="1.0" encoding="utf-8"?>
<!-- Generator: Adobe Illustrator 16.0.0, SVG Export Plug-In . SVG Version: 6.00 Build 0)  -->
<!DOCTYPE svg PUBLIC "-//W3C//DTD SVG 1.1//EN" "http://www.w3.org/Graphics/SVG/1.1/DTD/svg11.dtd">
<svg version="1.1" id="Layer_1" xmlns="http://www.w3.org/2000/svg" xmlns:xlink="http://www.w3.org/1999/xlink" x="0px" y="0px"
	 width="120.719px" height="40px" viewBox="-43.719 -15.555 120.719 40" enable-background="new -43.719 -15.555 120.719 40"
	 xml:space="preserve">
<path opacity="0.7775" fill="#FFFFFF" enable-background="new    " d="M-26.318,4.104c-0.573,0-1.019-0.453-1.019-1.019
	s0.446-1.024,1.019-1.024l0,0c0.565,0,1.011,0.458,1.011,1.024S-25.752,4.104-26.318,4.104L-26.318,4.104z"/>
<path opacity="0.7559" fill="#488C13" enable-background="new    " d="M-26.318-4.512c0.565,0,1.125,0.056,1.668,0.184l-1.449,6.417
	c-0.071-0.021-0.148-0.028-0.22-0.028V-4.512L-26.318-4.512z"/>
<path opacity="0.7559" fill="#509B21" enable-background="new    " d="M-26.318-11.51c1.074,0,2.156,0.12,3.208,0.354l-1.54,6.829
	c-0.544-0.127-1.103-0.184-1.668-0.184V-11.51z"/>
<path opacity="0.7714" fill="#1B55C0" enable-background="new    " d="M-24.536-4.831c3.541,0.799,6.114,3.846,6.326,7.471
	l-7.097,0.396c-0.021-0.459-0.339-0.841-0.791-0.947L-24.536-4.831z"/>
<path opacity="0.8333" fill="#215ED5" enable-background="new    " d="M-22.395-14.322c1.287,0.289,2.544,0.721,3.732,1.286
	l-4.178,8.794c-0.537-0.255-1.102-0.461-1.696-0.588L-22.395-14.322z"/>
<path opacity="0.875" fill="#215ED5" enable-background="new    " d="M-18.033-14.365c0.861,0.41,1.688,0.876,2.48,1.407
	l-6.241,9.308c-0.332-0.225-0.678-0.424-1.046-0.592L-18.033-14.365z"/>
<path opacity="0.8889" fill="#215ED5" enable-background="new    " d="M-15.27-13.361c0.205,0.134,0.396,0.282,0.594,0.417
	l-6.864,9.464c-0.092-0.057-0.176-0.12-0.255-0.17L-15.27-13.361z"/>
<path opacity="0.7083" fill="#215ED5" enable-background="new    " d="M-18.394-7.828c0.544,0.395,1.053,0.82,1.519,1.286
	l-3.76,3.832c-0.275-0.276-0.586-0.538-0.904-0.771L-18.394-7.828z"/>
<path opacity="0.8796" fill="#215ED5" enable-background="new    " d="M-12.67-10.818c1.026,1.012,1.944,2.128,2.722,3.344
	l-9.549,6.163c-0.325-0.509-0.707-0.975-1.138-1.398L-12.67-10.818z"/>
<path opacity="0.7963" fill="#215ED5" enable-background="new    " d="M-12.408-5.884c0.325,0.516,0.629,1.046,0.898,1.59
	l-7.549,3.769c-0.134-0.276-0.283-0.538-0.438-0.786L-12.408-5.884z"/>
<path opacity="0.6465" fill="#215ED5" enable-background="new    " d="M-16.146-1.975c0.692,1.385,1.088,2.884,1.18,4.432
	L-18.21,2.64c-0.063-1.102-0.354-2.176-0.849-3.166L-16.146-1.975z"/>
<path opacity="0.8094" fill="#482355" enable-background="new    " d="M-16.945,2.563c0.283,5.188-3.683,9.606-8.864,9.894
	c-0.968,0.058-1.957-0.027-2.913-0.303l2.143-8.079c0.544,0.148,1.102-0.177,1.251-0.728c0.014-0.1,0.021-0.205,0.021-0.312
	L-16.945,2.563z"/>
<path opacity="0.6944" fill="#502658" enable-background="new    " d="M-12.026,2.295c0.022,0.352,0.029,0.706,0.022,1.06
	l-4.935-0.099c0-0.22,0-0.452-0.007-0.693L-12.026,2.295z"/>
<path opacity="0.6667" fill="#592A6C" enable-background="new    " d="M-7.947,2.068c0.021,0.227,0.028,0.452,0.028,0.679
	l-4.084,0.078c0-0.177-0.009-0.361-0.022-0.529L-7.947,2.068z"/>
<path opacity="0.7222" fill="#592A6C" enable-background="new    " d="M-5.94,2.71c0,0.248,0,0.502,0,0.757l-6.063-0.113
	c0-0.177,0-0.354,0-0.53L-5.94,2.71z"/>
<path opacity="0.8651" fill="#502658" enable-background="new    " d="M-6.004,3.468C-6.039,5.22-6.301,6.967-6.774,8.648
	l-10.525-2.99c0.227-0.777,0.348-1.59,0.361-2.402L-6.004,3.468z"/>
<path opacity="0.7222" fill="#502658" enable-background="new    " d="M-11.616,7.272c-0.057,0.183-0.113,0.358-0.163,0.541
	l-5.619-1.829c0.042-0.107,0.077-0.213,0.098-0.326L-11.616,7.272z"/>
<path opacity="0.8148" fill="#502658" enable-background="new    " d="M-8.697,8.816c-0.206,0.65-0.453,1.288-0.735,1.925
	l-8.341-3.782c0.142-0.319,0.269-0.643,0.375-0.975L-8.697,8.816z"/>
<path opacity="0.75" fill="#502658" enable-background="new    " d="M-11.517,9.794c-0.156,0.366-0.332,0.721-0.53,1.074
	l-6.029-3.295c0.106-0.198,0.211-0.401,0.303-0.614L-11.517,9.794z"/>
<path opacity="0.8611" fill="#502658" enable-background="new    " d="M-8.605,12.74c-0.233,0.424-0.487,0.878-0.756,1.272
	l-9.069-5.832c0.12-0.195,0.233-0.395,0.354-0.607L-8.605,12.74z"/>
<path opacity="0.8472" fill="#502658" enable-background="new    " d="M-9.785,13.76c-0.517,0.818-1.11,1.58-1.747,2.318
	l-7.731-6.801c0.303-0.338,0.572-0.722,0.833-1.097L-9.785,13.76z"/>
<path opacity="0.8333" fill="#502658" enable-background="new    " d="M-11.905,15.738c-0.623,0.733-1.294,1.384-2.015,1.978
	l-6.333-7.471c0.346-0.283,0.677-0.606,0.99-0.968L-11.905,15.738z"/>
<path opacity="0.9074" fill="#502658" enable-background="new    " d="M-12.224,19.745c-0.608,0.536-1.259,1.018-1.923,1.472
	l-6.933-10.335c0.282-0.198,0.566-0.408,0.827-0.637L-12.224,19.745z"/>
<path opacity="0.9074" fill="#502658" enable-background="new    " d="M-14.147,21.217c-0.671,0.424-1.363,0.846-2.077,1.213
	l-5.761-11.026c0.304-0.154,0.608-0.323,0.905-0.521L-14.147,21.217z"/>
<path opacity="0.7639" fill="#502658" enable-background="new    " d="M-18.586,17.914c-0.728,0.397-1.49,0.734-2.261,0.99
	l-2.403-6.948c0.431-0.154,0.855-0.326,1.265-0.553L-18.586,17.914z"/>
<path opacity="0.6944" fill="#502658" enable-background="new    " d="M-21.639,16.614c-0.671,0.226-1.363,0.424-2.057,0.565
	l-0.905-4.87c0.459-0.07,0.905-0.198,1.35-0.354L-21.639,16.614z"/>
<path opacity="0.8667" fill="#502658" enable-background="new    " d="M-22.579,23.109c-1.229,0.227-2.481,0.341-3.739,0.341V12.486
	c0.572,0,1.153-0.057,1.718-0.177L-22.579,23.109z"/>
<path opacity="0.7302" fill="#502658" enable-background="new    " d="M-26.318,18.648c-1.342,0-2.686-0.169-3.987-0.508
	l1.583-5.986c0.778,0.218,1.591,0.332,2.404,0.332V18.648z"/>
<path opacity="0.7384" fill="#CC080E" enable-background="new    " d="M-28.113,9.87c-2.672-0.699-4.679-2.903-5.125-5.625
	l5.91-0.99c0.07,0.396,0.36,0.713,0.749,0.819L-28.113,9.87z"/>
<path opacity="0.8111" fill="#CE2121" enable-background="new    " d="M-30.388,18.45c-0.955-0.226-1.874-0.593-2.764-0.987
	l3.817-8.045c0.396,0.198,0.797,0.348,1.223,0.452L-30.388,18.45z"/>
<path opacity="0.7889" fill="#CE2121" enable-background="new    " d="M-32.812,16.755c-0.842-0.396-1.647-0.876-2.396-1.415
	l4.757-6.563c0.353,0.238,0.728,0.465,1.117,0.642L-32.812,16.755z"/>
<path opacity="0.7222" fill="#CE2121" enable-background="new    " d="M-33.859,13.475c-0.262-0.195-0.502-0.395-0.75-0.594
	l3.746-4.432c0.134,0.106,0.269,0.221,0.41,0.327L-33.859,13.475z"/>
<path opacity="0.7889" fill="#CE2121" enable-background="new    " d="M-34.907,13.21c-0.19-0.171-0.179-0.13-0.37-0.325
	l4.224-4.604c0.07,0.049,0.127,0.105,0.19,0.168L-34.907,13.21z"/>
<path opacity="0.6778" fill="#CE2121" enable-background="new    " d="M-33.944,11.447c-0.51-0.468-0.976-0.989-1.401-1.548
	l3.422-2.581c0.254,0.349,0.551,0.667,0.87,0.963L-33.944,11.447z"/>
<path opacity="0.6667" fill="#CE2121" enable-background="new    " d="M-35.039,9.674c-0.164-0.212-0.312-0.433-0.46-0.659
	l3.28-2.118c0.084,0.14,0.197,0.282,0.297,0.422L-35.039,9.674z"/>
<path opacity="0.6667" fill="#CE2121" enable-background="new    " d="M-35.5,9.015c-0.077-0.113-0.148-0.233-0.226-0.345
	l3.365-1.994c0.05,0.071,0.092,0.15,0.142,0.221L-35.5,9.015z"/>
<path opacity="0.6389" fill="#CE2121" enable-background="new    " d="M-34.913,8.188c-0.126-0.203-0.233-0.433-0.354-0.655
	l2.666-1.317c0.07,0.158,0.155,0.312,0.24,0.46L-34.913,8.188z"/>
<path opacity="0.746" fill="#CE2121" enable-background="new    " d="M-38.539,9.18C-39.062,8.117-39.45,7-39.69,5.843l6.495-1.337
	c0.121,0.595,0.318,1.167,0.595,1.71L-38.539,9.18z"/>
<path opacity="0.6111" fill="#CE2121" enable-background="new    " d="M-35.181,4.917c-0.028-0.114-0.056-0.219-0.063-0.326
	l2.007-0.345c0.007,0.092,0.021,0.176,0.042,0.26L-35.181,4.917z"/>
<path opacity="0.7791" fill="#FB430F" enable-background="new    " d="M-34.58,4.471c-0.736-4.382,2.078-8.574,6.417-9.555
	l1.619,7.173c-0.523,0.121-0.875,0.63-0.784,1.167L-34.58,4.471z"/>
<path opacity="0.7222" fill="#FF5421" enable-background="new    " d="M-40.355,5.447c-0.155-0.863-0.219-1.748-0.197-2.623
	l5.866,0.113c-0.021,0.509,0.015,1.024,0.107,1.533L-40.355,5.447z"/>
<path opacity="0.7407" fill="#FF5421" enable-background="new    " d="M-41.196,2.811c0.014-0.552,0.05-1.089,0.12-1.641
	l6.453,0.841c-0.048,0.304-0.063,0.607-0.063,0.926L-41.196,2.811z"/>
<path opacity="0.8056" fill="#FF5421" enable-background="new    " d="M-43.316,0.874c0.211-1.675,0.685-3.307,1.378-4.856
	l7.987,3.612c-0.339,0.756-0.566,1.562-0.673,2.382L-43.316,0.874z"/>
<path opacity="0.8611" fill="#FF5421" enable-background="new    " d="M-43.719-4.789c0.58-1.293,1.301-2.508,2.148-3.633
	l8.565,6.46c-0.367,0.495-0.692,1.025-0.946,1.59L-43.719-4.789z"/>
<path opacity="0.7778" fill="#FF5421" enable-background="new    " d="M-39.224-6.654c0.48-0.643,1.011-1.237,1.577-1.802
	l5.464,5.57c-0.297,0.289-0.573,0.594-0.821,0.925L-39.224-6.654z"/>
<path opacity="0.8704" fill="#FF5421" enable-background="new    " d="M-39.93-10.775c1.025-1.011,2.154-1.902,3.378-2.658
	l5.824,9.401c-0.53,0.325-1.018,0.713-1.455,1.146L-39.93-10.775z"/>
<path opacity="0.6778" fill="#FF5421" enable-background="new    " d="M-33.005-7.708c0.658-0.417,1.365-0.771,2.093-1.053
	l1.569,4.036c-0.488,0.19-0.954,0.417-1.386,0.692L-33.005-7.708z"/>
<path opacity="0.6944" fill="#FF5421" enable-background="new    " d="M-31.118-9.291c0.602-0.232,1.238-0.423,1.881-0.572
	l1.074,4.778c-0.41,0.092-0.792,0.219-1.18,0.36L-31.118-9.291z"/>
<path opacity="0.7559" fill="#E9B104" enable-background="new    " d="M-27.992-4.328c0.544-0.127,1.116-0.184,1.674-0.184v6.573
	c-0.078,0-0.155,0.007-0.226,0.028L-27.992-4.328z"/>
<path opacity="0.7559" fill="#FFC421" enable-background="new    " d="M-29.534-11.157c1.053-0.233,2.135-0.354,3.216-0.354v6.999
	c-0.558,0-1.13,0.056-1.674,0.184L-29.534-11.157z"/>
<path opacity="0.8611" fill="#FFFFFF" enable-background="new    " d="M-24.273-0.486v-1.345c-0.442-0.189-0.988-0.283-1.635-0.283
	c-0.691,0-1.331,0.133-1.931,0.399c-0.597,0.259-1.129,0.627-1.581,1.097c-0.456,0.469-0.816,1.007-1.075,1.629
	c-0.259,0.621-0.393,1.272-0.393,1.964c0,0.691,0.134,1.349,0.393,1.962c0.259,0.624,0.612,1.16,1.07,1.618
	c0.456,0.449,0.982,0.811,1.585,1.078c0.595,0.265,1.239,0.398,1.931,0.398c0.894,0,1.832-0.287,2.815-0.862l1.35,1.972
	c-0.812,0.471-1.528,0.785-2.163,0.989c-0.626,0.177-1.299,0.279-2.002,0.279c-1.026,0-1.99-0.204-2.895-0.585
	c-0.902-0.392-1.686-0.923-2.358-1.598c-0.672-0.67-1.205-1.456-1.59-2.359C-33.14,4.968-33.335,4-33.335,2.975
	c0-1.022,0.196-1.99,0.584-2.896c0.385-0.915,0.917-1.699,1.59-2.372c0.673-0.671,1.457-1.203,2.358-1.6
	c0.905-0.395,1.869-0.591,2.895-0.591c0.703,0,1.375,0.089,2.002,0.266c0.635,0.184,1.301,0.475,1.998,0.888v2.844H-24.273z
	 M-21.321,2.054h3.745V7.05c0.022,0.252,0.108,0.469,0.273,0.646c0.158,0.178,0.431,0.276,0.812,0.297
	c0.278,0,0.551-0.054,0.809-0.152c0.261-0.102,0.49-0.234,0.687-0.412c0.201-0.177,0.359-0.379,0.474-0.62
	c0.121-0.235,0.178-0.487,0.178-0.769V4.426h-1.292V2.054h3.746V8.05h1.215v2.194h-3.669V8.822l0.471-0.875
	c-0.046,0.812-0.395,1.422-1.047,1.85c-0.653,0.408-1.368,0.622-2.155,0.622c-0.88,0-1.583-0.241-2.109-0.722
	c-0.527-0.481-0.804-1.102-0.836-1.877V4.426h-1.301V2.054z M-10.09,7.874h1.496V-2.944h-1.299v-2.37h3.746V7.874h1.239v2.37h-5.183
	V7.874z M-2.683-2.735h2.446v4.789H1.69v2.408h-1.927v3.412h1.471v2.37h-3.917V4.462h-1.654V2.054h1.654V-2.735z M2.274,7.874h1.368
	V4.426H2.274V2.054H6.1v5.82h1.346v2.37H2.274V7.874z M3.466-0.384c0-0.419,0.15-0.768,0.43-1.041
	C4.201-1.698,4.53-1.836,4.909-1.836c0.356,0,0.66,0.138,0.962,0.412c0.281,0.273,0.433,0.622,0.433,1.041
	c0,0.423-0.151,0.767-0.433,1.033C5.569,0.914,5.265,1.048,4.909,1.048c-0.379,0-0.708-0.134-1.013-0.398
	C3.616,0.383,3.466,0.04,3.466-0.384z M8.027,2.054h5.17v2.372H12.49c0.101,0.169,0.305,0.551,0.634,1.14
	c0.33,0.59,0.456,0.78,0.378,0.562c-0.075,0.218,0.053,0.035,0.382-0.562c0.305-0.589,0.507-0.97,0.607-1.14H13.63V2.054h5.325
	v2.372h-1.802c-0.479,0.919-1.012,1.896-1.596,2.935c-0.559,1.03-1.24,2.288-2.056,3.781c-0.809-1.493-1.495-2.751-2.077-3.796
	c-0.557-1.037-1.09-2.015-1.597-2.92H8.027V2.054z M19.535,6.163c0-0.572,0.103-1.117,0.329-1.635
	c0.229-0.521,0.533-0.977,0.941-1.371c0.38-0.386,0.836-0.696,1.369-0.931c0.531-0.228,1.112-0.349,1.722-0.349
	c0.407,0,0.76,0.065,1.115,0.177c0.329,0.116,0.608,0.242,0.86,0.382c0.257,0.139,0.458,0.292,0.659,0.463
	c0.179,0.165,0.126,0.33-0.126,0.493c-0.276-0.172-0.407-0.336-0.377-0.488c0.024-0.158,0.048-0.443,0.048-0.85h2.154v5.82h1.497
	v2.37h-3.752V9.445l0.43-0.395c0.204,0.191,0.252,0.367,0.078,0.496c-0.153,0.15-0.354,0.277-0.586,0.404
	c-0.252,0.127-0.533,0.227-0.886,0.328c-0.328,0.103-0.683,0.14-1.115,0.14c-0.609,0-1.19-0.112-1.722-0.341
	c-0.533-0.217-0.989-0.531-1.369-0.912c-0.408-0.395-0.712-0.85-0.941-1.363C19.638,7.289,19.535,6.746,19.535,6.163z M21.994,6.143
	c0,0.531,0.181,0.974,0.533,1.33c0.354,0.363,0.812,0.539,1.369,0.539c0.559,0,1.012-0.176,1.371-0.539
	c0.353-0.356,0.529-0.799,0.529-1.33c0-0.544-0.177-0.988-0.529-1.331c-0.332-0.35-0.787-0.519-1.371-0.519s-1.04,0.169-1.369,0.519
	C22.175,5.154,21.994,5.599,21.994,6.143z M31.958-2.735h2.461v4.789h1.923v2.408h-1.923v3.412h1.465v2.37h-3.926V4.462H30.31V2.054
	h1.648V-2.735z M41.26,4.292c-0.556,0-1.012,0.158-1.342,0.488c-0.356,0.321-0.533,0.523-0.533,0.613
	c0.229-0.09,0.659-0.24,1.269-0.474c0.606-0.229,1.037-0.389,1.294-0.485c0.101,0.117,0.048,0.123-0.131,0.015
	C41.643,4.342,41.462,4.292,41.26,4.292z M45.191,5.805c-1.117,0.414-2.106,0.787-2.992,1.11c-0.887,0.328-1.599,0.596-2.155,0.799
	c-0.053-0.07,0.049-0.039,0.305,0.094c0.277,0.132,0.557,0.204,0.911,0.204c0.483,0,0.987-0.277,1.495-0.837l1.546,1.812
	c-0.529,0.545-1.037,0.911-1.521,1.13c-0.456,0.2-0.964,0.302-1.521,0.302c-0.606,0-1.167-0.112-1.698-0.341
	c-0.534-0.217-0.989-0.531-1.395-0.912c-0.378-0.395-0.685-0.85-0.911-1.363s-0.33-1.065-0.33-1.66c0-0.582,0.104-1.136,0.33-1.654
	c0.227-0.526,0.533-0.977,0.911-1.363c0.405-0.379,0.86-0.684,1.395-0.907c0.531-0.227,1.092-0.341,1.698-0.341
	c0.456,0,0.914,0.097,1.316,0.279c0.433,0.19,0.813,0.438,1.143,0.76c0.305,0.319,0.609,0.693,0.838,1.129
	C44.809,4.475,45.013,5.065,45.191,5.805z M61.589-4.325h2.813v2.361h-1.694v9.838h1.694v2.37H58.83v-2.37h1.417V0.573
	c0.025-0.116,0.025-0.223,0.025-0.322c0.022-0.109-0.025,0.303-0.151,1.235c0.506-0.709,0.707-0.99,0.606-0.831
	c-0.101,0.16-0.203,0.311-0.304,0.458c-0.786,1.121-1.624,2.217-2.484,3.281c-0.863,1.07-1.798,2.293-2.837,3.664L49.5,0.737
	L49.475-0.03c0.277,0.077,0.431,0.172,0.431,0.274c0,0.106,0.025,0.213,0.025,0.329v7.301h1.419v2.37h-5.577v-2.37h1.725v-9.838
	h-1.725v-2.361h2.812c1.221,1.559,2.384,3.058,3.476,4.505c1.115,1.45,2.127,2.762,3.043,3.935c0.911-1.172,1.926-2.484,3.016-3.935
	C59.232-1.267,60.398-2.766,61.589-4.325z M69.346,4.292c-0.557,0-1.012,0.158-1.342,0.488c-0.327,0.321-0.508,0.523-0.508,0.613
	c0.229-0.09,0.634-0.24,1.243-0.474c0.606-0.229,1.037-0.389,1.293-0.485c0.101,0.117,0.049,0.123-0.126,0.015
	C69.728,4.342,69.55,4.292,69.346,4.292z M73.302,5.805c-1.115,0.414-2.132,0.787-3.018,1.11C69.4,7.243,68.688,7.511,68.13,7.714
	c-0.048-0.07,0.048-0.039,0.305,0.094c0.277,0.132,0.581,0.204,0.911,0.204c0.483,0,0.991-0.277,1.521-0.837l1.55,1.812
	c-0.559,0.545-1.067,0.911-1.521,1.13c-0.483,0.2-0.989,0.302-1.55,0.302c-0.606,0-1.168-0.112-1.694-0.341
	c-0.533-0.217-0.993-0.531-1.371-0.912c-0.405-0.395-0.71-0.85-0.939-1.363c-0.227-0.514-0.329-1.065-0.329-1.66
	c0-0.582,0.103-1.136,0.329-1.654c0.229-0.526,0.534-0.977,0.939-1.363c0.378-0.379,0.838-0.684,1.371-0.907
	c0.526-0.227,1.088-0.341,1.694-0.341c0.46,0,0.913,0.097,1.346,0.279c0.405,0.19,0.786,0.438,1.113,0.76
	c0.329,0.319,0.611,0.693,0.863,1.129C72.895,4.475,73.099,5.065,73.302,5.805z"/>
</svg>
