<?xml version="1.0" encoding="utf-8"?>
<!-- Generator: Adobe Illustrator 16.0.0, SVG Export Plug-In . SVG Version: 6.00 Build 0)  -->
<!DOCTYPE svg PUBLIC "-//W3C//DTD SVG 1.1//EN" "http://www.w3.org/Graphics/SVG/1.1/DTD/svg11.dtd">
<svg version="1.1" id="Layer_1" xmlns="http://www.w3.org/2000/svg" xmlns:xlink="http://www.w3.org/1999/xlink" x="0px" y="0px"
	 width="138.5px" height="42px" viewBox="0 0 138.5 42" enable-background="new 0 0 138.5 42" xml:space="preserve">
<path opacity="0.7775" fill="#FFFFFF" enable-background="new    " d="M18.432,20.021c-0.573,0-1.019-0.453-1.019-1.019
	s0.446-1.024,1.019-1.024l0,0c0.565,0,1.011,0.458,1.011,1.024S18.998,20.021,18.432,20.021L18.432,20.021z"/>
<path opacity="0.7559" fill="#488C13" enable-background="new    " d="M18.432,11.404c0.565,0,1.125,0.056,1.668,0.184l-1.449,6.417
	c-0.071-0.021-0.148-0.028-0.22-0.028L18.432,11.404L18.432,11.404z"/>
<path opacity="0.7559" fill="#509B21" enable-background="new    " d="M18.432,4.407c1.074,0,2.156,0.12,3.208,0.354L20.1,11.59
	c-0.544-0.127-1.103-0.184-1.668-0.184V4.407z"/>
<path opacity="0.7714" fill="#1B55C0" enable-background="new    " d="M20.214,11.085c3.541,0.799,6.114,3.846,6.326,7.471
	l-7.097,0.396c-0.021-0.459-0.339-0.841-0.791-0.947L20.214,11.085z"/>
<path opacity="0.8333" fill="#215ED5" enable-background="new    " d="M22.355,1.595c1.287,0.289,2.544,0.721,3.732,1.286
	l-4.178,8.794c-0.537-0.255-1.102-0.461-1.696-0.588L22.355,1.595z"/>
<path opacity="0.875" fill="#215ED5" enable-background="new    " d="M26.717,1.551c0.861,0.41,1.688,0.876,2.48,1.407l-6.241,9.308
	c-0.332-0.225-0.678-0.424-1.046-0.592L26.717,1.551z"/>
<path opacity="0.8889" fill="#215ED5" enable-background="new    " d="M29.48,2.556c0.205,0.134,0.396,0.282,0.594,0.417
	l-6.864,9.464c-0.092-0.057-0.176-0.12-0.255-0.17L29.48,2.556z"/>
<path opacity="0.7083" fill="#215ED5" enable-background="new    " d="M26.356,8.088c0.544,0.395,1.053,0.82,1.519,1.286
	l-3.76,3.832c-0.275-0.276-0.586-0.538-0.904-0.771L26.356,8.088z"/>
<path opacity="0.8796" fill="#215ED5" enable-background="new    " d="M32.08,5.099c1.026,1.012,1.944,2.128,2.722,3.344
	l-9.549,6.163c-0.325-0.509-0.707-0.975-1.138-1.398L32.08,5.099z"/>
<path opacity="0.7963" fill="#215ED5" enable-background="new    " d="M32.342,10.033c0.325,0.516,0.629,1.046,0.898,1.59
	l-7.549,3.769c-0.134-0.276-0.283-0.538-0.438-0.786L32.342,10.033z"/>
<path opacity="0.6465" fill="#215ED5" enable-background="new    " d="M28.604,13.941c0.692,1.385,1.088,2.884,1.18,4.432
	l-3.244,0.183c-0.063-1.102-0.354-2.176-0.849-3.166L28.604,13.941z"/>
<path opacity="0.8094" fill="#482355" enable-background="new    " d="M27.805,18.479c0.283,5.188-3.683,9.606-8.864,9.894
	c-0.968,0.059-1.957-0.027-2.913-0.303l2.143-8.079c0.544,0.148,1.102-0.177,1.251-0.728c0.014-0.1,0.021-0.205,0.021-0.312
	L27.805,18.479z"/>
<path opacity="0.6944" fill="#502658" enable-background="new    " d="M32.724,18.211c0.022,0.352,0.029,0.706,0.022,1.06
	l-4.935-0.099c0-0.22,0-0.452-0.007-0.693L32.724,18.211z"/>
<path opacity="0.6667" fill="#592A6C" enable-background="new    " d="M36.803,17.984c0.021,0.227,0.028,0.452,0.028,0.679
	l-4.084,0.078c0-0.177-0.009-0.361-0.022-0.529L36.803,17.984z"/>
<path opacity="0.7222" fill="#592A6C" enable-background="new    " d="M38.81,18.626c0,0.248,0,0.502,0,0.757l-6.063-0.113
	c0-0.177,0-0.354,0-0.53L38.81,18.626z"/>
<path opacity="0.8651" fill="#502658" enable-background="new    " d="M38.746,19.384c-0.035,1.753-0.297,3.499-0.77,5.181
	l-10.525-2.988c0.227-0.777,0.348-1.59,0.361-2.402L38.746,19.384z"/>
<path opacity="0.7222" fill="#502658" enable-background="new    " d="M33.134,23.188c-0.057,0.186-0.113,0.358-0.163,0.541
	L27.352,21.9c0.042-0.106,0.077-0.213,0.098-0.325L33.134,23.188z"/>
<path opacity="0.8148" fill="#502658" enable-background="new    " d="M36.053,24.732c-0.206,0.648-0.453,1.287-0.735,1.926
	l-8.341-3.782c0.142-0.317,0.269-0.644,0.375-0.976L36.053,24.732z"/>
<path opacity="0.75" fill="#502658" enable-background="new    " d="M33.233,25.71c-0.156,0.366-0.332,0.722-0.53,1.074
	l-6.029-3.295c0.106-0.198,0.211-0.401,0.303-0.614L33.233,25.71z"/>
<path opacity="0.8611" fill="#502658" enable-background="new    " d="M36.145,28.657c-0.233,0.424-0.487,0.878-0.756,1.271
	l-9.069-5.832c0.12-0.195,0.233-0.395,0.354-0.604L36.145,28.657z"/>
<path opacity="0.8472" fill="#502658" enable-background="new    " d="M34.965,29.676c-0.517,0.818-1.11,1.58-1.747,2.318
	l-7.731-6.801c0.303-0.338,0.572-0.723,0.833-1.098L34.965,29.676z"/>
<path opacity="0.8333" fill="#502658" enable-background="new    " d="M32.845,31.654c-0.623,0.731-1.294,1.385-2.015,1.979
	l-6.333-7.471c0.346-0.283,0.677-0.605,0.99-0.969L32.845,31.654z"/>
<path opacity="0.9074" fill="#502658" enable-background="new    " d="M32.526,35.662c-0.608,0.536-1.259,1.02-1.923,1.472
	L23.67,26.798c0.282-0.198,0.566-0.407,0.827-0.637L32.526,35.662z"/>
<path opacity="0.9074" fill="#502658" enable-background="new    " d="M30.603,37.133c-0.671,0.424-1.363,0.846-2.077,1.213
	L22.765,27.32c0.304-0.153,0.608-0.322,0.905-0.521L30.603,37.133z"/>
<path opacity="0.7639" fill="#502658" enable-background="new    " d="M26.164,33.831c-0.728,0.396-1.49,0.733-2.261,0.989
	L21.5,27.873c0.431-0.154,0.855-0.326,1.265-0.555L26.164,33.831z"/>
<path opacity="0.6944" fill="#502658" enable-background="new    " d="M23.111,32.531c-0.671,0.226-1.363,0.424-2.057,0.564
	l-0.905-4.871c0.459-0.068,0.905-0.197,1.35-0.354L23.111,32.531z"/>
<path opacity="0.8667" fill="#502658" enable-background="new    " d="M22.171,39.025c-1.229,0.228-2.481,0.342-3.739,0.342V28.402
	c0.572,0,1.153-0.057,1.718-0.178L22.171,39.025z"/>
<path opacity="0.7302" fill="#502658" enable-background="new    " d="M18.432,34.564c-1.342,0-2.686-0.17-3.987-0.508l1.583-5.986
	c0.778,0.219,1.591,0.332,2.404,0.332V34.564z"/>
<path opacity="0.7384" fill="#CC080E" enable-background="new    " d="M16.637,25.787c-2.672-0.699-4.679-2.903-5.125-5.625
	l5.91-0.99c0.07,0.396,0.36,0.713,0.749,0.819L16.637,25.787z"/>
<path opacity="0.8111" fill="#CE2121" enable-background="new    " d="M14.362,34.367c-0.955-0.227-1.874-0.594-2.764-0.987
	l3.817-8.045c0.396,0.198,0.797,0.349,1.223,0.452L14.362,34.367z"/>
<path opacity="0.7889" fill="#CE2121" enable-background="new    " d="M11.938,32.671c-0.842-0.396-1.647-0.876-2.396-1.415
	l4.757-6.562c0.353,0.238,0.728,0.467,1.117,0.644L11.938,32.671z"/>
<path opacity="0.7222" fill="#CE2121" enable-background="new    " d="M10.891,29.391c-0.262-0.195-0.502-0.395-0.75-0.594
	l3.746-4.432c0.134,0.105,0.269,0.221,0.41,0.326L10.891,29.391z"/>
<path opacity="0.7889" fill="#CE2121" enable-background="new    " d="M9.843,29.126c-0.19-0.171-0.179-0.13-0.37-0.325l4.224-4.604
	c0.07,0.049,0.127,0.104,0.19,0.168L9.843,29.126z"/>
<path opacity="0.6778" fill="#CE2121" enable-background="new    " d="M10.806,27.364c-0.51-0.47-0.976-0.989-1.401-1.55l3.422-2.58
	c0.254,0.35,0.551,0.666,0.87,0.964L10.806,27.364z"/>
<path opacity="0.6667" fill="#CE2121" enable-background="new    " d="M9.711,25.59c-0.164-0.212-0.312-0.433-0.46-0.658l3.28-2.119
	c0.084,0.143,0.197,0.283,0.297,0.422L9.711,25.59z"/>
<path opacity="0.6667" fill="#CE2121" enable-background="new    " d="M9.25,24.932c-0.077-0.113-0.148-0.231-0.226-0.346
	l3.365-1.994c0.05,0.071,0.092,0.15,0.142,0.221L9.25,24.932z"/>
<path opacity="0.6389" fill="#CE2121" enable-background="new    " d="M9.837,24.104c-0.126-0.203-0.233-0.433-0.354-0.652
	l2.666-1.317c0.07,0.158,0.155,0.312,0.24,0.46L9.837,24.104z"/>
<path opacity="0.746" fill="#CE2121" enable-background="new    " d="M6.211,25.096c-0.523-1.062-0.911-2.18-1.151-3.337
	l6.495-1.337c0.121,0.596,0.318,1.167,0.595,1.71L6.211,25.096z"/>
<path opacity="0.6111" fill="#CE2121" enable-background="new    " d="M9.569,20.833c-0.028-0.114-0.056-0.219-0.063-0.326
	l2.007-0.345c0.007,0.092,0.021,0.176,0.042,0.26L9.569,20.833z"/>
<path opacity="0.7791" fill="#FB430F" enable-background="new    " d="M10.17,20.388c-0.736-4.382,2.078-8.574,6.417-9.555
	l1.619,7.173c-0.523,0.121-0.875,0.63-0.784,1.167L10.17,20.388z"/>
<path opacity="0.7222" fill="#FF5421" enable-background="new    " d="M4.395,21.364C4.24,20.5,4.176,19.616,4.198,18.741
	l5.866,0.113c-0.021,0.509,0.015,1.024,0.107,1.533L4.395,21.364z"/>
<path opacity="0.7407" fill="#FF5421" enable-background="new    " d="M3.554,18.728c0.014-0.552,0.05-1.089,0.12-1.641l6.453,0.841
	c-0.048,0.304-0.063,0.607-0.063,0.926L3.554,18.728z"/>
<path opacity="0.8056" fill="#FF5421" enable-background="new    " d="M1.434,16.791c0.211-1.675,0.685-3.307,1.378-4.856
	l7.987,3.612c-0.339,0.756-0.566,1.562-0.673,2.382L1.434,16.791z"/>
<path opacity="0.8611" fill="#FF5421" enable-background="new    " d="M1.031,11.127c0.58-1.293,1.301-2.508,2.148-3.633l8.565,6.46
	c-0.367,0.495-0.692,1.025-0.946,1.59L1.031,11.127z"/>
<path opacity="0.7778" fill="#FF5421" enable-background="new    " d="M5.526,9.263c0.48-0.643,1.011-1.237,1.577-1.802l5.464,5.57
	c-0.297,0.289-0.573,0.594-0.821,0.925L5.526,9.263z"/>
<path opacity="0.8704" fill="#FF5421" enable-background="new    " d="M4.82,5.142C5.845,4.131,6.974,3.24,8.198,2.484l5.824,9.401
	c-0.53,0.325-1.018,0.713-1.455,1.146L4.82,5.142z"/>
<path opacity="0.6778" fill="#FF5421" enable-background="new    " d="M11.745,8.208c0.658-0.417,1.365-0.771,2.093-1.053
	l1.569,4.036c-0.488,0.19-0.954,0.417-1.386,0.692L11.745,8.208z"/>
<path opacity="0.6944" fill="#FF5421" enable-background="new    " d="M13.632,6.625c0.602-0.232,1.238-0.423,1.881-0.572
	l1.074,4.778c-0.41,0.092-0.792,0.219-1.18,0.36L13.632,6.625z"/>
<path opacity="0.7559" fill="#E9B104" enable-background="new    " d="M16.758,11.588c0.544-0.127,1.116-0.184,1.674-0.184v6.573
	c-0.078,0-0.155,0.007-0.226,0.028L16.758,11.588z"/>
<path opacity="0.7559" fill="#FFC421" enable-background="new    " d="M15.216,4.759c1.053-0.233,2.135-0.354,3.216-0.354v6.999
	c-0.558,0-1.13,0.056-1.674,0.184L15.216,4.759z"/>
<text transform="matrix(1 0 0 1 10.792 61.6543)" opacity="0.7559" enable-background="new    " font-family="'Raleway-Thin'" font-size="20.9525">CultivateMe</text>
<path opacity="0.7559" enable-background="new    " d="M20.352,15.889v-1.345c-0.442-0.189-0.988-0.283-1.635-0.283
	c-0.691,0-1.331,0.133-1.931,0.399c-0.597,0.259-1.129,0.627-1.581,1.097c-0.456,0.469-0.816,1.007-1.075,1.629
	c-0.259,0.621-0.393,1.272-0.393,1.964c0,0.691,0.134,1.349,0.393,1.962c0.259,0.624,0.612,1.161,1.07,1.618
	c0.456,0.449,0.982,0.812,1.585,1.078c0.595,0.266,1.239,0.398,1.931,0.398c0.894,0,1.832-0.287,2.815-0.862l1.35,1.972
	c-0.812,0.471-1.528,0.785-2.163,0.989c-0.626,0.177-1.299,0.279-2.002,0.279c-1.026,0-1.99-0.204-2.895-0.585
	c-0.902-0.393-1.686-0.924-2.358-1.598c-0.672-0.67-1.205-1.457-1.59-2.359c-0.388-0.899-0.583-1.867-0.583-2.892
	c0-1.022,0.196-1.99,0.584-2.896c0.385-0.915,0.917-1.699,1.59-2.372c0.673-0.671,1.457-1.203,2.358-1.6
	c0.905-0.395,1.869-0.591,2.895-0.591c0.703,0,1.375,0.089,2.002,0.266c0.635,0.184,1.301,0.475,1.998,0.888v2.844H20.352z
	 M23.304,18.429h3.745v4.996c0.022,0.252,0.108,0.47,0.273,0.646c0.158,0.179,0.431,0.277,0.812,0.298
	c0.278,0,0.551-0.054,0.809-0.152c0.261-0.102,0.49-0.233,0.687-0.411c0.201-0.178,0.359-0.38,0.474-0.621
	c0.121-0.234,0.178-0.486,0.178-0.769v-1.614H28.99v-2.372h3.746v5.996h1.215v2.194h-3.669v-1.422l0.471-0.875
	c-0.046,0.812-0.395,1.422-1.047,1.85c-0.653,0.408-1.368,0.622-2.155,0.622c-0.88,0-1.583-0.241-2.109-0.722
	c-0.527-0.481-0.804-1.102-0.836-1.877v-3.395h-1.301L23.304,18.429L23.304,18.429z M34.535,24.249h1.496V13.431h-1.299v-2.37h3.746
	v13.188h1.239v2.37h-5.183L34.535,24.249L34.535,24.249z M41.942,13.64h2.446v4.789h1.927v2.408h-1.927v3.412h1.471v2.37h-3.917
	v-5.782h-1.654v-2.408h1.654V13.64z M46.899,24.249h1.368v-3.448h-1.368v-2.372h3.826v5.82h1.346v2.37h-5.172V24.249z
	 M48.091,15.991c0-0.419,0.15-0.768,0.43-1.041c0.305-0.273,0.634-0.411,1.013-0.411c0.356,0,0.66,0.138,0.962,0.412
	c0.281,0.273,0.433,0.622,0.433,1.041c0,0.423-0.151,0.767-0.433,1.033c-0.302,0.264-0.606,0.398-0.962,0.398
	c-0.379,0-0.708-0.134-1.013-0.398C48.241,16.758,48.091,16.415,48.091,15.991z M52.652,18.429h5.17v2.372h-0.707
	c0.101,0.169,0.305,0.551,0.634,1.141c0.33,0.59,0.456,0.779,0.378,0.562c-0.075,0.218,0.053,0.035,0.382-0.562
	c0.305-0.589,0.507-0.97,0.607-1.141h-0.861v-2.372h5.325v2.372h-1.802c-0.479,0.92-1.012,1.896-1.596,2.936
	c-0.559,1.029-1.24,2.287-2.056,3.781c-0.809-1.494-1.495-2.752-2.077-3.797c-0.557-1.037-1.09-2.015-1.597-2.92h-1.8V18.429z
	 M64.16,22.538c0-0.572,0.103-1.117,0.329-1.635c0.229-0.521,0.533-0.977,0.941-1.371c0.38-0.386,0.836-0.696,1.369-0.931
	c0.531-0.228,1.112-0.349,1.722-0.349c0.407,0,0.76,0.065,1.115,0.177c0.329,0.116,0.608,0.242,0.86,0.382
	c0.257,0.139,0.458,0.292,0.658,0.463c0.18,0.165,0.127,0.33-0.125,0.493c-0.276-0.172-0.407-0.336-0.377-0.488
	c0.023-0.158,0.048-0.443,0.048-0.85h2.153v5.82h1.498v2.37H70.6V25.82l0.43-0.396c0.203,0.191,0.252,0.367,0.078,0.496
	c-0.153,0.149-0.354,0.277-0.586,0.404c-0.252,0.127-0.533,0.227-0.887,0.327c-0.328,0.104-0.683,0.141-1.115,0.141
	c-0.609,0-1.19-0.111-1.722-0.341c-0.533-0.218-0.989-0.531-1.369-0.912c-0.408-0.396-0.712-0.851-0.941-1.363
	C64.263,23.664,64.16,23.121,64.16,22.538z M66.619,22.518c0,0.531,0.181,0.975,0.533,1.33c0.354,0.363,0.812,0.539,1.369,0.539
	c0.559,0,1.012-0.176,1.372-0.539c0.353-0.355,0.528-0.799,0.528-1.33c0-0.543-0.177-0.988-0.528-1.331
	c-0.333-0.35-0.788-0.519-1.372-0.519s-1.04,0.169-1.369,0.519C66.8,21.529,66.619,21.975,66.619,22.518z M76.583,13.64h2.461v4.789
	h1.923v2.408h-1.923v3.412h1.465v2.37h-3.926v-5.782h-1.647v-2.408h1.647V13.64z M85.885,20.667c-0.556,0-1.012,0.158-1.342,0.488
	c-0.355,0.321-0.533,0.523-0.533,0.613c0.229-0.09,0.659-0.24,1.27-0.474c0.605-0.229,1.037-0.389,1.294-0.485
	c0.101,0.117,0.048,0.123-0.132,0.015C86.268,20.717,86.087,20.667,85.885,20.667z M89.816,22.18
	c-1.117,0.414-2.106,0.787-2.992,1.11c-0.887,0.328-1.6,0.596-2.155,0.799c-0.053-0.069,0.049-0.039,0.306,0.095
	c0.276,0.131,0.557,0.203,0.91,0.203c0.483,0,0.987-0.277,1.495-0.837l1.546,1.812c-0.529,0.546-1.037,0.912-1.521,1.131
	c-0.455,0.199-0.963,0.302-1.521,0.302c-0.606,0-1.167-0.112-1.698-0.341c-0.533-0.217-0.988-0.531-1.395-0.912
	c-0.378-0.395-0.686-0.85-0.911-1.363c-0.226-0.513-0.33-1.064-0.33-1.66c0-0.582,0.104-1.136,0.33-1.653
	c0.228-0.526,0.533-0.977,0.911-1.363c0.404-0.379,0.859-0.684,1.395-0.907c0.531-0.227,1.092-0.341,1.698-0.341
	c0.456,0,0.914,0.097,1.316,0.279c0.433,0.19,0.813,0.438,1.143,0.76c0.306,0.319,0.609,0.693,0.839,1.129
	C89.434,20.85,89.639,21.44,89.816,22.18z M106.214,12.05h2.813v2.361h-1.694v9.838h1.694v2.37h-5.572v-2.37h1.417v-7.301
	c0.024-0.116,0.024-0.223,0.024-0.322c0.022-0.109-0.024,0.303-0.15,1.235c0.506-0.709,0.707-0.99,0.605-0.831
	c-0.101,0.16-0.203,0.311-0.304,0.458c-0.786,1.121-1.624,2.217-2.483,3.281c-0.863,1.07-1.799,2.293-2.838,3.665l-5.602-7.322
	L94.1,16.345c0.277,0.077,0.432,0.172,0.432,0.274c0,0.106,0.025,0.213,0.025,0.329v7.301h1.418v2.37h-5.576v-2.37h1.725v-9.838
	h-1.725V12.05h2.812c1.222,1.559,2.384,3.058,3.476,4.505c1.115,1.45,2.127,2.762,3.043,3.935c0.912-1.172,1.926-2.484,3.017-3.935
	C103.857,15.108,105.023,13.609,106.214,12.05z M113.971,20.667c-0.557,0-1.012,0.158-1.342,0.488
	c-0.327,0.321-0.508,0.523-0.508,0.613c0.229-0.09,0.634-0.24,1.242-0.474c0.607-0.229,1.037-0.389,1.294-0.485
	c0.101,0.117,0.049,0.123-0.126,0.015C114.354,20.717,114.175,20.667,113.971,20.667z M117.927,22.18
	c-1.114,0.414-2.132,0.787-3.018,1.11c-0.884,0.328-1.597,0.596-2.154,0.799c-0.048-0.069,0.048-0.039,0.306,0.095
	c0.276,0.131,0.58,0.203,0.91,0.203c0.483,0,0.991-0.277,1.521-0.837l1.55,1.812c-0.56,0.546-1.067,0.912-1.521,1.131
	c-0.483,0.199-0.989,0.302-1.551,0.302c-0.605,0-1.168-0.112-1.693-0.341c-0.533-0.217-0.993-0.531-1.371-0.912
	c-0.405-0.395-0.711-0.85-0.939-1.363c-0.227-0.514-0.328-1.064-0.328-1.66c0-0.582,0.103-1.136,0.328-1.653
	c0.229-0.526,0.534-0.977,0.939-1.363c0.378-0.379,0.838-0.684,1.371-0.907c0.525-0.227,1.088-0.341,1.693-0.341
	c0.461,0,0.913,0.097,1.346,0.279c0.406,0.19,0.787,0.438,1.113,0.76c0.329,0.319,0.611,0.693,0.863,1.129
	C117.52,20.85,117.725,21.44,117.927,22.18z"/>
</svg>
